<?xml version="1.0" encoding="utf-8"?>
<!-- Generator: Adobe Illustrator 25.3.1, SVG Export Plug-In . SVG Version: 6.00 Build 0)  -->
<svg version="1.1" id="Camada_1" xmlns="http://www.w3.org/2000/svg" xmlns:xlink="http://www.w3.org/1999/xlink" x="0px" y="0px"
	 viewBox="0 0 266.7 347" style="enable-background:new 0 0 266.7 347;" xml:space="preserve">
<style type="text/css">
	.st0{fill-rule:evenodd;clip-rule:evenodd;fill:#FFFFFF;}
</style>
<g>
	<path class="st0" d="M69.6,320.9l-0.5-15.8c-6.5-3-12.7-6.6-18.6-11C37,283.8,27.4,270.3,22.2,255v0l-15.6-1.5h0
		c-1.7-0.1-3.4-0.7-4.6-2c-2-2.1-2.1-5.2-1.8-8c0.4-3.2,1.4-6.5,2.3-9.6c2.4-8.1,5.1-16,6.6-24.4c1.3-7.5,1.7-15.6-1.1-22.8
		c-0.2-0.4-0.3-0.8-0.5-1.2c-0.6-1.4-0.7-3,0.7-4.1c1.4-1.1,3-0.7,4.2,0.2c0.4,0.3,0.8,0.6,1.2,0.9c4.4,3.4,9.4,7.8,12.9,12.8
		c0.9-2,1.9-4,2.8-6.1c2.8-6,4.2-10.9,4.4-17.6c0-0.4,0-0.7,0-1.1c0.1-1.4,0.8-2.7,2.2-3.2c1.4-0.5,2.8,0.1,3.7,1.2
		c0.3,0.4,0.5,0.8,0.8,1.2l0.1,0.1l0.1,0.1c6,14.6,4.9,26.6,1.1,41.1c2.1-0.2,4.2-0.4,6.3-0.5c1.4-0.1,2.5-0.2,3.6,0.8
		c1.1,1,1.1,2.1,1.1,3.4c0.2,4.6,0.4,9.2,0.6,13.9c0.5,13.1,5.4,24.5,14.6,33.3l-0.2-9.1c-5.3-6.9-8.1-15.2-8.5-24.5L53.6,99.9
		l2.8-0.4c2.3-0.3,4.6-0.6,6.8-0.9l-0.4-14.6c-0.6-0.2-1.1-0.5-1.5-1c-0.7-0.8-0.9-1.6-0.9-2.6c-7.1-3.1-6.6-13.9,1-15.9l0.1,0
		l0.1,0c1.3-0.2,2.5-0.4,3.8-0.6l0.4-0.6c-2.8-2.4-5.4-5-7.6-8c-0.4-0.5-0.8-1.1-1.2-1.7c-1.4-1.8-2.5-3.9-2.7-6.2
		c-0.2-2.9,1.1-5.4,3.1-7.5c0.8-0.8,1.5-1.8,2.3-2.6c2.1-2.4,3.4-4.2,3.8-7.4c0-0.2,0-0.3,0.1-0.4c0-0.2,0-0.3,0.1-0.5
		c0.1-1,0.7-1.8,1.6-2.2c1-0.3,2,0,2.7,0.7c0.2,0.2,0.3,0.3,0.4,0.5c0.2,0.2,0.4,0.5,0.6,0.7c1.5-2.8,3.4-5.4,5.7-7.7
		c2.2-2.2,4.5-3.6,7.2-5c4.2-2.3,7.3-7.7,6.6-12.5c0-0.1,0-0.3-0.1-0.4c-0.2-1.1,0.2-2.2,1.3-2.8c1.1-0.5,2.3-0.2,3,0.7
		c0.1,0.1,0.2,0.3,0.4,0.4c2.5,3.1,4.7,6.1,4.9,10.3c0.1,2.2-0.5,3.9-1.4,5.8c-0.5,1.1-1,2.2-1.2,3.4c-0.1,0.8,0,1.4,0.3,2
		c1.7-1.3,3.2-3,3.7-5.2c0.3-1.3,0.9-2.6,2.6-2.5c1.2,0,2,0.8,2.4,1.9c0.1,0.2,0.1,0.4,0.2,0.5c2,5,1.6,9.8-0.6,14.7
		c-0.5,1.3-1.2,2.6-1.9,3.8c-0.5,1-1.3,2.5-1.5,3.7c0,0.2,0.1,0.4,0.3,0.6c2.5,2.9,4,6.5,3.5,10.4c-0.8,5.5-5.4,9.8-10.1,12.8
		l0.3,0.4c1.4,0.2,2.8,0.4,4.1,0.6l0.1,0l0.1,0c7.8,2,8.1,13.1,0.7,16c-0.1,0.9-0.2,1.7-0.9,2.5c-0.4,0.5-0.9,0.8-1.5,1l-0.3,11.3
		c6.5-0.4,13.1-0.8,19.6-1l-0.3-10.3c-0.6-0.2-1.1-0.5-1.5-1c-0.7-0.8-0.9-1.6-0.9-2.6c-7.1-3.1-6.6-13.9,1-15.9l0.1,0l0.1,0
		c1.3-0.2,2.5-0.4,3.8-0.6l0.6-0.8c-2.7-2.4-5.2-4.9-7.4-7.8c-0.4-0.5-0.8-1.1-1.2-1.7c-1.4-1.8-2.5-3.9-2.7-6.2
		c-0.2-2.9,1.1-5.4,3.1-7.5c0.8-0.8,1.5-1.8,2.3-2.6c2.1-2.4,3.4-4.2,3.8-7.4c0-0.2,0-0.3,0.1-0.4c0-0.2,0-0.3,0.1-0.5
		c0.1-1,0.7-1.8,1.6-2.2c1-0.3,2,0,2.7,0.7c0.2,0.2,0.3,0.3,0.4,0.5c0.2,0.2,0.4,0.5,0.6,0.7c1.5-2.8,3.4-5.4,5.7-7.7
		c2.2-2.2,4.5-3.6,7.2-5c4.2-2.3,7.3-7.7,6.6-12.5c0-0.1,0-0.3-0.1-0.4c-0.2-1.1,0.2-2.2,1.3-2.8c1.1-0.5,2.3-0.2,3,0.7
		c0.1,0.1,0.2,0.3,0.4,0.4c2.5,3.1,4.7,6.1,4.9,10.3c0.1,2.2-0.5,3.9-1.4,5.8c-0.5,1.1-1,2.2-1.2,3.4c-0.1,0.8,0,1.4,0.3,2
		c1.7-1.3,3.2-3,3.7-5.2c0.3-1.3,0.9-2.6,2.6-2.5c1.2,0,2,0.8,2.4,1.9c0.1,0.2,0.1,0.4,0.2,0.5c2,5,1.6,9.8-0.6,14.7
		c-0.5,1.3-1.2,2.6-1.9,3.8c-0.5,1-1.3,2.5-1.5,3.7c0,0.2,0.1,0.4,0.3,0.6c2.5,2.9,4,6.5,3.5,10.4c-0.8,5.6-5.6,10-10.4,13l0.1,0.2
		c1.4,0.2,2.8,0.4,4.1,0.6l0.1,0l0.1,0c7.8,2,8.1,13.1,0.7,16c-0.1,0.9-0.2,1.7-0.9,2.5c-0.4,0.5-0.9,0.8-1.5,1l-0.3,10.4
		c6.5,0.2,13,0.5,19.4,1l-0.3-11.3c-0.6-0.2-1.1-0.5-1.5-1c-0.7-0.8-0.9-1.6-0.9-2.6c-7.1-3.1-6.6-13.9,1-15.9l0.1,0l0.1,0
		c1.3-0.2,2.5-0.4,3.8-0.6l0.5-0.7c-2.7-2.4-5.3-4.9-7.5-7.9c-0.4-0.5-0.8-1.1-1.2-1.7c-1.4-1.8-2.5-3.9-2.7-6.2
		c-0.2-2.9,1.1-5.4,3.1-7.5c0.8-0.8,1.5-1.8,2.3-2.6c2.1-2.4,3.4-4.2,3.8-7.4c0-0.2,0-0.3,0.1-0.4c0-0.2,0-0.3,0.1-0.5
		c0.1-1,0.7-1.8,1.6-2.2c1-0.3,2,0,2.7,0.7c0.2,0.2,0.3,0.3,0.4,0.5c0.2,0.2,0.4,0.5,0.6,0.7c1.5-2.8,3.4-5.4,5.7-7.7
		c2.2-2.2,4.5-3.6,7.2-5c4.2-2.3,7.3-7.7,6.6-12.5c0-0.1,0-0.3-0.1-0.4c-0.2-1.1,0.2-2.2,1.3-2.8c1.1-0.5,2.3-0.2,3,0.7
		c0.1,0.1,0.2,0.3,0.4,0.4c2.5,3.1,4.7,6.1,4.9,10.3c0.1,2.2-0.5,3.9-1.4,5.8c-0.5,1.1-1,2.2-1.2,3.4c-0.1,0.8,0,1.4,0.3,2
		c1.7-1.3,3.2-3,3.7-5.2c0.3-1.3,0.9-2.6,2.6-2.5c1.2,0,2,0.8,2.4,1.9c0.1,0.2,0.1,0.4,0.2,0.5c2,5,1.6,9.8-0.6,14.7
		c-0.5,1.3-1.2,2.6-1.9,3.8c-0.5,1-1.3,2.5-1.5,3.7c0,0.2,0.1,0.4,0.3,0.6c2.5,2.9,4,6.5,3.5,10.4c-0.8,5.5-5.5,9.9-10.2,12.9
		l0.2,0.3c1.4,0.2,2.8,0.4,4.1,0.6l0.1,0l0.1,0c7.8,2,8.1,13.1,0.7,16c-0.1,0.9-0.2,1.7-0.9,2.5c-0.4,0.5-0.9,0.8-1.5,1l-0.4,14.5
		c2.4,0.3,4.9,0.6,7.3,0.9l2.8,0.4l-5.6,128.6c-0.4,9.5-3.3,18-8.9,25l0,0l-0.3,8.9c9.5-8.8,14.6-20.4,15.1-33.7
		c0.2-4.6,0.4-9.2,0.6-13.9c0.1-1.3,0-2.4,1.1-3.4c1.1-1,2.3-1,3.6-0.8c2.1,0.2,4.2,0.4,6.3,0.5c-3.7-14.5-4.9-26.5,1.1-41.1
		l0.1-0.1l0.1-0.1c0.2-0.4,0.5-0.8,0.8-1.2c0.9-1.1,2.3-1.7,3.7-1.2c1.5,0.5,2.1,1.8,2.2,3.2c0,0.4,0,0.7,0,1.1
		c0.2,6.7,1.7,11.6,4.4,17.6c1,2.1,1.9,4.1,2.8,6.1c3.4-5,8.4-9.4,12.9-12.8c0.4-0.3,0.8-0.6,1.2-0.9c1.2-1,2.8-1.4,4.2-0.2
		c1.4,1.1,1.4,2.7,0.7,4.1c-0.2,0.4-0.4,0.8-0.5,1.2c-2.8,7.2-2.4,15.3-1.1,22.8c1.5,8.4,4.2,16.3,6.6,24.4c0.9,3.1,1.9,6.4,2.3,9.6
		c0.3,2.7,0.2,5.8-1.8,8c-1.3,1.3-2.9,1.9-4.6,2l0,0l-15.6,1.5v0c-5.2,15.4-14.8,28.8-28.4,39.2c-6.1,4.7-12.7,8.4-19.5,11.5
		l0.5-0.2l-0.4,15.6c1.3-0.1,2.5-0.1,3.7,0l2.6,0.1l-0.1,2.6c-0.1,1.5-0.6,2.8-1.6,3.8c-0.9,0.9-1.9,1.2-3,1.7
		c-0.5,0.2-1,0.5-1.3,0.9c0,0.1-0.1,0.1-0.1,0.2c0,0.2-0.1,0.3-0.1,0.5c-0.1,2.1,0.3,4-1.6,5.5c-0.7,0.6-1.5,0.9-2.3,1
		c-1,2.6-3.8,4.1-6.5,4.1c-2.7,0-5.6-1.5-6.5-4.1c-0.8-0.2-1.6-0.5-2.3-1c-0.4-0.3-0.7-0.7-0.9-1c-0.6-1-0.7-2.1-0.7-3.3
		c0-0.4,0.1-1.5-0.1-1.9c-0.3-0.5-0.8-0.7-1.3-0.9c-1.1-0.5-2.1-0.9-3-1.7c-1.1-1-1.6-2.3-1.6-3.8L170,321l2.6-0.1
		c1.1,0,2.2-0.1,3.4,0l-0.2-8.4l0.1,0c-10.5,2.5-21.4,3.8-32.2,4.3l-0.3,9.7c1.3-0.1,2.7-0.1,3.8,0l2.6,0.1l-0.1,2.6
		c-0.1,1.5-0.6,2.8-1.6,3.8c-0.9,0.9-1.9,1.2-3,1.7c-0.5,0.2-1,0.5-1.3,0.9c0,0.1-0.1,0.1-0.1,0.2c0,0.2-0.1,0.3-0.1,0.5
		c-0.1,2.1,0.3,4-1.6,5.5c-0.7,0.6-1.5,0.9-2.3,1c-1,2.6-3.8,4.1-6.5,4.1c-2.7,0-5.6-1.5-6.5-4.1c-0.8-0.2-1.6-0.5-2.3-1
		c-0.4-0.3-0.7-0.7-0.9-1c-0.6-1-0.7-2.1-0.7-3.3c0-0.4,0.1-1.5-0.1-1.9c-0.3-0.5-0.8-0.7-1.3-0.9c-1.1-0.5-2.1-0.9-3-1.7
		c-1.1-1-1.6-2.3-1.7-3.8l-0.1-2.6l2.6-0.1c1.1,0,2.3-0.1,3.6,0l-0.3-9.7c-10.8-0.5-21.7-1.8-32.3-4.3l-0.2,8.6
		c1.3-0.1,2.5-0.1,3.7,0l2.6,0.1l-0.1,2.6c-0.1,1.5-0.6,2.8-1.6,3.8c-0.9,0.9-1.9,1.2-3,1.7c-0.5,0.2-1,0.5-1.3,0.9
		c0,0.1-0.1,0.1-0.1,0.2c0,0.2,0,0.3-0.1,0.5c-0.1,2.1,0.3,4-1.6,5.5c-0.7,0.6-1.5,0.9-2.3,1c-1,2.6-3.8,4.1-6.5,4.1
		c-2.7,0-5.6-1.5-6.5-4.1c-0.8-0.2-1.6-0.5-2.3-1c-0.4-0.3-0.7-0.7-0.9-1c-0.6-1-0.7-2.1-0.7-3.3c0-0.4,0.1-1.5-0.1-1.9
		c-0.3-0.5-0.8-0.7-1.3-0.9c-1.1-0.5-2.1-0.9-3-1.7c-1.1-1-1.6-2.3-1.6-3.8l-0.1-2.6l2.6-0.1C67.2,320.9,68.4,320.9,69.6,320.9
		L69.6,320.9z M56.8,102.6c12.8-1.8,25.4-3.1,37.9-4l13.3,15.6l7.2-6.2l12.1,14.1l-7.2,6.2l13.5,15.8l7.2-6.2l12.1,14.1l-7.2,6.2
		l13.5,15.8l7.2-6.2l12.1,14.1l-7.2,6.2l12,14l1.5,1.8l7.2-6.2l12.1,14.1l0,0l-7.2,6.2l7.9,9.2l-0.1,1.4c-0.6,16-9.2,32.2-35.2,39.6
		l-11.7-13.7l-1.5-1.8l-7.2,6.2l-12-14.1l0,0l7.2-6.2l-13.5-15.8l0.8-0.7l-8,6.9l-12-14.1l7.2-6.2l-13.5-15.8l-7.2,6.2l-12-14.1
		l7.2-6.2L79.4,163l-7.2,6.2l-12-14.1l7.2-6.2l-9-10.5L56.8,102.6L56.8,102.6z M97.9,98.4l10.3,12.1l7.2-6.2l15.5,18.1l-7.2,6.2
		l10.1,11.8l7.2-6.2l15.5,18.1l-7.2,6.2l10.1,11.8l7.2-6.2l15.5,18.1l-7.2,6.2l10.1,11.8l7.2-6.2l13.2,15.5l4.6-106.7
		C171.8,97.4,135.3,95.9,97.9,98.4L97.9,98.4z M205.1,214l-4.8,4.1l4.4,5.3L205.1,214L205.1,214z M165.9,268.9l0.5-0.4l-10.7-12.3
		l-7.2,6.2L133,244.4l7.2-6.2l-10.1-11.8l-7.2,6.2l-15.5-18.1l7.2-6.2l-10.1-11.8l-7.2,6.2l-15.5-18.1l7.2-6.2l-10.1-11.8l-7.2,6.2
		L59.2,158l3.1,70.4c0.9,21.9,16.4,43.9,71.1,43.9C146.3,272.3,157,271.1,165.9,268.9L165.9,268.9z M58.9,152.6l4.7-4l-5.1-5.4
		L58.9,152.6L58.9,152.6z M67.5,61.6c0.9-0.5,2.2-0.7,3.3-0.8c-0.1-0.2-0.1-0.4,0-0.6c-2.8-2-5.7-5.2-7.1-9.7
		c-0.9-2.9-0.2-4.8,0.9-7.6c1-2.6,2.1-5.3,2-9c1,2.4,2.8,5.3,3.1,9c-1.1,0.9-2.1,1.9-2.8,3.1c-1.3,3.1-1.3,6-0.3,8.9
		c0-0.6,0-1.1,0-1.6c0.1-2.4,0.8-4.5,2.4-6.1c-0.3,2.5,0.4,4.7,1.3,6.4c0.2,0.5,0.5,0.9,0.7,1.3c-0.4-1.3-0.6-2.6-0.5-3.7
		c0-1.2,0.3-2.4,0.7-3.4c0.8-2.1,2.3-3.8,4.2-5.4c4.9-4,4.9-7.5,5.2-10.8c-1.2,2.7-2.2,5.4-5.3,7.7c-0.5,0.3-1,0.7-1.6,1
		c-0.9,0.5-1.7,1-2.5,1.6c1.8-4.5,4.7-8.8,8-11.4c1.3-1,2.5-2.3,3.8-3.5c0.7-0.6,1.4-1.2,2-1.9c3.8-4.1,4.6-8.1,5.5-12.2
		c0.6,4.5,1.5,9.4-4.5,16.3c-1.6,2-3,4.1-3.8,6.2c-0.9,2.4-0.3,2.8,0.5,5.1c0.9,2.6,1.6,5.6,1.2,9.2c-0.6,5.6-3.1,8.6-6,10.8
		c0.7,0,1.3,0,2,0c0.7,0,1.4,0,2.1,0c6.1-4.4,10.9-12.9,9.5-20c9.3,7.8,2.7,15.7-4.8,20.2c0.3,0,0.6,0.1,0.9,0.1
		c1.3,0.1,3.3,0.3,4.6,1c7.9-4.9,13.2-12.1,6.5-19.9c-0.5-0.7-0.9-1.5-0.7-2.6c0.4-2.3,2.6-5.7,3.5-8c2.3-5.2,2.2-9.5,0.2-13.9
		c-0.5,3.9-2.9,6.3-5.8,8.2c-1.9,1.5-4.4,3-6,4.8c-0.2-2.2,2.4-4.7,3.7-6.1c-0.6-1-0.9-2.2-0.7-3.7c0.4-3.2,2.7-5.3,2.6-8.7
		C95.5,8,93,5.2,90.8,2.3c1.2,6-2.4,12.9-7.8,15.8c-2.5,1.3-4.6,2.6-6.7,4.6c-2.7,2.7-5.7,6.8-7.8,13c-0.3-3.3-0.4-4.3-2.4-6.7
		c-0.4,2.9-0.5,5.3-4.6,9.9c-0.9,1-1.5,1.8-2.4,2.7c-1.6,1.7-2.6,3.6-2.4,5.7c0.1,1.5,0.8,3.2,2.2,5c0.4,0.6,0.8,1.1,1.2,1.6
		C62.3,56.8,64.8,59.3,67.5,61.6L67.5,61.6z M72.9,60.6l0.4,0l-3.1-5.2c-0.3-0.4-0.5-0.9-0.8-1.3c-0.7-1.3-1.2-2.7-1.4-4.1
		c-0.4,1.1-0.6,2.2-0.7,3.4c0,0.5,0,1,0,1.6l0,0.8c1.1,1.4,2.4,2.7,3.9,3.8L72.9,60.6L72.9,60.6z M73.8,60.6
		c0.9-0.1,1.8-0.1,2.7-0.1c1.4-1,2.7-2.1,3.8-3.4c1.8-2.2,2.6-4.7,2.8-7.5c0.3-3.1-0.1-5.9-1.2-8.8c-0.9-2.4-1.5-3.1-0.5-5.8
		c0.9-2.4,2.4-4.5,4-6.5l0,0c2.2-2.5,3.9-5.3,4.5-8.6C90,19.3,90,18.6,90,18c-0.9,2.7-2.1,5.1-4.4,7.6c-0.6,0.7-1.3,1.3-2.1,1.9
		c-0.7,0.6-1.3,1.2-2,1.9l-0.2,2.2c-0.1,1.9-0.2,3.5-0.9,5.3c-0.9,2.5-2.6,4.4-4.6,6c-1.6,1.4-3.1,3.1-4,5.1c-0.4,1-0.6,2-0.6,3.1
		c0,1.2,0.2,2.4,0.5,3.5l1.7,5.8C73.6,60.5,73.7,60.5,73.8,60.6L73.8,60.6z M83.5,60.5c0.6,0,1.2,0.1,1.8,0.1c1-0.6,2-1.2,3-1.9
		c6.3-4.4,9.7-10.2,4.4-16C92.8,49.2,88.8,56.3,83.5,60.5L83.5,60.5z M100.1,24.9c-2.7,4.8-10,5.7-13.3,10.2
		c-2.9,4.1-1.8,10.7,0.4,14.3c0-0.3,0-0.6,0-0.8c0-1.3,0.2-5.7,0.5-6.9c1-3.8,4.3-4.9,7-7.9c1.2-1.3,2.1-2.7,3.2-4
		c0.4-0.5,0.7-0.9,1-1.4C99.5,27.3,99.9,26.2,100.1,24.9L100.1,24.9z M68.7,42.6c-0.2-1.9-0.8-3.5-1.6-5.1c-0.3,1.9-1,3.7-1.8,5.7
		c-1,2.6-1.7,4.3-0.9,7c0.1,0.4,0.3,0.8,0.4,1.1c-0.1-1.9,0.3-3.8,1.1-5.6l0-0.1l0-0.1C66.8,44.4,67.7,43.4,68.7,42.6L68.7,42.6z
		 M79.8,31c0,0-0.1,0.1-0.1,0.1c-2.7,2.1-5,5.3-6.6,8.5c0,0,0.1,0,0.1-0.1c0.5-0.3,1-0.6,1.5-1c2.8-2,3.7-4.4,5-7.4L79.8,31L79.8,31
		z M97.6,28.8c-3.4,2.4-7.7,3.7-10,6.8c-1.8,2.5-1.9,6.3-1.1,9.6c0,0,0-0.1,0-0.1c0.1-1.1,0.2-2.6,0.4-3.6c1.1-4.1,4.6-5.3,7.2-8.2
		c1.1-1.3,2.1-2.7,3.1-4C97.4,29.1,97.5,28.9,97.6,28.8L97.6,28.8z M121.1,61.5c1-0.4,2.3-0.6,3.4-0.7c-0.1-0.2-0.1-0.4,0-0.6
		c-2.8-2-5.7-5.2-7.1-9.7c-0.9-2.9-0.2-4.8,0.9-7.6c1-2.6,2.1-5.3,2-9c1,2.4,2.8,5.3,3.1,9c-1.1,0.9-2.1,1.9-2.9,3.1
		c-1.3,3.1-1.3,6-0.3,8.9c0-0.6,0-1.1,0-1.6c0.1-2.4,0.8-4.5,2.4-6.1c-0.3,2.5,0.4,4.7,1.3,6.4c0.2,0.5,0.5,0.9,0.7,1.3
		c-0.4-1.3-0.6-2.6-0.5-3.7c0-1.2,0.3-2.4,0.7-3.4c0.8-2.1,2.3-3.8,4.2-5.4c4.9-4,4.9-7.5,5.2-10.8c-1.2,2.7-2.2,5.4-5.3,7.7
		c-0.5,0.3-1,0.7-1.6,1c-0.9,0.5-1.7,1-2.5,1.6c1.8-4.5,4.7-8.8,8-11.4c1.3-1,2.5-2.3,3.8-3.5c0.7-0.6,1.4-1.2,2-1.9
		c3.8-4.1,4.6-8.1,5.5-12.2c0.6,4.5,1.5,9.4-4.5,16.3c-1.6,2-3,4.1-3.8,6.2c-0.9,2.4-0.3,2.8,0.5,5.1c0.9,2.6,1.6,5.6,1.2,9.2
		c-0.6,5.6-3.1,8.6-6,10.8c0.6,0,1.1,0,1.7,0c0.8,0,1.6,0,2.4,0c6.1-4.3,10.9-12.9,9.6-20c9.4,7.8,2.7,15.7-4.8,20.2
		c0.2,0,0.4,0,0.6,0.1c1.4,0.1,3.5,0.3,4.8,1.1c8-4.9,13.4-12.2,6.7-20c-0.5-0.7-0.9-1.5-0.7-2.6c0.4-2.3,2.6-5.7,3.5-8
		c2.3-5.2,2.2-9.5,0.2-13.9c-0.5,3.9-2.9,6.3-5.8,8.2c-1.9,1.5-4.4,3-6,4.8c-0.2-2.2,2.4-4.7,3.7-6.1c-0.6-1-0.9-2.2-0.7-3.7
		c0.4-3.2,2.7-5.3,2.6-8.7c-0.1-3.9-2.6-6.6-4.8-9.5c1.2,6-2.4,12.9-7.8,15.8c-2.5,1.3-4.6,2.6-6.7,4.6c-2.7,2.7-5.7,6.8-7.8,13
		c-0.3-3.3-0.4-4.3-2.4-6.7c-0.4,2.9-0.5,5.3-4.6,9.9c-0.9,1-1.5,1.8-2.4,2.7c-1.6,1.7-2.6,3.6-2.4,5.7c0.1,1.5,0.8,3.2,2.2,5
		c0.4,0.6,0.8,1.1,1.2,1.6C115.9,56.8,118.4,59.2,121.1,61.5L121.1,61.5z M126.6,60.6l0.4,0l-3.1-5.2c-0.3-0.4-0.5-0.9-0.8-1.3
		c-0.7-1.3-1.2-2.7-1.4-4.1c-0.4,1.1-0.6,2.2-0.7,3.4c0,0.5,0,1,0,1.6l0,0.8c1.1,1.4,2.4,2.7,3.9,3.8L126.6,60.6L126.6,60.6z
		 M127.4,60.6c0.9,0,1.8-0.1,2.8-0.1c1.4-1,2.7-2.1,3.7-3.4c1.8-2.2,2.6-4.7,2.8-7.5c0.3-3.1-0.1-5.9-1.2-8.8
		c-0.9-2.4-1.5-3.1-0.5-5.8c0.9-2.4,2.4-4.5,4-6.5l0,0c2.2-2.5,3.9-5.3,4.5-8.6c0.1-0.7,0.2-1.3,0.2-1.9c-0.9,2.7-2.1,5.1-4.4,7.6
		c-0.6,0.7-1.3,1.3-2.1,1.9c-0.7,0.6-1.3,1.2-2,1.9l-0.2,2.2c-0.1,1.9-0.2,3.5-0.9,5.3c-0.9,2.5-2.6,4.4-4.6,6
		c-1.6,1.4-3.1,3.1-4,5.1c-0.4,1-0.6,2-0.6,3.1c0,1.2,0.2,2.4,0.5,3.5l1.7,5.8C127.3,60.5,127.3,60.5,127.4,60.6L127.4,60.6z
		 M137.1,60.5c0.6,0,1.2,0.1,1.8,0.1c1-0.6,2.1-1.2,3-1.9c6.3-4.4,9.7-10.2,4.4-16C146.5,49.2,142.4,56.3,137.1,60.5L137.1,60.5z
		 M153.8,24.9c-2.7,4.8-10,5.7-13.3,10.2c-2.9,4.1-1.8,10.7,0.4,14.3c0-0.3,0-0.6,0-0.8c0-1.3,0.2-5.7,0.5-6.9c1-3.8,4.3-4.9,7-7.9
		c1.2-1.3,2.1-2.7,3.2-4c0.4-0.5,0.7-0.9,1-1.4C153.1,27.3,153.5,26.2,153.8,24.9L153.8,24.9z M122.4,42.6c-0.2-1.9-0.9-3.5-1.6-5.1
		c-0.3,1.9-1,3.7-1.8,5.7c-1,2.6-1.7,4.3-0.9,7c0.1,0.4,0.3,0.8,0.4,1.1c-0.1-1.9,0.3-3.8,1.1-5.6l0-0.1l0-0.1
		C120.4,44.4,121.3,43.4,122.4,42.6L122.4,42.6z M133.5,31c0,0-0.1,0.1-0.1,0.1c-2.7,2.1-5,5.3-6.6,8.5c0,0,0.1,0,0.1-0.1
		c0.5-0.3,1-0.6,1.5-1c2.8-2,3.7-4.4,5-7.4L133.5,31L133.5,31z M151.2,28.8c-3.4,2.4-7.7,3.7-10,6.8c-1.8,2.5-1.9,6.3-1.1,9.6
		c0,0,0-0.1,0-0.1c0.1-1.1,0.2-2.6,0.4-3.6c1.1-4.1,4.6-5.3,7.2-8.2c1.1-1.3,2.1-2.7,3.1-4C151,29.1,151.1,28.9,151.2,28.8
		L151.2,28.8z M174.1,61.6c0.9-0.4,2.1-0.6,3.1-0.8c-0.1-0.2-0.1-0.4,0-0.6c-2.8-2-5.7-5.2-7.1-9.7c-0.9-2.9-0.2-4.8,0.9-7.6
		c1-2.6,2.1-5.3,1.9-9c1,2.4,2.8,5.3,3.1,9c-1.1,0.9-2.1,1.9-2.8,3.1c-1.3,3.1-1.3,6-0.3,8.9c0-0.6,0-1.1,0-1.6
		c0.1-2.4,0.8-4.5,2.4-6.1c-0.3,2.5,0.4,4.7,1.3,6.4c0.2,0.5,0.5,0.9,0.7,1.3c-0.4-1.3-0.6-2.6-0.5-3.7c0-1.2,0.3-2.4,0.7-3.4
		c0.8-2.1,2.3-3.8,4.2-5.4c4.9-4,4.9-7.5,5.2-10.8c-1.2,2.7-2.2,5.4-5.3,7.7c-0.5,0.3-1,0.7-1.6,1c-0.9,0.5-1.7,1-2.5,1.6
		c1.8-4.5,4.7-8.8,8-11.4c1.3-1,2.5-2.3,3.8-3.5c0.7-0.6,1.4-1.2,2-1.9c3.8-4.1,4.6-8.1,5.5-12.2c0.6,4.5,1.5,9.4-4.5,16.3
		c-1.6,2-3,4.1-3.8,6.2c-0.9,2.4-0.3,2.8,0.5,5.1c0.9,2.6,1.6,5.6,1.2,9.2c-0.6,5.6-3.1,8.6-6,10.8c0.7,0,1.4,0,2.1,0
		c0.7,0,1.4,0,2,0c6.1-4.4,10.9-12.9,9.5-20c9.3,7.8,2.7,15.7-4.7,20.2c0.3,0,0.6,0.1,0.9,0.1c1.3,0.1,3.4,0.3,4.7,1.1
		c8-4.9,13.3-12.1,6.6-20c-0.5-0.7-0.9-1.5-0.7-2.6c0.4-2.3,2.6-5.7,3.5-8c2.3-5.2,2.2-9.5,0.2-13.9c-0.5,3.9-2.9,6.3-5.8,8.2
		c-1.9,1.5-4.4,3-6,4.8c-0.2-2.2,2.4-4.7,3.7-6.1c-0.6-1-0.9-2.2-0.7-3.7c0.4-3.2,2.7-5.3,2.6-8.7c-0.1-3.9-2.6-6.6-4.8-9.5
		c1.2,6-2.4,12.9-7.8,15.8c-2.5,1.3-4.6,2.6-6.7,4.6c-2.7,2.7-5.7,6.8-7.8,13c-0.3-3.3-0.4-4.3-2.4-6.7c-0.4,2.9-0.5,5.3-4.6,9.9
		c-0.9,1-1.5,1.8-2.4,2.7c-1.6,1.7-2.6,3.6-2.4,5.7c0.1,1.5,0.8,3.2,2.2,5c0.4,0.6,0.8,1.1,1.2,1.6
		C168.9,56.8,171.4,59.3,174.1,61.6L174.1,61.6z M179.3,60.6l0.4,0l-3.1-5.2c-0.3-0.4-0.5-0.9-0.8-1.3c-0.7-1.3-1.2-2.7-1.4-4.1
		c-0.4,1.1-0.6,2.2-0.7,3.4c0,0.5,0,1,0,1.6l0,0.8c1.1,1.4,2.4,2.7,3.9,3.8L179.3,60.6L179.3,60.6z M180.1,60.6
		c0.9-0.1,1.8-0.1,2.7-0.1c1.4-1,2.7-2.1,3.8-3.4c1.8-2.2,2.6-4.7,2.8-7.5c0.3-3.1-0.1-5.9-1.2-8.8c-0.9-2.4-1.5-3.1-0.5-5.8
		c0.9-2.4,2.4-4.5,4-6.5l0,0c2.2-2.5,3.9-5.3,4.5-8.6c0.1-0.7,0.2-1.3,0.2-1.9c-0.9,2.7-2.1,5.1-4.4,7.6c-0.6,0.7-1.3,1.3-2.1,1.9
		c-0.7,0.6-1.3,1.2-2,1.9l-0.2,2.2c-0.1,1.9-0.2,3.5-0.9,5.3c-0.9,2.5-2.6,4.4-4.6,6c-1.6,1.4-3.1,3.1-4,5.1c-0.4,1-0.6,2-0.6,3.1
		c0,1.2,0.2,2.4,0.5,3.5l1.7,5.8C180,60.5,180.1,60.5,180.1,60.6L180.1,60.6z M189.8,60.5c0.6,0,1.2,0,1.9,0.1c1-0.6,2-1.2,3-1.9
		c6.3-4.4,9.7-10.2,4.4-16C199.2,49.2,195.2,56.3,189.8,60.5L189.8,60.5z M206.5,24.9c-2.7,4.8-10,5.7-13.3,10.2
		c-2.9,4.1-1.8,10.7,0.4,14.3c0-0.3,0-0.6,0-0.8c0-1.3,0.2-5.7,0.5-6.9c1-3.8,4.3-4.9,7-7.9c1.2-1.3,2.1-2.7,3.2-4
		c0.4-0.5,0.7-0.9,1-1.4C205.8,27.3,206.2,26.2,206.5,24.9L206.5,24.9z M175.1,42.6c-0.2-1.9-0.8-3.5-1.6-5.1
		c-0.3,1.9-1,3.7-1.8,5.7c-1,2.6-1.7,4.3-0.9,7c0.1,0.4,0.3,0.8,0.4,1.1c-0.1-1.9,0.3-3.8,1.1-5.6l0-0.1l0-0.1
		C173.1,44.4,174.1,43.4,175.1,42.6L175.1,42.6z M186.2,31c0,0-0.1,0.1-0.1,0.1c-2.7,2.1-5,5.3-6.6,8.5c0,0,0.1,0,0.1-0.1
		c0.5-0.3,1-0.6,1.5-1c2.8-2,3.7-4.4,5-7.4L186.2,31L186.2,31z M203.9,28.8c-3.4,2.4-7.7,3.7-10,6.8c-1.8,2.5-1.9,6.3-1.1,9.6
		c0,0,0-0.1,0-0.1c0.1-1.1,0.2-2.6,0.4-3.6c1.1-4.1,4.6-5.3,7.2-8.2c1.1-1.3,2.1-2.7,3.1-4C203.7,29.1,203.8,28.9,203.9,28.8
		L203.9,28.8z M71,256.8l0.2,8.1c0.3,0.3,0.7,0.5,1,0.8c0.5,0.4,1,0.8,1.6,1.2l-0.2-0.2l-0.2-7.7C72.5,258.3,71.7,257.6,71,256.8
		L71,256.8z M75.5,260.8l0.2,7.4l-0.3-0.2c1.2,0.8,2.5,1.6,3.8,2.3l-0.1-0.1l0-6.9c-1.1-0.7-2.2-1.4-3.2-2.2L75.5,260.8L75.5,260.8z
		 M80.7,264.4l0,6.8c1.1,0.6,2.3,1.2,3.5,1.7l0.1-6.6C83.1,265.7,81.9,265,80.7,264.4L80.7,264.4z M84.4,266.4
		c0.5,0.3,1.1,0.5,1.6,0.8C85.5,266.9,85,266.6,84.4,266.4L84.4,266.4z M86.2,267.2l-0.1,6.5l0,0c0.9,0.4,1.8,0.7,2.7,1.1
		c-0.1-0.1-0.3-0.1-0.4-0.2l0.2-6.4C87.8,267.9,87,267.6,86.2,267.2L86.2,267.2z M91.7,269.4l-0.2,6.3c9.6,3.2,20,4.7,30.2,5.3h0
		l-0.2-6C111.6,274.4,101.2,272.8,91.7,269.4L91.7,269.4z M124.8,275.2l0.2,5.9c0.7,0,1.5,0.1,2.2,0.1l-0.1-5.9
		C126.3,275.3,125.5,275.3,124.8,275.2L124.8,275.2z M129.1,275.4l0.2,5.9c1,0,2,0,3.1,0l0-5.9C131.3,275.4,130.2,275.4,129.1,275.4
		L129.1,275.4z M134.1,275.4l0,5.9c1.1,0,2.2,0,3.3,0l0.1-5.9C136.3,275.4,135.2,275.4,134.1,275.4L134.1,275.4z M139.4,275.3
		l-0.1,5.9c0.7,0,1.4,0,2.1-0.1l0.2-5.9L139.4,275.3L139.4,275.3z M144.9,275.1l-0.2,6c10.3-0.6,20.7-2.1,30.5-5.3l-0.4,0.2
		l-0.2-6.3C165.1,272.9,154.8,274.4,144.9,275.1L144.9,275.1z M177.7,268.4l0.2,6.4l0,0c0.8-0.3,1.5-0.6,2.3-0.9l-0.2-6.4
		C179.2,267.8,178.5,268.1,177.7,268.4L177.7,268.4z M180,267.4C180.5,267.2,180.5,267.2,180,267.4L180,267.4z M182,266.5l0.2,6.5
		c1.1-0.5,2.2-1,3.2-1.5l0-6.7C184.3,265.3,183.2,265.9,182,266.5L182,266.5z M187.1,263.7l0,6.8c1.2-0.7,2.4-1.4,3.5-2.1l0.1-7.2
		C189.6,262,188.4,262.9,187.1,263.7L187.1,263.7z M192.7,259.6l-0.1,7.5c0.6-0.4,1.3-0.9,1.9-1.4c0.2-0.1,0.4-0.3,0.5-0.4l0,0
		l0.2-8.1C194.5,258.1,193.6,258.9,192.7,259.6L192.7,259.6z M66.4,98.2c1.1-0.1,2.1-0.3,3.2-0.4h0l-0.2-10.1c0-1.2,1-2.1,2.3-2.1
		l0,0c1,0,1.9,0.7,2.2,1.6c-0.2,0-0.3-0.1-0.5-0.1l0,0c-1.2,0-2.3,1-2.3,2.1l0.2,8.4l0,0c2.2-0.3,4.5-0.5,6.7-0.7l0,0l-0.1-9.2
		c0-1.2,1-2.1,2.3-2.1l0,0c1,0,1.9,0.7,2.2,1.6c-0.2,0-0.3-0.1-0.5-0.1l0,0c-1.2,0-2.3,1-2.3,2.1l0.1,7.5c2.2-0.2,4.5-0.4,6.7-0.6
		l0.1-8.4c0-1.2,1-2.1,2.3-2.1l0,0c1,0,1.9,0.7,2.2,1.6c-0.2,0-0.3-0.1-0.5-0.1l0,0c-1.2,0-2.2,1-2.3,2.1L87.9,96l0,0
		c1.9-0.2,3.8-0.3,5.6-0.4h0l0.4-12.5c-9.3-1-18.7-1-28,0L66.4,98.2L66.4,98.2z M119.5,94.3c1.1,0,2.2-0.1,3.2-0.1l0,0l-0.2-6.5
		c0-1.2,1-2.1,2.3-2.1l0,0c1,0,1.9,0.7,2.2,1.6c-0.2,0-0.3-0.1-0.5-0.1l0,0c-1.2,0-2.3,1-2.3,2.1l0.1,4.9c2.2,0,4.5-0.1,6.7-0.1
		l0-6.4c0-1.2,1-2.1,2.3-2.1l0,0c1,0,1.9,0.7,2.2,1.6c-0.2,0-0.3-0.1-0.5-0.1l0,0c-1.2,0-2.3,1-2.3,2.1l0,4.9c0.6,0,1.1,0,1.7,0
		c1.7,0,3.3,0,5,0l0.1-6.4c0-1.2,1-2.1,2.3-2.1l0,0c1,0,1.9,0.7,2.2,1.6c-0.2,0-0.3-0.1-0.5-0.1l0,0c-1.2,0-2.2,1-2.3,2.1l0,4.9h0
		c1.9,0,3.8,0.1,5.6,0.1l0.3-11.3c-9.3-1-18.7-1-28,0L119.5,94.3L119.5,94.3z M172.7,95.6c1.1,0.1,2.2,0.2,3.3,0.2h0l-0.2-8.1
		c0-1.2,1-2.1,2.3-2.1l0,0c1,0,1.9,0.7,2.2,1.6c-0.2,0-0.3-0.1-0.5-0.1l0,0c-1.2,0-2.3,1-2.3,2.1l0.2,6.7c2.2,0.2,4.5,0.4,6.7,0.6h0
		l-0.1-8.8c0-1.2,1-2.1,2.3-2.1l0,0c1,0,1.9,0.7,2.2,1.6c-0.2,0-0.3-0.1-0.5-0.1l0,0c-1.2,0-2.3,1-2.3,2.1l0.1,7.5
		c2.2,0.2,4.4,0.4,6.7,0.7l0.1-9.6c0-1.2,1-2.1,2.3-2.1l0,0c1,0,1.9,0.7,2.2,1.6c-0.2,0-0.3-0.1-0.5-0.1l0,0c-1.2,0-2.2,1-2.3,2.1
		l-0.1,8.3c1.9,0.2,3.7,0.4,5.6,0.6l0.4-15.1c-9.3-1-18.7-1-28,0L172.7,95.6L172.7,95.6L172.7,95.6z M34.5,241.4l8.2,0.8
		c0.5,0,0.9,0.1,1.4,0.1c0.5,0,1,0,1.4,0l0.1,0l0,0.1c0,0.2,0,0.5,0,0.7c0,0.1,0,0.3,0.1,0.4c0,0.1,0.1,0.3,0.1,0.4
		c0.1,0.2,0.1,0.5,0.2,0.7l0,0.1l-0.1,0c-0.7-0.1-1.4-0.3-2.1-0.4c-0.6-0.1-1.3-0.2-1.9-0.3l-8.4-1c-0.6-0.1-1.3-0.1-1.9-0.2
		c-0.7,0-1.4-0.1-2.2-0.1l-0.1,0v-0.1c0-0.2,0-0.4,0-0.6c0-0.1,0-0.3-0.1-0.4c0-0.1-0.1-0.3-0.1-0.4c-0.1-0.2-0.1-0.4-0.2-0.6l0-0.1
		l0.1,0c1.2-0.5,2.3-1.1,3.4-1.8c0.1,0,0.1-0.1,0.2-0.1l11-6.1l0,0.1c0,0.4,0.1,0.8,0.1,1.2c0,0.3,0.1,0.5,0.1,0.8
		c0,0.2,0.1,0.3,0.1,0.5c0.1,0.4,0.2,0.8,0.3,1.2l0,0.1l-0.1,0c-0.5,0.2-1,0.4-1.5,0.6c-0.4,0.2-0.8,0.4-1.2,0.6L34.5,241.4
		L34.5,241.4z M133.4,313.9c28.1,0,57.9-4.7,80.9-22.2c19.7-15,30.7-36.8,31.7-61.5l0.6-12.8c0.1-1.1,0.1-1.3-0.5-1.4l-0.4,0
		c-0.1,0-0.2,0-0.4,0c-8.9-0.8-17.8-1.5-26.8-2.3c-1.6-0.1-1.4-0.2-1.4,1.4c-0.2,4.6-0.4,9.2-0.6,13.9c-0.6,15.9-7.4,29.6-20.1,39.2
		c-17.6,13.4-41.5,16.2-63,16.2l0,7c0.6,0,1.1,0,1.7,0.1c0.6,0,1.3,0,1.9,0c0.6,0,1.2,0,1.8,0c1.1,0,2.2-0.1,3.3-0.1l0.1,0l0,0.1
		c0,0.2,0,0.4,0,0.6c0,0.1,0,0.3,0,0.4c0,0.2,0,0.4,0,0.6c0,0.2,0,0.4,0,0.6l0,0.1l-0.1,0c-0.6-0.1-1.1-0.1-1.7-0.2
		c-0.6,0-1.1-0.1-1.7-0.1c0,0.4,0,0.9-0.1,1.3c0,0.6,0,1.3,0,1.9v1c0,2,0,4,0.1,6.1c0,1.2,0.1,2.4,0.2,3.6l0,0.1l-0.1,0
		c-0.4,0-0.8-0.1-1.2-0.1c-0.2,0-0.4,0-0.6,0c-0.2,0-0.5,0-0.7,0c-0.4,0-0.7,0.1-1.1,0.1l-0.1,0l0-0.1c0.1-1.1,0.1-2.3,0.2-3.4
		c0-1.5,0.1-3,0.1-4.5c0-0.9,0-1.8,0-2.7c0-1.1,0-2.2-0.1-3.2c-0.6,0-1.1,0-1.7,0.1l-0.2,0L133.4,313.9c-28.1,0-57.9-4.7-80.9-22.2
		c-19.7-15-30.7-36.8-31.7-61.5l-0.6-12.8c0-1.1-0.1-1.3,0.5-1.4l0.4,0c0.1,0,0.2,0,0.4,0c8.9-0.8,17.8-1.5,26.8-2.3
		c1.6-0.1,1.4-0.2,1.4,1.4c0.2,4.6,0.4,9.2,0.6,13.9c0.6,15.9,7.4,29.6,20.1,39.2c17.6,13.4,41.5,16.2,63,16.2l0,7
		c-0.5,0-1,0-1.5-0.1l-0.1,0l0,0.1c0,0.1,0,0.3,0,0.4c0,0.2,0,0.4,0,0.6c0,0.4,0,0.8-0.1,1.1l0,0.2l0.1,0c0.5-0.1,1-0.1,1.5-0.2
		L133.4,313.9L133.4,313.9z M31.9,252.3c1.1-0.3,2.2-0.7,3.3-1.1c1.4-0.5,2.8-1,4.1-1.5c1.3-0.5,2.6-1,3.9-1.6
		c1.2-0.5,2.3-1,3.4-1.5l0.1,0l0,0.1c0.1,0.4,0.2,0.8,0.3,1.1c0.1,0.2,0.1,0.4,0.2,0.7c0.1,0.2,0.1,0.3,0.2,0.5
		c0.2,0.3,0.4,0.7,0.5,1l0,0.1l-0.1,0c-1.1,0.4-2.2,0.7-3.3,1.1c-1.4,0.5-2.8,1-4.1,1.5l-0.8,0.3c-1.2,0.5-2.3,0.9-3.5,1.4
		c-1,0.4-2,0.8-2.9,1.3l-0.1,0l0-0.1c-0.1-0.4-0.2-0.7-0.3-1.1c-0.1-0.2-0.2-0.5-0.3-0.7c-0.1-0.1-0.1-0.3-0.2-0.4
		C32.2,253.1,32,252.8,31.9,252.3L31.9,252.3L31.9,252.3L31.9,252.3z M46,263.6c-0.8,1.2-1.6,2.5-2.4,3.8c-0.8,1.2-1.5,2.5-2.2,3.8
		l-0.1,0.1l-0.1-0.1c-0.2-0.4-0.4-0.8-0.6-1.2c-0.1-0.2-0.2-0.4-0.4-0.7c-0.1-0.2-0.3-0.5-0.4-0.7c-0.2-0.3-0.4-0.6-0.6-0.9l0,0l0,0
		c0.7-0.9,1.4-1.8,2-2.7c0.8-1.3,1.6-2.6,2.4-3.9l-2.4,1.4c-0.7,0.4-1.3,0.8-2,1.2c-0.6,0.4-1.1,0.8-1.7,1.2l-0.1,0l0-0.1
		c-0.1-0.3-0.3-0.6-0.4-0.9c-0.1-0.2-0.2-0.4-0.3-0.6c-0.1-0.2-0.2-0.4-0.4-0.6c-0.2-0.3-0.4-0.6-0.6-0.8l0-0.1l0.1,0
		c1-0.5,1.9-1,2.8-1.5c1.1-0.6,2.3-1.3,3.4-2l0.7-0.4c1.3-0.8,2.5-1.5,3.8-2.3c1-0.6,1.9-1.3,2.9-2l0.1-0.1l0,0.1c0,0,0,0.1,0.1,0.1
		c0.2,0.4,0.4,0.8,0.6,1.1c0.3,0.5,0.7,1,1,1.5c0.4,0.5,0.8,1.1,1.1,1.7c0.6,1,1.1,2.2,0.8,3.3c-0.3,1.1-1.2,2-2.2,2.5
		c-0.8,0.5-1.8,0.8-2.8,0.7C47.3,264.7,46.6,264.3,46,263.6L46,263.6z M45,260.3L45,260.3c0.4,0.7,1,1.4,1.8,1.6
		c0.8,0.2,1.6-0.2,2.3-0.6c0.6-0.3,1.2-0.9,1.5-1.6c0.2-0.7-0.1-1.4-0.4-1.9c0,0-0.1-0.1-0.1-0.1c0-0.1-0.1-0.1-0.1-0.2
		c-0.3,0.2-0.6,0.3-1,0.5c-0.4,0.2-0.8,0.5-1.3,0.8L45,260.3L45,260.3z M58.4,269.7c-0.3,0.3-0.7,0.6-1,0.9
		c-0.5,0.4-0.9,0.9-1.4,1.3l-0.7,0.7c-1.5,1.4-2.9,2.8-4.3,4.3c-0.8,0.9-1.7,1.7-2.5,2.6l-0.1,0.1l0-0.1c-0.3-0.3-0.5-0.6-0.8-0.9
		c-0.1-0.2-0.3-0.3-0.4-0.5c-0.2-0.2-0.3-0.3-0.5-0.5c-0.3-0.2-0.5-0.5-0.8-0.7l-0.1-0.1l0.1,0c0.9-0.7,1.7-1.5,2.6-2.3
		c1.1-1,2.2-2,3.2-3.1c0.6-0.6,1.3-1.2,1.9-1.9c0.8-0.8,1.5-1.5,2.3-2.3c-0.4-0.4-0.8-0.8-1.2-1.2c-0.4-0.4-0.9-0.7-1.3-1.1
		l-0.1-0.1l0.1-0.1c0.3-0.2,0.6-0.5,0.9-0.7c0.1-0.1,0.3-0.3,0.4-0.4c0.1-0.1,0.2-0.2,0.3-0.3l0-0.1l0,0.1c0.7,0.8,1.4,1.6,2.1,2.4
		c0.4,0.5,0.8,0.9,1.3,1.4c0.4,0.4,0.8,0.8,1.3,1.3c0.8,0.8,1.6,1.5,2.4,2.3l0.1,0l-0.1,0c-0.2,0.1-0.3,0.3-0.5,0.4
		c-0.1,0.1-0.2,0.2-0.3,0.3c-0.1,0.1-0.3,0.3-0.4,0.4c-0.1,0.2-0.3,0.3-0.4,0.5l-0.1,0.1l0-0.1c-0.3-0.5-0.7-0.9-1-1.4
		C59.2,270.5,58.8,270.1,58.4,269.7L58.4,269.7z M62.5,284.1l6.3-5.2c0.3-0.3,0.7-0.6,1-0.9c0.4-0.3,0.7-0.7,1-1l0,0l0,0
		c0.2,0.2,0.3,0.3,0.5,0.5c0.1,0.1,0.2,0.2,0.3,0.2c0.1,0.1,0.2,0.2,0.4,0.2c0.2,0.1,0.4,0.2,0.7,0.3l0.1,0l-0.1,0.1
		c-0.6,0.4-1.2,0.8-1.8,1.2c-0.5,0.4-1,0.8-1.5,1.1l-6.7,5.2c-0.5,0.4-1,0.8-1.5,1.2c-0.5,0.5-1.1,1-1.6,1.5l0,0l0,0
		c-0.2-0.1-0.3-0.3-0.5-0.4c-0.1-0.1-0.2-0.2-0.3-0.3c-0.1-0.1-0.2-0.1-0.4-0.2c-0.2-0.1-0.4-0.2-0.6-0.3l-0.1,0l0-0.1
		c0.4-1.2,0.8-2.4,1.2-3.7c0-0.1,0-0.1,0.1-0.2l3.5-12.1l0.1,0.1c0.3,0.3,0.6,0.5,0.9,0.7c0.2,0.2,0.4,0.3,0.6,0.5
		c0.1,0.1,0.3,0.2,0.4,0.3c0.3,0.2,0.7,0.4,1.1,0.6l0.1,0l0,0.1c-0.2,0.5-0.4,1-0.6,1.5c-0.2,0.4-0.3,0.8-0.4,1.2L62.5,284.1
		L62.5,284.1z M81.6,283.4c-0.3,0.4-0.7,0.8-1,1.2c-0.3,0.4-0.6,0.8-0.9,1.3l0,0l-0.3-0.1l0,0c0.1-0.7,0.1-1.5-0.2-2.1
		c-0.2-0.6-0.7-0.9-1.2-1.2c-0.5-0.2-1.1-0.3-1.6-0.1c-0.5,0.2-0.9,0.6-1.1,1.1c-0.4,1,0.5,2.4,1,3.1c0.1,0.2,0.3,0.4,0.4,0.6
		c0.6,0.8,1.5,2.2,1.6,3.2c0.1,0.9-0.1,1.8-0.5,2.6c-0.6,1.3-1.5,2.5-2.9,3c-1.4,0.5-2.9,0.3-4.3-0.4c-0.6-0.2-1.1-0.6-1.6-0.9
		c-0.5-0.3-0.9-0.7-1.2-1.2l0,0l0,0c0.3-0.5,0.6-0.9,0.9-1.4c0.4-0.6,0.8-1.2,1.2-1.9l0-0.1l0.4,0.2l0,0.1c-0.2,0.8-0.3,1.6,0,2.4
		c0.2,0.7,0.8,1.1,1.4,1.4c0.6,0.3,1.2,0.4,1.8,0.1c0.6-0.2,1-0.7,1.2-1.2c0.2-0.4,0.3-0.9,0.2-1.3c-0.2-0.6-0.9-1.6-1.3-2.2
		c-0.6-0.9-1.5-2.2-1.7-3.3c-0.2-0.9,0-1.8,0.4-2.7c0.6-1.2,1.4-2.3,2.7-2.8c1.3-0.5,2.6-0.3,3.9,0.3c0.6,0.3,1.1,0.6,1.6,1
		C80.9,282.4,81.3,282.9,81.6,283.4L81.6,283.4L81.6,283.4L81.6,283.4z M95.4,298.1l3.9-7.2c0.2-0.4,0.4-0.8,0.6-1.2
		c0.2-0.4,0.4-0.9,0.6-1.3l0-0.1l0.1,0c0.2,0.1,0.4,0.2,0.7,0.2c0.1,0,0.3,0.1,0.4,0.1c0.1,0,0.3,0,0.4,0.1c0.2,0,0.5,0.1,0.7,0.1
		l0.1,0l-0.1,0.1c-0.4,0.6-0.8,1.2-1.2,1.8c-0.3,0.5-0.7,1.1-1,1.6l-4.2,7.3c-0.3,0.6-0.6,1.1-0.9,1.7c-0.3,0.6-0.6,1.3-0.9,2l0,0.1
		l-0.1,0c-0.2-0.1-0.4-0.1-0.6-0.2c-0.1,0-0.3-0.1-0.4-0.1c-0.1,0-0.3,0-0.4-0.1c-0.2,0-0.4,0-0.6,0h-0.1v-0.1
		c0-1.3-0.1-2.6-0.3-3.8c0-0.1,0-0.2,0-0.2l-1.3-12.5l0.1,0c0.4,0.1,0.8,0.2,1.1,0.3c0.3,0.1,0.5,0.1,0.8,0.2c0.2,0,0.3,0.1,0.5,0.1
		c0.4,0.1,0.8,0.1,1.2,0.2l0.1,0v0.1c0,0.5,0,1.1,0,1.6c0,0.4,0,0.9,0.1,1.3L95.4,298.1L95.4,298.1z M114.7,300.6l0.4-4.1
		c0.1-1.1,0.2-2.1,0.3-3.2c0.1-0.9,0.1-1.8,0.2-2.7l0-0.1l0.1,0c0.2,0,0.4,0.1,0.6,0.1c0.1,0,0.3,0.1,0.4,0.1c0.2,0,0.3,0,0.5,0
		c0.2,0,0.4,0,0.5,0h0.1l0,0.1c-0.2,1.1-0.4,2.3-0.6,3.4c-0.3,2.1-0.5,4.2-0.7,6.3l-0.1,1.1c-0.1,0.9-0.2,1.9-0.3,2.8
		c0,0.7-0.1,1.4-0.1,2.1v0.1l-0.1,0c-0.2-0.1-0.5-0.1-0.7-0.2c-0.1,0-0.3-0.1-0.4-0.1c-0.1,0-0.3,0-0.4,0c-0.2,0-0.5,0-0.7,0h0l0,0
		c-1-1.9-2-3.8-3-5.6c-1-1.8-2.1-3.6-3.2-5.4l-0.6,6.2c-0.1,0.6-0.1,1.2-0.2,1.7c-0.1,0.8-0.1,1.6-0.2,2.3l0,0.1l-0.1,0
		c-0.2-0.1-0.4-0.1-0.6-0.1c-0.1,0-0.3-0.1-0.4-0.1c-0.1,0-0.2,0-0.3,0c-0.2,0-0.4,0-0.6,0l-0.1,0l0-0.1c0.2-1.2,0.4-2.3,0.5-3.5
		c0.2-1.4,0.4-2.9,0.5-4.3c0.1-1.2,0.2-2.4,0.3-3.6c0.1-1.4,0.2-2.9,0.3-4.3l0-0.1l0.1,0c0.3,0.1,0.5,0.1,0.8,0.2
		c0.2,0,0.3,0.1,0.5,0.1c0.2,0,0.3,0,0.5,0c0.2,0,0.5,0,0.7,0h0l0,0c0.9,1.9,1.9,3.8,3,5.6C112.6,297.1,113.6,298.8,114.7,300.6
		L114.7,300.6z M122.5,307c0.1-1.2,0.2-2.3,0.3-3.5c0.1-1.5,0.2-2.9,0.2-4.4c0-1.4,0.1-2.8,0.1-4.2c0-1.2,0-2.5,0-3.7v-0.1l0.1,0
		c0.4,0.1,0.8,0.1,1.2,0.2c0.2,0,0.5,0,0.7,0.1c0.2,0,0.4,0,0.5,0c0.4,0,0.8-0.1,1.2-0.1l0.1,0l0,0.1c-0.1,1.2-0.2,2.3-0.3,3.5
		c-0.1,1.5-0.2,2.9-0.2,4.4l0,0.9c0,1.3-0.1,2.5-0.1,3.8c0,1.1,0,2.1,0,3.2l0,0.1l-0.1,0c-0.4,0-0.8-0.1-1.1-0.1
		c-0.3,0-0.5,0-0.8-0.1c-0.2,0-0.3,0-0.5,0C123.4,307,123,307,122.5,307L122.5,307L122.5,307L122.5,307z M151.8,302
		c-0.3,0-0.6,0-0.8,0c-0.4,0-0.8,0-1.2,0.1c-0.3,0-0.5,0.1-0.8,0.1c-0.4,0-0.8,0.1-1.2,0.1c-0.3,1.4-0.5,2.9-0.8,4.3l0,0.2h-0.1
		c-0.2,0-0.4,0-0.6,0c-0.1,0-0.2,0-0.4,0c-0.2,0-0.3,0-0.5,0.1c-0.2,0-0.4,0.1-0.6,0.1l-0.1,0l0-0.1c0.7-2.8,1.4-5.5,2.1-8.3
		c0.6-2.7,1.2-5.5,1.8-8.2l0,0l0.1,0c0.3,0,0.6,0,0.9,0c0.2,0,0.5-0.1,0.7-0.1c0.1,0,0.1,0,0.2,0l0,0l0,0c1,2.7,2.1,5.3,3.1,8
		c1,2.6,2.1,5.1,3.2,7.6l0,0.1l-0.1,0c-0.4,0-0.7,0-1.1,0c-0.3,0-0.5,0-0.8,0.1c-0.3,0-0.6,0.1-0.9,0.1c-0.3,0-0.7,0.1-1,0.1l-0.1,0
		l0-0.1c-0.3-0.7-0.5-1.4-0.7-2.1C152.3,303.5,152.1,302.7,151.8,302L151.8,302z M148.2,300.3c0,0,0.1,0,0.1,0c0.4,0,0.9,0,1.3-0.1
		c0.5,0,1-0.1,1.4-0.2h0c-0.3-0.8-0.5-1.5-0.9-2.2c-0.3-0.8-0.6-1.5-1-2.3c-0.2,0.8-0.4,1.6-0.6,2.4
		C148.5,298.7,148.4,299.5,148.2,300.3L148.2,300.3z M170.6,289.4c0.1,0.4,0.2,0.9,0.2,1.3c0.1,0.6,0.3,1.3,0.4,1.9l0.2,1.1
		c0.6-0.1,1.1-0.3,1.7-0.4c0.8-0.2,1.5-0.4,2.3-0.6l0.1,0l0,0.1c0,0.1,0,0.2,0,0.4c0,0.2,0.1,0.5,0.1,0.7c0,0.2,0.1,0.4,0.2,0.6
		c0,0.2,0.1,0.3,0.1,0.5l0,0.1l-0.1,0c-0.7,0.1-1.5,0.2-2.2,0.3c-0.6,0.1-1.2,0.2-1.9,0.3l0.9,4.2c0.1,0.6,0.2,1.1,0.4,1.7
		c0.1,0.5,0.3,1,0.4,1.4l0,0.1l-0.1,0c-0.3,0.1-0.7,0.1-1,0.2c-0.3,0-0.5,0.1-0.8,0.1c-0.2,0.1-0.5,0.1-0.7,0.2
		c-0.3,0.1-0.6,0.2-0.9,0.3l-0.1,0l0-0.1c-0.1-0.9-0.2-1.8-0.4-2.6c-0.2-1.2-0.4-2.4-0.7-3.6l-0.5-2.5c-0.3-1.3-0.6-2.7-0.9-4
		c-0.2-0.9-0.5-1.8-0.8-2.8l0-0.1l0.1,0c0.9-0.1,1.7-0.3,2.6-0.4c0.4-0.1,0.7-0.1,1.1-0.2c0.5-0.1,1-0.2,1.6-0.4
		c0.8-0.2,1.5-0.4,2.3-0.6l0.1,0l0,0.1c0,0.2,0.1,0.4,0.1,0.6c0,0.1,0.1,0.3,0.1,0.4c0,0.1,0.1,0.3,0.1,0.4c0.1,0.2,0.1,0.4,0.2,0.6
		l0,0.1l-0.1,0c-0.5,0.1-1,0.1-1.5,0.2c-0.5,0.1-1,0.2-1.5,0.3c-0.2,0.1-0.5,0.1-0.7,0.2C170.9,289.3,170.8,289.4,170.6,289.4
		L170.6,289.4z M179.9,293.3c-0.8-2.1-1.2-4.4-0.4-6.5c0.8-2,2.4-3.3,4.4-4.1c1.9-0.7,3.9-0.9,5.7,0c1.9,1,3.1,2.8,3.8,4.8
		c0.8,2.1,1.2,4.5,0.4,6.6c-0.7,2.1-2.4,3.3-4.4,4.1c-1.9,0.7-3.9,0.9-5.7,0C181.8,297.2,180.6,295.3,179.9,293.3L179.9,293.3z
		 M183.1,291.9c0.6,1.5,1.4,3.2,2.7,4.2c1,0.8,2,1.1,3.2,0.6c1.2-0.4,1.7-1.4,1.9-2.6c0.3-1.6-0.2-3.4-0.8-4.9
		c-0.6-1.5-1.4-3.2-2.7-4.2c-1-0.8-2-1.1-3.2-0.6c-1.2,0.5-1.8,1.4-2,2.6C182.1,288.6,182.5,290.4,183.1,291.9L183.1,291.9z
		 M202.9,282c1.3,0.8,2.5,1.6,3.8,2.3c1.3,0.7,2.5,1.4,3.8,2.1l0.1,0.1l-0.1,0.1c-0.4,0.2-0.8,0.4-1.2,0.6c-0.2,0.1-0.4,0.3-0.7,0.4
		c-0.2,0.1-0.4,0.3-0.7,0.4c-0.3,0.2-0.6,0.4-0.9,0.6l0,0l0,0c-0.9-0.7-1.8-1.3-2.8-1.9c-1.3-0.8-2.6-1.6-4-2.4l1.5,2.4
		c0.4,0.7,0.8,1.3,1.3,2c0.4,0.6,0.8,1.1,1.2,1.7l0,0.1l-0.1,0c-0.3,0.1-0.6,0.3-0.9,0.5c-0.2,0.1-0.4,0.2-0.6,0.3
		c-0.2,0.1-0.4,0.2-0.6,0.4c-0.3,0.2-0.6,0.4-0.8,0.6l-0.1,0l0-0.1c-0.5-0.9-1-1.9-1.5-2.8c-0.6-1.1-1.3-2.2-2-3.3l-0.4-0.7
		c-0.8-1.3-1.6-2.5-2.4-3.7c-0.6-1-1.3-1.9-2-2.8l-0.1-0.1l0.1,0c0,0,0.1,0,0.1-0.1c0.4-0.2,0.8-0.4,1.1-0.6c0.5-0.3,1-0.7,1.5-1
		c0.5-0.4,1.1-0.8,1.7-1.1c1-0.6,2.2-1.1,3.3-0.9c1.1,0.2,2,1.2,2.6,2.1c0.5,0.8,0.9,1.8,0.8,2.8C204,280.7,203.6,281.4,202.9,282
		L202.9,282z M199.6,283L199.6,283c0.7-0.4,1.4-1,1.5-1.8c0.2-0.8-0.2-1.6-0.6-2.3c-0.4-0.6-0.9-1.2-1.6-1.4
		c-0.7-0.2-1.4,0.1-1.9,0.5c0,0-0.1,0.1-0.1,0.1c-0.1,0-0.1,0.1-0.2,0.1c0.2,0.3,0.3,0.6,0.5,0.9c0.3,0.4,0.5,0.8,0.8,1.3L199.6,283
		L199.6,283z M208.9,269.1c0.3,0.3,0.6,0.7,0.9,1c0.4,0.5,0.9,0.9,1.3,1.4l0.7,0.7c1.4,1.5,2.8,2.9,4.3,4.3c0.9,0.8,1.7,1.7,2.6,2.5
		l0.1,0.1l-0.1,0c-0.3,0.3-0.6,0.5-0.9,0.8c-0.2,0.1-0.3,0.3-0.5,0.4c-0.2,0.2-0.3,0.3-0.5,0.5c-0.2,0.3-0.5,0.5-0.7,0.8l-0.1,0.1
		l0-0.1c-0.7-0.9-1.5-1.7-2.3-2.6c-1-1.1-2-2.2-3.1-3.2c-0.6-0.6-1.2-1.3-1.9-1.9c-0.8-0.8-1.5-1.5-2.3-2.3
		c-0.4,0.4-0.8,0.8-1.2,1.2c-0.4,0.4-0.7,0.9-1.1,1.3l-0.1,0.1l-0.1-0.1c-0.2-0.3-0.5-0.6-0.7-0.8c-0.1-0.1-0.3-0.3-0.4-0.4
		c-0.1-0.1-0.2-0.2-0.3-0.3l-0.1-0.1l0.1,0c0.8-0.7,1.6-1.4,2.4-2.1c0.5-0.4,0.9-0.8,1.4-1.3c0.4-0.4,0.8-0.8,1.3-1.3
		c0.8-0.8,1.5-1.6,2.3-2.4l0.1-0.1l0,0.1c0.1,0.2,0.3,0.3,0.4,0.5c0.1,0.1,0.2,0.2,0.3,0.3c0.1,0.1,0.3,0.3,0.4,0.4
		c0.2,0.1,0.3,0.3,0.5,0.4l0.1,0.1l-0.1,0.1c-0.5,0.3-0.9,0.7-1.4,1C209.8,268.3,209.3,268.7,208.9,269.1L208.9,269.1z M211.6,262.7
		c0.3-0.3,0.5-0.6,0.8-0.9c0.2-0.2,0.3-0.4,0.4-0.5c0.1-0.1,0.2-0.3,0.3-0.5c0.2-0.3,0.4-0.7,0.6-1l0-0.1l0.1,0.1
		c0.9,0.7,1.8,1.5,2.8,2.2c1.2,0.9,2.3,1.8,3.5,2.6l0.7,0.5c1,0.7,2,1.5,3.1,2.2c0.9,0.6,1.8,1.2,2.7,1.8l0.1,0l-0.1,0.1
		c-0.2,0.3-0.5,0.6-0.7,0.9c-0.2,0.2-0.3,0.4-0.5,0.6c-0.1,0.1-0.2,0.3-0.3,0.4c-0.2,0.3-0.4,0.7-0.6,1l0,0.1l-0.1,0
		c-0.9-0.7-1.8-1.5-2.7-2.2c-1.2-0.9-2.3-1.8-3.5-2.6c-1.1-0.8-2.3-1.6-3.4-2.4c-1-0.7-2.1-1.4-3.1-2.1L211.6,262.7L211.6,262.7
		L211.6,262.7z M222.8,261.1c-2.1-0.9-4-2.2-5-4.3c-0.9-2-0.7-4,0.1-6c0.8-1.9,2-3.4,4-4.1c2-0.7,4.2-0.3,6.1,0.6
		c2.1,0.9,4.1,2.2,5.1,4.3c1,2,0.8,4-0.1,6c-0.8,1.9-2,3.4-4,4.1C227,262.4,224.8,261.9,222.8,261.1L222.8,261.1z M224,257.7
		c1.5,0.6,3.3,1.2,4.9,1c1.2-0.2,2.2-0.7,2.7-1.9c0.5-1.2,0.2-2.2-0.5-3.2c-1-1.3-2.6-2.2-4.1-2.8c-1.5-0.6-3.3-1.2-4.9-1
		c-1.2,0.2-2.2,0.7-2.7,1.9c-0.5,1.2-0.2,2.2,0.5,3.2C220.9,256.2,222.6,257.1,224,257.7L224,257.7z M230.4,236.8
		c1.4-0.4,2.9-0.8,4.3-1.2c1.4-0.4,2.8-0.9,4.2-1.4l0.1,0l0,0.1c-0.1,0.4-0.2,0.8-0.3,1.3c-0.1,0.2-0.1,0.5-0.2,0.7
		c-0.1,0.3-0.1,0.5-0.1,0.8c0,0.4-0.1,0.7-0.1,1.1l0,0l-0.1,0c-1.1,0.2-2.2,0.4-3.3,0.7c-1.5,0.4-3,0.8-4.4,1.3l2.7,0.5
		c0.8,0.1,1.5,0.3,2.3,0.4c0.7,0.1,1.4,0.2,2,0.3l0.1,0l0,0.1c-0.1,0.3-0.2,0.6-0.3,1c-0.1,0.2-0.1,0.4-0.2,0.6
		c0,0.2-0.1,0.4-0.1,0.7c0,0.3-0.1,0.7-0.1,1l0,0.1l-0.1,0c-1-0.3-2.1-0.5-3.1-0.8c-1.3-0.3-2.5-0.6-3.8-0.8l-0.8-0.2
		c-1.5-0.3-2.9-0.6-4.4-0.8c-1.1-0.2-2.3-0.3-3.4-0.5l-0.1,0l0-0.1c0,0,0-0.1,0-0.1c0.1-0.4,0.2-0.8,0.3-1.2
		c0.1-0.6,0.2-1.2,0.3-1.8c0.1-0.7,0.2-1.3,0.3-2c0.2-1.1,0.6-2.3,1.6-3c1-0.7,2.2-0.6,3.3-0.4c1,0.2,1.9,0.6,2.5,1.3
		C230.2,235.1,230.4,235.9,230.4,236.8L230.4,236.8z M228.9,239.9L228.9,239.9c0.1-0.8,0.2-1.7-0.3-2.3c-0.5-0.7-1.3-1-2.1-1.1
		c-0.7-0.1-1.5-0.2-2.1,0.2c-0.6,0.4-0.9,1.1-1,1.7c0,0.1,0,0.1,0,0.2c0,0.1,0,0.2-0.1,0.2c0.3,0.1,0.7,0.2,1.1,0.3
		c0.5,0.1,1,0.2,1.4,0.3L228.9,239.9L228.9,239.9z M70.5,305.7c0.3,0.1,0.6,0.3,0.9,0.4C71,306,70.7,305.9,70.5,305.7L70.5,305.7z
		 M71.4,306.1c0.3,0.1,0.7,0.3,1,0.4C72,306.4,71.7,306.3,71.4,306.1L71.4,306.1z M72.4,306.6l0.4,15c0.2,0.1,0.4,0.2,0.5,0.2
		l0.2-0.4c0.4-0.6,0.8-1.2,1.2-1.7l-0.3-12.4C73.8,307.1,73.1,306.9,72.4,306.6L72.4,306.6z M74.8,307.5c0.3,0.1,0.6,0.2,0.8,0.3
		C75.3,307.7,75.1,307.6,74.8,307.5L74.8,307.5z M75.9,308l0.4,0.2l0.1,10.2c0.8-0.5,1.8-0.9,2.8-1.1l-0.1-8.1
		C78.1,308.8,77,308.4,75.9,308L75.9,308z M79.5,309.2c0.2,0.1,0.5,0.2,0.7,0.2C80,309.4,79.7,309.3,79.5,309.2L79.5,309.2z
		 M80.3,309.5c0.2,0.1,0.4,0.1,0.6,0.2l0,7.5h0c1.1,0.2,2,0.6,2.9,1.2l-0.1,0l0.1-7.8C82.6,310.3,81.5,309.9,80.3,309.5L80.3,309.5z
		 M84,310.7c0.3,0.1,0.5,0.2,0.8,0.2C84.5,310.8,84.2,310.7,84,310.7L84,310.7z M85,311l0.4,0.1l-0.2,8.5l0,0c0.5,0.6,1,1.2,1.4,2
		l0.2,0.4c0.1,0,0.2-0.1,0.2-0.1l0.3-10.1c0.3,0.1,0.6,0.2,1,0.3C87.2,311.6,86.1,311.3,85,311L85,311z M88.3,311.9
		c0.3,0.1,0.6,0.2,1,0.2C89,312,88.6,312,88.3,311.9L88.3,311.9z M175.9,312.5c1-0.2,2-0.5,3-0.8l0.3,9.9c0.2,0.1,0.4,0.2,0.5,0.2
		l0.2-0.4c0.4-0.6,0.8-1.2,1.2-1.7l-0.2-8.6c0.6-0.2,1.2-0.3,1.8-0.5l0.1,7.7c0.8-0.5,1.8-0.9,2.8-1.1l0-7.5
		c0.5-0.2,1.1-0.3,1.6-0.5C183.5,310.5,179.8,311.6,175.9,312.5L175.9,312.5z M187.4,309.2l-0.1,8.1c1,0.2,2,0.6,2.8,1.1l0.1-10.2
		c0.2-0.1,0.4-0.1,0.6-0.2C189.7,308.4,188.5,308.8,187.4,309.2L187.4,309.2z M190.9,307.9c0.3-0.1,0.5-0.2,0.8-0.3
		C191.4,307.7,191.2,307.8,190.9,307.9L190.9,307.9z M191.9,307.5l-0.3,12c0.5,0.5,1,1.2,1.4,1.9l0.2,0.4c0.1,0,0.2-0.1,0.2-0.1
		l0.4-15l0.2-0.1C193.3,307,192.6,307.3,191.9,307.5L191.9,307.5z M194.3,306.6c0.3-0.1,0.5-0.2,0.8-0.3
		C194.8,306.4,194.5,306.5,194.3,306.6L194.3,306.6z M195.5,306.1c0.2-0.1,0.5-0.2,0.7-0.3C196,305.9,195.7,306,195.5,306.1
		L195.5,306.1z M123.9,316.8c0.7,0,1.4,0,2.1,0.1l0.3,9.7c0,0.2,0,0.4,0,0.6c0.1,0.1,0.3,0.1,0.4,0.2l0.2-0.4
		c0.4-0.7,0.8-1.3,1.4-1.9l-0.2-8.2c0.6,0,1.2,0,1.8,0l0.1,6.8c0.8-0.5,1.7-0.9,2.8-1.1l0-5.7h-2.3v0
		C128.2,316.9,126,316.9,123.9,316.8L123.9,316.8z M134.2,317l0,5.7c1,0.2,1.9,0.6,2.8,1.1l0.1-6.9c0.5,0,1,0,1.5,0l-0.2,8
		c0.6,0.6,1.1,1.3,1.6,2.1l0.2,0.4l0.1,0c0-0.2,0-0.5,0-0.7l0.3-9.7c-1.4,0-2.7,0.1-4,0.1v0H134.2L134.2,317z M140.5,316.9
		c0.4,0,0.8,0,1.1,0C141.3,316.9,140.9,316.9,140.5,316.9L140.5,316.9z M248,230.6L248,230.6L248,230.6L248,230.6L248,230.6
		L248,230.6L248,230.6L248,230.6L248,230.6l0-0.1v0l0,0l0,0v0v0v0l0,0l0-0.1v0v0v0l0,0v0v0l0,0v0v0v0v0l0-0.1l0.6-12.8l0,0l0,0
		l0,0.1h0l0,0v0l0,0h0v0l0,0l0,0l0,0v0h0l0,0h0v0l0,0l0,0l0.1,0.1v0l0,0l0,0v0h0l0,0v0l0,0l0,0l0,0v0l0,0l0,0l0,0l0,0v0h0v0v0l0,0v0
		l0,0l0,0l0,0v0h0l0,0l0,0l0,0v0l0,0l0,0l0,0c0,0,0.1,0.1,0.1,0.1l0,0c0,0.1,0.1,0.1,0.1,0.2l0,0c0,0.1,0.1,0.1,0.1,0.2l0,0v0l0,0v0
		h0v0l0,0l0,0v0l0,0l0,0l0,0v0l0,0v0l0,0h0v0c0,0.1,0.1,0.1,0.1,0.2l0,0l0,0l0,0l0,0.1l0,0l0,0l0,0.1l0,0l0,0v0l0,0l0,0l0,0l0.1,0.1
		l0,0l0,0l0.1,0.1l0,0l0,0l0,0l0,0.1l0,0l0,0l0,0l0,0l0,0l0.1,0.2l0,0c0.2,0.6,0.5,1.2,0.6,1.9l0,0v0l0,0v0l0,0v0h0l0,0v0l0,0l0,0v0
		c0.2,0.7,0.3,1.4,0.5,2.1v0l0,0v0l0.1,0.4v0v0v0c0.2,0.8,0.3,1.7,0.4,2.6v0l0,0v0l0,0l0,0l0,0l0,0.1v0l0,0.1v0l0,0.1l0,0
		c0.2,1.4,0.3,2.8,0.3,4v0v0v0v0l0,0v0v0l0,0.1v0l0,0v0l0,0v0l0,0.1v0v0l0,0.3l0,0v0v0v0l0,0v0l0,0.1v0v0l0,0.1v0v0l0,0l0,0.1l0,0v0
		c0.1,1.4,0.1,2.6,0.2,3.5c0.2,3.2,0.4,6.7,1.1,9.8c0.4,1.8,1.1,3.8,2.4,5.2l-11.1,1C246.5,245,247.6,237.9,248,230.6L248,230.6z
		 M228.7,212.6c-3.6-13.5-5.9-26,0.4-41.3c1-1.8,0.9-0.8,0.9,0.4c0.4,14,6.2,19.9,10,30.8c2.4-7,9.8-13.5,15.1-17.5
		c2.2-1.7,1.8-1.7,0.9,0.6c-10.3,26.7,18.1,65,3.3,64.9l0,0c-3.9,0-4.9-7-5.3-14.8c-0.2-4.9-0.2-17.2-5.3-20.8
		c-1-0.6-2.1-0.7-3.2-0.8l-2-0.2l-14.1-1.2l-0.2,0l-0.2,0L228.7,212.6L228.7,212.6L228.7,212.6z M18.7,230.6L18.7,230.6L18.7,230.6
		L18.7,230.6L18.7,230.6L18.7,230.6L18.7,230.6L18.7,230.6L18.7,230.6l0-0.1v0l0,0l0,0v0v0v0l0,0l0-0.1v0v0v0l0,0v0v0l0,0v0v0v0v0
		l0-0.1l-0.6-12.8l0,0l0,0l0,0.1h0l0,0v0l0,0l0,0l0,0l0,0l0,0l0,0v0h0l0,0h0v0v0h0l-0.1,0.1l0,0l0,0l0,0v0h0l0,0v0l0,0l0,0l0,0v0
		l0,0l0,0l0,0l0,0v0h0v0v0l0,0v0l0,0l0,0l0,0v0h0l0,0l0,0l0,0v0l0,0l0,0l0,0c0,0-0.1,0.1-0.1,0.1l0,0c0,0.1-0.1,0.1-0.1,0.2l0,0
		c0,0.1-0.1,0.1-0.1,0.2h0v0l0,0v0h0v0l0,0l0,0v0l0,0l0,0l0,0v0l0,0v0l0,0h0v0c0,0.1-0.1,0.1-0.1,0.2l0,0l0,0l0,0l0,0.1l0,0l0,0
		l0,0.1l0,0l0,0v0l0,0l0,0l0,0l-0.1,0.1l0,0l0,0l-0.1,0.1l0,0l0,0l0,0l0,0.1l0,0l0,0l0,0l0,0l0,0l-0.1,0.2l0,0
		c-0.2,0.6-0.5,1.2-0.6,1.9l0,0l0,0v0v0l0,0v0l0,0l0,0v0l0,0l0,0v0c-0.2,0.7-0.3,1.4-0.5,2.1v0l0,0v0l-0.1,0.4v0v0v0
		c-0.2,0.8-0.3,1.7-0.4,2.6v0l0,0v0l0,0l0,0l0,0l0,0.1v0l0,0.1v0l0,0.1l0,0c-0.2,1.4-0.3,2.8-0.3,4v0v0v0v0l0,0v0v0l0,0.1v0l0,0v0v0
		v0l0,0.1v0l0,0l0,0.3l0,0v0v0v0l0,0v0l0,0.1v0v0l0,0.1v0v0l0,0l0,0.1v0l0,0c-0.1,1.4-0.1,2.6-0.2,3.5c-0.2,3.2-0.4,6.7-1.1,9.8
		c-0.4,1.8-1.1,3.8-2.4,5.2l11.1,1C20.3,245,19.1,237.9,18.7,230.6L18.7,230.6z M38,212.6c3.6-13.5,5.9-26-0.4-41.3
		c-1-1.8-0.9-0.8-0.9,0.4c-0.4,14-6.2,19.9-10,30.8c-2.4-7-9.8-13.5-15.1-17.5c-2.2-1.7-1.8-1.7-0.9,0.6c10.3,26.7-18.1,65-3.3,64.9
		l0,0c3.9,0,4.9-7,5.3-14.8c0.2-4.9,0.2-17.2,5.3-20.8c1-0.6,2.1-0.7,3.2-0.8l2-0.2l14.1-1.2l0.2,0l0.2,0L38,212.6L38,212.6
		L38,212.6z M145.4,64.7l-0.6-0.8c-1.1-1.5-21.6-1.6-23-0.2l-0.8,1c4.1-0.5,8.2-0.7,12.4-0.7C137.4,64.1,141.4,64.3,145.4,64.7
		L145.4,64.7z M115.4,67.2c6-1,12-1.5,18-1.5c5.9,0,11.9,0.5,18,1.5c5.1,1.3,5.5,9.4,0,11.1c-5.9-1-11.9-1.3-18-1.3
		c-6.1,0-12.1,0.3-18,1.3C109.9,76.5,110.3,68.5,115.4,67.2L115.4,67.2z M118,81.6c10.1-1.1,20.3-1.1,30.4,0
		c1.7,0.2,1.5-0.7,1.6-1.9c-5.5-0.9-11.1-1.1-16.7-1.1c-5.7,0-11.4,0.2-16.9,1.1C116.5,81,116.3,81.8,118,81.6L118,81.6z M119.5,329
		c7.4-0.2,5.8,0.5,10.1,5c0.4-0.2,0.7-0.5,1.1-0.7c-0.8-1.5-1.4-3.2-1.6-5.1c1.1-1.9,2.6-2.7,4.3-3c1.7,0.3,3.2,1.1,4.3,3
		c-0.3,1.9-0.8,3.6-1.6,5.1c0.3,0.2,0.7,0.5,1.1,0.7c4.4-4.5,2.8-5.2,10.1-5c-0.1,3.4-3.8,2.5-5.5,5.3c-1.2,1.9,0.2,4.5-1.1,5.6
		c-0.3,0.3-0.7,0.4-1.2,0.5c-0.3-2.9-3.2-4.7-6-4.7c-2.8,0-5.7,1.8-6,4.7c-0.4-0.1-0.9-0.2-1.2-0.5c-1.3-1.1,0-3.7-1.1-5.6
		C123.3,331.5,119.7,332.4,119.5,329L119.5,329z M133.4,337.4c2.4,0,4.3,1.6,4.3,3.5c0,1.9-1.9,3.5-4.3,3.5c-2.4,0-4.3-1.6-4.3-3.5
		C129,339,131,337.4,133.4,337.4L133.4,337.4z M198.5,64.7l-0.6-0.8c-1.1-1.5-21.6-1.6-23-0.2l-0.8,1c4.1-0.5,8.2-0.7,12.3-0.7
		C190.5,64.1,194.5,64.3,198.5,64.7L198.5,64.7z M168.5,67.2c6-1,12-1.5,18-1.5c5.9,0,11.9,0.5,18,1.5c5.1,1.3,5.5,9.4,0,11.1
		c-5.9-1-11.9-1.3-18-1.3c-6.1,0-12.1,0.3-18,1.3C163,76.5,163.4,68.5,168.5,67.2L168.5,67.2z M171.2,81.6c10.1-1.1,20.3-1.1,30.4,0
		c1.7,0.2,1.5-0.7,1.6-1.9c-5.5-0.9-11.1-1.1-16.7-1.1c-5.7,0-11.4,0.2-16.9,1.1C169.6,81,169.4,81.8,171.2,81.6L171.2,81.6z
		 M172.7,323.5c7.4-0.2,5.8,0.5,10.1,5c0.4-0.2,0.7-0.5,1.1-0.7c-0.8-1.5-1.4-3.2-1.6-5.1c1.1-1.9,2.6-2.7,4.3-3
		c1.7,0.3,3.2,1.1,4.3,3c-0.3,1.9-0.8,3.6-1.6,5.1c0.4,0.2,0.7,0.5,1.1,0.7c4.4-4.5,2.8-5.2,10.1-5c-0.1,3.4-3.8,2.5-5.5,5.3
		c-1.2,1.9,0.2,4.5-1.2,5.6c-0.3,0.3-0.7,0.4-1.2,0.5c-0.3-2.9-3.2-4.7-6-4.7c-2.8,0-5.7,1.8-6,4.7c-0.4-0.1-0.9-0.2-1.2-0.5
		c-1.3-1.1,0-3.7-1.1-5.6C176.4,326,172.8,326.9,172.7,323.5L172.7,323.5z M186.5,331.9c2.4,0,4.3,1.6,4.3,3.5
		c0,1.9-1.9,3.5-4.3,3.5c-2.4,0-4.3-1.6-4.3-3.5C182.2,333.5,184.1,331.9,186.5,331.9L186.5,331.9z M66.2,323.5
		c7.4-0.2,5.8,0.5,10.1,5c0.4-0.2,0.7-0.5,1.1-0.7c-0.8-1.5-1.4-3.2-1.6-5.1c1.1-1.9,2.6-2.7,4.3-3c1.7,0.3,3.2,1.1,4.3,3
		c-0.3,1.9-0.8,3.6-1.6,5.1c0.4,0.2,0.7,0.5,1.1,0.7c4.4-4.5,2.8-5.2,10.1-5c-0.1,3.4-3.8,2.5-5.5,5.3c-1.2,1.9,0.2,4.5-1.1,5.6
		c-0.3,0.3-0.7,0.4-1.2,0.5c-0.3-2.9-3.2-4.7-6-4.7c-2.8,0-5.7,1.8-6,4.7c-0.4-0.1-0.9-0.2-1.2-0.5c-1.3-1.1,0-3.7-1.1-5.6
		C70,326,66.4,326.9,66.2,323.5L66.2,323.5z M80.1,331.9c2.4,0,4.3,1.6,4.3,3.5c0,1.9-1.9,3.5-4.3,3.5c-2.4,0-4.3-1.6-4.3-3.5
		C75.7,333.5,77.7,331.9,80.1,331.9L80.1,331.9z M92.1,64.7l-0.6-0.8c-1.1-1.5-21.6-1.6-23-0.2l-0.8,1c4.1-0.5,8.2-0.7,12.3-0.7
		C84.1,64.1,88.1,64.3,92.1,64.7L92.1,64.7z M62.1,67.2c6-1,12-1.5,18-1.5c5.9,0,11.9,0.5,18,1.5c5.1,1.3,5.5,9.4,0,11.1
		c-5.9-1-11.9-1.3-18-1.3c-6.1,0-12.1,0.3-18,1.3C56.6,76.5,57,68.5,62.1,67.2L62.1,67.2z M64.7,81.6c10.1-1.1,20.3-1.1,30.4,0
		c1.7,0.2,1.5-0.7,1.6-1.9c-5.5-0.9-11.1-1.1-16.7-1.1c-5.7,0-11.4,0.2-16.9,1.1C63.2,81,63,81.8,64.7,81.6L64.7,81.6z"/>
	<path class="st0" d="M155,238.5c-0.2,0-0.3,0-0.5,0c-1.3,0-2.6-0.1-3.9-0.2c-1.1-0.1-2.3-0.3-3.3-0.6c-0.1,0-0.2,0-0.2-0.1
		c-0.5-0.2-0.9-0.6-0.8-1.1c0-0.6,0.4-0.9,1-1c0.1,0,0.2,0,0.3,0c1.1-0.2,2.2-0.3,3.2-0.4c1.4-0.1,2.7-0.3,4.1-0.4
		c-0.6-0.1-1.2-0.2-1.8-0.4c-1.4-0.3-2.8-0.7-4.2-1.1c-1.2-0.3-2.4-0.7-3.5-1.3c0,0-0.1,0-0.1-0.1c-0.5-0.2-0.8-0.7-0.7-1.2
		c0.1-0.5,0.6-0.9,1.1-0.9c0.1,0,0.1,0,0.2,0c1.2,0.1,2.3,0.2,3.5,0.3c1.2,0.1,2.4,0.2,3.5,0.3c0,0-0.1,0-0.1,0
		c-1.5-0.5-2.9-1.1-4.3-1.7c-1.2-0.5-2.4-1-3.5-1.7c-0.5-0.3-1-0.6-0.7-1.4c0.2-0.6,0.7-0.8,1.2-0.8c0.1,0,0.2,0,0.2,0
		c1.2,0.2,2.5,0.5,3.7,0.8c1.1,0.3,2.2,0.5,3.3,0.8c-1.2-0.6-2.5-1.3-3.7-2c-1.2-0.7-2.3-1.4-3.4-2.1c-0.5-0.4-1-0.8-0.6-1.6
		c0.2-0.3,0.4-0.5,0.6-0.5c0.4-0.2,0.7-0.1,1,0c1.3,0.3,2.6,0.8,3.8,1.3c1,0.4,2,0.8,3,1.2c-1.1-0.8-2.1-1.5-3.1-2.3
		c-1.1-0.8-2.2-1.7-3.3-2.7c-0.4-0.4-0.8-0.9-0.4-1.6c0.3-0.4,0.8-0.6,1.2-0.4c0.1,0,0.1,0,0.2,0.1c0.1,0,0.1,0.1,0.2,0.1
		c1.3,0.5,2.6,1.2,3.8,1.8c0.9,0.5,1.8,1,2.8,1.5c-0.9-0.8-1.7-1.6-2.5-2.5c-1-1-2-2.1-2.9-3.2c-0.4-0.5-0.7-1-0.1-1.6
		c0.4-0.5,1-0.4,1-0.4c0.1,0,0.2,0.1,0.3,0.1c0.1,0,0.1,0,0.2,0.1c0.1,0,0.1,0.1,0.2,0.1c1.3,0.7,2.5,1.6,3.6,2.4
		c1.1,0.8,2.2,1.7,3.3,2.5c-0.8-1.1-1.6-2.1-2.4-3.2c-0.9-1.2-1.8-2.5-2.5-3.8c-0.1-0.1-0.1-0.2-0.2-0.3c-0.3-0.5-0.2-1,0.2-1.4
		c0.5-0.4,1-0.3,1.4,0c0.1,0.1,0.2,0.1,0.3,0.2c1.2,0.9,2.3,2,3.3,3c0.9,0.9,1.8,1.8,2.7,2.8c-0.6-1.1-1.3-2.3-1.9-3.5
		c-0.6-1.2-1.3-2.5-1.8-3.9c0-0.1-0.1-0.2-0.1-0.3c0-0.1,0-0.1-0.1-0.2c0,0,0-0.1,0-0.3c0,0,0-0.6,0.5-0.9c0.7-0.5,1.2,0,1.6,0.4
		c1,1,1.8,2.2,2.7,3.4c0.7,0.9,1.3,1.9,2,2.8c-0.4-1-0.7-1.9-1.1-2.9c-0.4-1.3-0.9-2.7-1.2-4c0-0.1-0.1-0.2-0.1-0.3
		c0-0.1,0-0.1,0-0.2c0-0.5,0.3-0.9,0.7-1c0.9-0.3,1.2,0.3,1.5,0.8c0.8,1.1,1.5,2.4,2.1,3.6c0.6,1.1,1.2,2.2,1.7,3.3
		c-0.3-1.1-0.5-2.1-0.7-3.2c-0.3-1.3-0.5-2.6-0.7-4c0-0.1,0-0.2,0-0.3c0-0.1,0-0.1,0-0.2c0-0.5,0.3-0.9,0.8-1
		c0.8-0.2,1.2,0.3,1.4,0.9c0.6,1.2,1.1,2.5,1.6,3.7c0.5,1.3,1,2.6,1.4,3.9c-0.1-1.1-0.2-2.2-0.3-3.3c-0.1-1.2-0.2-2.5-0.2-3.7
		c0-0.1,0-0.2,0-0.3c0-0.5,0.3-1,0.9-1.1c0.8-0.1,1.1,0.4,1.3,1c0.5,1.2,0.8,2.5,1.1,3.7c0.4,1.5,0.7,3,1,4.5c0,0,0,0,0,0
		c0.1-1.2,0.1-2.3,0.2-3.5c0.1-1.2,0.1-2.3,0.3-3.5c0-0.1,0-0.2,0-0.3c0.1-0.5,0.4-1,1-1c0.6,0,1,0.3,1.1,0.9c0,0.1,0,0.1,0.1,0.2
		c0.4,1.2,0.6,2.4,0.7,3.6c0.2,1.4,0.3,2.8,0.4,4.3c0,0.6,0.1,1.2,0.1,1.7c0.3-1.3,0.7-2.6,1-3.9c0.3-1,0.5-2.1,0.9-3.1
		c0-0.1,0.1-0.2,0.1-0.2c0.2-0.5,0.6-0.8,1.2-0.7c0.6,0.1,0.9,0.5,1,1c0,0.1,0,0.1,0,0.2c0.2,1.1,0.1,2.3,0.1,3.4
		c-0.1,1.3-0.2,2.6-0.4,3.9c0,0.2,0,0.3-0.1,0.5c0.4-0.8,0.7-1.5,1.1-2.3c0.4-0.8,0.8-1.7,1.2-2.4c0.3-0.5,0.7-1,1.4-0.7
		c0.5,0.2,0.8,0.6,0.8,1.1c0,0.1,0,0.1,0,0.2c0.1,1.1-0.2,2.3-0.4,3.3c-0.3,1.3-0.7,2.6-1.1,3.9c0,0.1,0,0.2-0.1,0.2
		c0.5-0.6,0.9-1.2,1.4-1.8c0.5-0.6,1-1.2,1.5-1.8c0.4-0.4,0.8-0.7,1.4-0.4c0.4,0.2,0.7,0.7,0.6,1.1c0,0.1,0,0.2,0,0.2
		c-0.2,1.8-1.3,4.2-2.2,5.8c-0.3,0.6-0.6,1.1-0.9,1.7c0.7-0.5,1.4-1.1,2.1-1.6c0.5-0.4,1-0.9,1.5-1.2c0.4-0.3,0.9-0.4,1.4-0.1
		c0.4,0.2,0.5,0.6,0.5,1.1c0,0.1,0,0.1,0,0.2c-0.2,1.5-2,3.8-3.9,5.9l3-1.1l0.1,0c0.1,0,0.1,0,0.2,0c0.4-0.1,0.9,0.1,1.2,0.5
		c0.4,0.5,0.2,1-0.1,1.4c-3.3,4.8-8.7,6.7-14.3,6.4c-0.4,0-0.8,0-1.3,0.1l10.1,11.1c0.3,0.4,0.6,0.7,0.4,1.3
		c-0.2,0.5-0.4,0.6-0.8,0.8c-0.3,0.1-0.5,0.3-0.6,0.5c-0.2,0.4-0.5,0.7-1,0.7c-0.6,0-0.8-0.3-1.1-0.7l-9.3-11.6
		c-0.2,0.4-0.3,0.9-0.3,1.2c-0.7,5.5-3.5,10.4-8.5,13.1c-0.5,0.3-1,0.4-1.5-0.1c-0.3-0.3-0.4-0.8-0.3-1.2c0-0.1,0-0.1,0.1-0.2l0-0.1
		l1.5-2.6c-2.3,1.5-4.8,2.9-6.3,2.9c-0.1,0-0.1,0-0.2,0c-0.4,0-0.8-0.2-1-0.6c-0.3-0.5-0.1-1,0.3-1.4c0.4-0.4,1-0.9,1.4-1.3
		c0.6-0.6,1.3-1.2,1.9-1.8c-0.6,0.2-1.2,0.4-1.8,0.6c-1.7,0.6-4.2,1.4-6.1,1.3c-0.1,0-0.1,0-0.2,0c-0.5,0-0.9-0.3-1-0.8
		c-0.2-0.7,0.2-1,0.6-1.4c0.6-0.5,1.3-0.9,2-1.2c0.7-0.4,1.3-0.8,2-1.1c-0.1,0-0.2,0-0.3,0c-1.3,0.2-2.7,0.4-4.1,0.4
		c-1.1,0.1-2.3,0.1-3.4-0.1c-0.1,0-0.2,0-0.3-0.1c-0.5-0.1-0.9-0.5-0.9-1c0-0.5,0.3-0.9,0.8-1.1c0.1,0,0.2-0.1,0.2-0.1
		c0.8-0.3,1.7-0.6,2.6-0.8C153.4,238.9,154.2,238.7,155,238.5L155,238.5z M173.9,237.7c-0.7,5.1-3.2,9.7-8,12.3
		c-0.3,0.2-0.3,0.2-0.2-0.2l3.4-6.2c0-0.1-0.1-0.1-0.3-0.1c-2.3,1.6-7.1,5.1-9,5c-0.3,0-0.3,0-0.1-0.2c0.6-0.7,4.6-4,6-5.9
		c0-0.2-0.1-0.3-0.4-0.2c-2.5,1-8.1,3.3-10.8,3.2c-0.4,0-0.4,0-0.1-0.2c1.5-1.1,6.4-3.6,8.6-4.9c0.1-0.1,0-0.2-0.2-0.2l0,0
		c-3.6,0.6-9.8,1.8-12.5,1.2c-0.4-0.1-0.4-0.1,0-0.2c2.2-0.8,8.1-2.3,10.9-3.3c0.1-0.1,0.1-0.2-0.1-0.3c-3.5,0-10.3,0.1-13.6-0.8
		c-0.4-0.1-0.4-0.1,0-0.2c1.8-0.3,6.4-0.6,10.2-1.1c0.9-0.1,1.8-0.2,2.6-0.4c0.2-0.1,0.3-0.3-0.1-0.4c-3.9-0.8-11.2-2.1-14.6-3.7
		c-0.3-0.1-0.4-0.1,0-0.1c3.2,0.2,10.5,1,14.5,1.2c0.2-0.1,0.3-0.2,0-0.3c-4-1.4-11.4-3.7-14.8-5.7c-0.3-0.2-0.4-0.2,0-0.1
		c3.5,0.6,11.1,2.7,15.2,3.7c0.2,0,0.3-0.1,0.1-0.3c-4-2.1-11.4-5.6-14.6-8c-0.2-0.1-0.3-0.2-0.2-0.2c0,0,0.1,0,0.3,0.1
		c3.6,1,11.1,4.2,15.2,6.1c0.2,0,0.2-0.1,0.1-0.2c-3.8-2.8-10.9-7.5-13.8-10.3c-0.4-0.3-0.2-0.2,0.1-0.1c3.6,1.4,10.7,5.7,14.7,8.3
		c0.2,0.1,0.3,0,0.1-0.2c-3.6-3.4-10-9-12.5-12.2c-0.2-0.3-0.2-0.3,0.1-0.1c3.5,2,10.1,7.6,13.9,10.7c0.2,0,0.2,0,0.2-0.2
		c-3.4-4.1-8.9-11-10.6-14.1c-0.3-0.5-0.3-0.4,0.1-0.1c2.9,2.2,8.9,8.7,12.3,12.6c0.1,0,0.1,0,0.1-0.1c-2.4-4-6.9-11.4-8.4-15.3
		c-0.2-0.5-0.2-0.5,0.1-0.1c2.8,3,7.4,10.3,10.1,14.3c0.1,0,0.2,0,0.2-0.1c-2-4.3-5.2-12.1-6-15.9c-0.1-0.6,0-0.3,0.2,0
		c2.2,3.3,5.8,10.9,8,15.1c0.1,0.1,0.2,0,0.2-0.1c-1.2-4.3-3.3-12.2-3.7-15.9c-0.1-0.5-0.1-0.4,0.2,0c1.8,3.5,4.2,11.3,5.6,15.5
		c0.1,0.1,0.2,0.1,0.3,0c-0.4-4.2-1.3-12-1.3-15.5c0-0.4,0-0.3,0.1,0c1.4,3.6,2.6,11.3,3.4,15.4c0.1,0.2,0.2,0.2,0.3,0
		c0.4-4,0.7-11.2,1-14.4c0-0.4,0-0.3,0.1,0c1.1,3.6,1.2,11,1.4,14.9c0.1,0.2,0.2,0.2,0.3,0.1c1.3-3.8,2.7-10.2,3.4-12.4
		c0.1-0.4,0.1-0.3,0.2,0.1c0.5,3.4-0.7,10.1-1.2,13.5c0,0.2,0.1,0.2,0.3,0.2c1.4-2.7,3.8-8.3,4.9-10.4c0.2-0.4,0.2-0.2,0.2,0.1
		c0.2,2.7-2,8.7-3.1,12c0,0.2,0,0.3,0.2,0.3c1.7-1.9,4.9-6.4,6.2-7.7c0.2-0.2,0.2-0.3,0.2,0.1c-0.3,2.8-3.4,7.9-4.8,10.2
		c-0.1,0.3,0,0.4,0.2,0.4c2.1-1,6-4.5,6.8-5c0.3-0.2,0.2-0.1,0.2,0.2c-0.2,1.8-4.3,6-6.3,8.1c-0.2,0.2-0.2,0.3,0,0.4l6.7-2.5
		c0.3-0.1,0.3-0.1,0.1,0.2c-3.1,4.5-8.2,6.2-13.4,6c0,0-0.1,0-0.1,0c1.9-0.7,3.9-1.2,5.5-2.5c0.3-0.3,0-0.7-0.3-0.4
		c-1.5,1.3-3.6,1.7-5.4,2.5c1.9-1.5,3.9-3.1,5.1-5.2c0.2-0.4-0.3-0.6-0.5-0.3c-1.3,2.2-3.4,3.9-5.4,5.4c1.9-2.3,3.5-4.7,4.4-7.6
		c0.1-0.4-0.4-0.6-0.5-0.2c-1,2.8-2.5,5.3-4.4,7.5c1.5-2.8,2.5-5.9,3.1-9c0.1-0.4-0.5-0.5-0.5-0.1c-0.5,3-1.5,6.1-3,8.9
		c1-3.2,1.4-6.6,1.4-9.9c0-0.4-0.6-0.4-0.5,0c0.1,3.3-0.3,6.5-1.3,9.6c0.3-3.3,0.1-6.7-0.6-10c-0.1-0.4-0.6-0.3-0.5,0.1
		c0.6,3.2,0.9,6.4,0.6,9.6c-0.2-3.3-1-6.6-2.1-9.8c-0.1-0.4-0.7-0.2-0.5,0.2c1.1,3.2,1.8,6.4,2,9.6c-0.8-3.3-2-6.4-3.4-9.5
		c-0.2-0.4-0.7-0.2-0.5,0.2c1.4,3.2,2.6,6.2,3.4,9.5c-1.4-3.1-3-6.1-4.8-9c-0.2-0.4-0.7-0.1-0.5,0.3c1.9,2.9,3.4,5.9,4.8,8.9
		c-2-2.8-4-5.6-6.1-8.3c-0.3-0.3-0.7,0-0.4,0.3c2.1,2.8,4.1,5.4,6.1,8.3c-2.6-2.4-4.9-4.8-7.3-7.3c-0.3-0.3-0.7,0.1-0.4,0.4
		c2.4,2.5,4.8,5,7.3,7.3c-2.8-1.8-5.6-3.8-8.1-6.1c-0.3-0.3-0.7,0.1-0.4,0.4c2.6,2.3,5.3,4.3,8.2,6.2c-3.1-1.3-6-2.9-8.9-4.8
		c-0.4-0.2-0.7,0.2-0.3,0.5c2.9,1.9,5.8,3.5,8.9,4.8c-3.2-0.7-6.3-1.9-9.2-3.5c-0.4-0.2-0.6,0.3-0.3,0.5c3,1.6,6.1,2.8,9.4,3.5
		c-3.2-0.2-6.4-0.9-9.4-2c-0.4-0.1-0.6,0.4-0.2,0.5c3.2,1.2,6.4,1.9,9.8,2.1c-3.2,0.5-6.4,0.4-9.7-0.2c-0.4-0.1-0.5,0.5-0.1,0.5
		c3.3,0.6,6.7,0.7,10,0.2c-3,1-6.2,1.6-9.3,1.6c-0.4,0-0.4,0.6,0,0.5c3.1-0.1,6.4-0.6,9.4-1.6c-2.5,1.5-5.2,2.7-8.1,3.2
		c-0.4,0.1-0.3,0.6,0.1,0.5c2.9-0.5,5.6-1.7,8.2-3.2c-1.8,1.7-3.8,3.6-6.2,4.5c-0.4,0.2-0.2,0.7,0.2,0.5c2.3-0.9,4.2-2.6,5.9-4.2
		c-1,1.7-1.8,3.7-3.3,5c-0.3,0.3,0,0.7,0.4,0.4C172.1,241.3,172.9,239.4,173.9,237.7C173.9,237.7,173.9,237.7,173.9,237.7
		L173.9,237.7z M175.6,235.3l9.8,12.2c0.2,0.3,0.2,0.4,0.4,0.2c0.3-0.5,0.7-0.8,1.2-1c0.2-0.1,0.3,0,0-0.3l-10.6-11.6
		C175.9,234.2,175.2,234.8,175.6,235.3L175.6,235.3z M116.1,193.1c-0.2,0-0.3,0-0.5,0c-1.3,0-2.6-0.1-3.9-0.2
		c-1.1-0.1-2.3-0.3-3.3-0.6c-0.1,0-0.2,0-0.2-0.1c-0.5-0.2-0.9-0.6-0.8-1.1c0-0.6,0.4-0.9,1-1c0.1,0,0.2,0,0.2,0
		c1.1-0.2,2.2-0.3,3.2-0.4c1.4-0.1,2.7-0.3,4.1-0.4c-0.6-0.1-1.2-0.2-1.8-0.4c-1.4-0.3-2.8-0.7-4.2-1.1c-1.2-0.3-2.4-0.7-3.5-1.3
		c0,0-0.1,0-0.1-0.1c-0.5-0.2-0.8-0.7-0.7-1.2c0.1-0.5,0.6-0.9,1.1-0.9c0.1,0,0.1,0,0.2,0c1.2,0.1,2.3,0.2,3.5,0.3
		c1.2,0.1,2.4,0.2,3.5,0.3c0,0-0.1,0-0.1,0c-1.5-0.5-2.9-1.1-4.3-1.7c-1.2-0.5-2.4-1-3.5-1.7c-0.5-0.3-1-0.6-0.7-1.4
		c0.2-0.6,0.7-0.8,1.2-0.8c0.1,0,0.2,0,0.2,0c1.2,0.2,2.5,0.5,3.7,0.8c1.1,0.3,2.2,0.5,3.3,0.8c-1.2-0.7-2.5-1.3-3.7-2
		c-1.2-0.7-2.3-1.4-3.4-2.1c-0.5-0.4-1-0.8-0.6-1.6c0.2-0.3,0.4-0.4,0.6-0.5c0.4-0.2,0.7-0.1,1,0c1.3,0.3,2.6,0.8,3.8,1.3
		c1,0.4,2,0.8,3,1.2c-1.1-0.8-2.1-1.5-3.1-2.3c-1.1-0.8-2.2-1.7-3.3-2.7c-0.4-0.4-0.8-0.9-0.4-1.6c0.3-0.4,0.8-0.6,1.2-0.4
		c0.1,0,0.1,0,0.2,0.1c0.1,0,0.1,0.1,0.2,0.1c1.3,0.5,2.6,1.2,3.8,1.8c0.9,0.5,1.8,1,2.8,1.5c-0.9-0.8-1.7-1.6-2.5-2.5
		c-1-1-2-2.1-2.9-3.2c-0.4-0.5-0.7-1-0.1-1.6c0.4-0.5,1-0.4,1-0.4c0.1,0,0.2,0.1,0.3,0.1c0.1,0,0.1,0,0.2,0.1c0.1,0,0.1,0.1,0.2,0.1
		c1.2,0.7,2.5,1.6,3.6,2.4c1.1,0.8,2.2,1.7,3.3,2.5c-0.8-1.1-1.6-2.1-2.4-3.2c-0.9-1.2-1.8-2.5-2.5-3.8c0-0.1-0.1-0.2-0.2-0.3
		c-0.2-0.5-0.2-1,0.2-1.4c0.5-0.4,1-0.3,1.4,0c0.1,0.1,0.2,0.1,0.2,0.2c1.2,0.9,2.3,2,3.3,3c0.9,0.9,1.8,1.8,2.7,2.8
		c-0.6-1.1-1.3-2.3-1.9-3.5c-0.6-1.2-1.3-2.5-1.8-3.9c0-0.1-0.1-0.2-0.1-0.3c0-0.1,0-0.1-0.1-0.2c0,0,0-0.1,0-0.3c0,0,0-0.6,0.5-0.9
		c0.7-0.5,1.2,0,1.6,0.4c1,1,1.8,2.2,2.7,3.4c0.7,0.9,1.3,1.9,2,2.8c-0.4-1-0.7-1.9-1.1-2.9c-0.4-1.3-0.9-2.7-1.2-4
		c0-0.1-0.1-0.2-0.1-0.3c0-0.1,0-0.1,0-0.2c0-0.5,0.3-0.9,0.7-1c0.9-0.3,1.2,0.3,1.5,0.8c0.8,1.1,1.5,2.4,2.1,3.6
		c0.6,1.1,1.2,2.2,1.7,3.3c-0.3-1.1-0.5-2.1-0.7-3.2c-0.3-1.3-0.5-2.6-0.7-4c0-0.1,0-0.2,0-0.3c0-0.1,0-0.1,0-0.2
		c0-0.5,0.3-0.9,0.8-1c0.8-0.2,1.2,0.3,1.4,0.9c0.6,1.2,1.1,2.5,1.6,3.7c0.5,1.3,1,2.6,1.4,3.9c-0.1-1.1-0.2-2.2-0.3-3.3
		c-0.1-1.2-0.2-2.5-0.2-3.7c0-0.1,0-0.2,0-0.3c0-0.5,0.3-1,0.9-1.1c0.8-0.1,1.1,0.4,1.3,1c0.5,1.2,0.8,2.5,1.1,3.7
		c0.4,1.5,0.7,3,1,4.5c0,0,0,0,0,0.1c0.1-1.2,0.1-2.3,0.2-3.5c0.1-1.1,0.1-2.3,0.3-3.5c0-0.1,0-0.2,0-0.3c0.1-0.5,0.4-1,1-1
		c0.6,0,1,0.3,1.1,0.9c0,0.1,0,0.1,0.1,0.2c0.4,1.2,0.6,2.4,0.7,3.6c0.2,1.4,0.3,2.8,0.4,4.3c0,0.6,0.1,1.2,0.1,1.7
		c0.3-1.3,0.7-2.6,1-3.9c0.3-1,0.5-2.1,0.9-3.1c0-0.1,0.1-0.2,0.1-0.2c0.2-0.5,0.6-0.8,1.2-0.7c0.6,0.1,0.9,0.5,1,1
		c0,0.1,0,0.1,0,0.2c0.1,1.1,0.1,2.3,0.1,3.4c-0.1,1.3-0.2,2.6-0.4,3.9c0,0.2,0,0.3-0.1,0.5c0.4-0.8,0.7-1.5,1.1-2.3
		c0.4-0.8,0.8-1.7,1.2-2.4c0.3-0.5,0.7-1,1.4-0.7c0.5,0.2,0.8,0.6,0.8,1.1c0,0.1,0,0.1,0,0.2c0.1,1.1-0.2,2.3-0.4,3.3
		c-0.3,1.3-0.7,2.6-1.1,3.9c0,0.1,0,0.2-0.1,0.2c0.5-0.6,0.9-1.2,1.4-1.8c0.5-0.6,1-1.2,1.5-1.8c0.4-0.4,0.8-0.7,1.4-0.4
		c0.4,0.2,0.7,0.7,0.6,1.1c0,0.1,0,0.2,0,0.2c-0.2,1.8-1.3,4.2-2.2,5.8c-0.3,0.6-0.6,1.1-0.9,1.7c0.7-0.5,1.4-1.1,2.1-1.6
		c0.5-0.4,1-0.9,1.5-1.2c0.4-0.3,0.9-0.4,1.4-0.1c0.4,0.2,0.5,0.6,0.5,1.1c0,0.1,0,0.1,0,0.2c-0.2,1.5-2,3.8-3.9,5.9l3-1.1l0.1,0
		c0.1,0,0.1,0,0.2,0c0.4-0.1,0.9,0.1,1.2,0.5c0.4,0.5,0.2,1-0.1,1.4c-3.3,4.8-8.7,6.7-14.3,6.4c-0.4,0-0.8,0-1.3,0.1l10.1,11.1
		c0.3,0.4,0.6,0.7,0.4,1.3c-0.2,0.5-0.4,0.6-0.8,0.8c-0.3,0.1-0.5,0.3-0.6,0.5c-0.2,0.4-0.5,0.7-1,0.7c-0.6,0-0.8-0.3-1.1-0.7
		l-9.3-11.6c-0.2,0.4-0.3,0.9-0.3,1.2c-0.7,5.5-3.5,10.4-8.5,13.1c-0.5,0.3-1,0.4-1.5-0.1c-0.3-0.3-0.4-0.8-0.3-1.2
		c0-0.1,0.1-0.1,0.1-0.2l0-0.1l1.5-2.6c-2.3,1.5-4.8,2.9-6.3,2.9c-0.1,0-0.1,0-0.2,0c-0.4,0-0.8-0.2-1-0.6c-0.3-0.5-0.1-1,0.3-1.4
		c0.4-0.5,1-0.9,1.4-1.3c0.7-0.6,1.3-1.2,1.9-1.8c-0.6,0.2-1.2,0.4-1.8,0.6c-1.7,0.6-4.2,1.4-6.1,1.3c-0.1,0-0.1,0-0.2,0
		c-0.5,0-0.9-0.3-1-0.8c-0.2-0.6,0.2-1,0.6-1.4c0.6-0.5,1.3-0.9,2-1.2c0.7-0.4,1.3-0.7,2-1.1c-0.1,0-0.2,0-0.3,0
		c-1.3,0.2-2.7,0.4-4.1,0.4c-1.1,0.1-2.3,0.1-3.4-0.1c-0.1,0-0.2,0-0.3-0.1c-0.5-0.1-0.9-0.5-0.9-1c0-0.5,0.3-0.9,0.8-1.1
		c0.1,0,0.2-0.1,0.2-0.1c0.8-0.3,1.7-0.6,2.6-0.8C114.5,193.6,115.3,193.3,116.1,193.1L116.1,193.1z M135,192.4
		c-0.7,5.1-3.2,9.7-8,12.3c-0.3,0.2-0.3,0.2-0.2-0.2l3.4-6.2c0-0.1-0.1-0.1-0.3-0.1c-2.3,1.6-7.1,5.1-9,5c-0.3,0-0.3,0-0.1-0.2
		c0.6-0.7,4.6-4,6-5.9c0-0.2-0.1-0.3-0.4-0.2c-2.5,1-8.1,3.3-10.8,3.2c-0.4,0-0.4,0-0.1-0.2c1.5-1.1,6.4-3.6,8.6-4.9
		c0.1-0.1,0-0.2-0.2-0.2l0,0c-3.6,0.6-9.8,1.8-12.5,1.2c-0.4-0.1-0.4-0.1,0-0.2c2.2-0.8,8.1-2.3,10.9-3.3c0.1-0.1,0.1-0.2-0.1-0.3
		c-3.5,0-10.3,0.1-13.6-0.8c-0.4-0.1-0.4-0.1,0-0.2c1.8-0.3,6.4-0.6,10.2-1.1c0.9-0.1,1.8-0.2,2.6-0.4c0.2-0.1,0.3-0.3-0.1-0.4
		c-3.9-0.8-11.2-2.1-14.6-3.7c-0.3-0.1-0.4-0.1,0-0.1c3.2,0.2,10.5,1,14.5,1.2c0.2-0.1,0.3-0.2,0-0.3c-4-1.4-11.4-3.7-14.8-5.7
		c-0.3-0.2-0.4-0.2,0-0.1c3.5,0.6,11.1,2.7,15.2,3.7c0.2,0,0.3-0.1,0.1-0.3c-4-2.1-11.4-5.6-14.6-8c-0.2-0.1-0.3-0.2-0.2-0.2
		c0,0,0.1,0,0.3,0.1c3.6,1,11.1,4.2,15.2,6.1c0.2,0,0.2-0.1,0.1-0.2c-3.8-2.8-10.9-7.5-13.8-10.3c-0.4-0.3-0.2-0.2,0.1-0.1
		c3.6,1.4,10.7,5.7,14.7,8.3c0.2,0.1,0.3,0,0.1-0.2c-3.6-3.4-10-9-12.5-12.2c-0.2-0.3-0.2-0.3,0.1-0.1c3.5,2,10.1,7.6,13.9,10.7
		c0.2,0,0.2,0,0.2-0.2c-3.4-4.1-9-11-10.6-14.1c-0.3-0.5-0.3-0.4,0.1-0.1c2.9,2.2,8.9,8.7,12.3,12.6c0.1,0,0.1,0,0.1-0.1
		c-2.4-4-6.9-11.4-8.4-15.3c-0.2-0.5-0.2-0.5,0.1-0.1c2.8,3,7.4,10.3,10.1,14.3c0.1,0,0.2,0,0.2-0.1c-2-4.3-5.2-12.1-6-15.9
		c-0.1-0.6,0-0.3,0.2,0c2.2,3.3,5.8,10.9,8,15.1c0.1,0.1,0.2,0,0.2-0.1c-1.2-4.3-3.3-12.2-3.7-15.9c-0.1-0.5-0.1-0.4,0.2,0
		c1.8,3.5,4.2,11.3,5.6,15.5c0.1,0.1,0.2,0.1,0.3,0c-0.4-4.2-1.3-12-1.3-15.5c0-0.4,0-0.3,0.1,0c1.4,3.6,2.6,11.2,3.4,15.4
		c0.1,0.2,0.2,0.2,0.3,0c0.4-4,0.7-11.2,1-14.4c0-0.4,0-0.3,0.1,0c1.1,3.6,1.2,11,1.4,14.9c0.1,0.2,0.2,0.2,0.3,0.1
		c1.3-3.8,2.7-10.2,3.4-12.4c0.1-0.4,0.1-0.3,0.2,0.1c0.5,3.4-0.7,10.1-1.2,13.5c0,0.2,0.1,0.2,0.3,0.2c1.4-2.7,3.8-8.3,5-10.4
		c0.2-0.4,0.2-0.2,0.2,0.1c0.2,2.7-2,8.7-3.1,12c0,0.2,0,0.3,0.2,0.3c1.7-1.9,4.9-6.4,6.2-7.7c0.2-0.2,0.2-0.3,0.2,0.1
		c-0.3,2.8-3.4,7.9-4.8,10.2c-0.1,0.3,0,0.4,0.2,0.4c2.1-1,6-4.4,6.8-5c0.3-0.2,0.2-0.1,0.2,0.2c-0.2,1.8-4.3,6-6.3,8.1
		c-0.2,0.2-0.2,0.3,0,0.4l6.7-2.5c0.3-0.1,0.3-0.1,0.1,0.2c-3.1,4.5-8.2,6.2-13.4,6c0,0-0.1,0-0.1,0c1.9-0.7,3.9-1.2,5.5-2.5
		c0.3-0.3,0-0.7-0.3-0.4c-1.5,1.3-3.6,1.7-5.4,2.5c1.9-1.5,3.9-3.1,5.1-5.2c0.2-0.4-0.3-0.6-0.5-0.3c-1.3,2.2-3.4,3.9-5.4,5.4
		c1.9-2.3,3.5-4.7,4.4-7.6c0.1-0.4-0.4-0.6-0.5-0.2c-1,2.8-2.5,5.3-4.4,7.5c1.5-2.8,2.5-5.9,3.1-9c0.1-0.4-0.5-0.5-0.5-0.1
		c-0.5,3.1-1.5,6.1-3,8.9c1-3.2,1.4-6.6,1.4-9.9c0-0.4-0.6-0.4-0.5,0c0.1,3.3-0.3,6.5-1.3,9.6c0.3-3.3,0.1-6.7-0.6-10
		c-0.1-0.4-0.6-0.3-0.5,0.1c0.6,3.2,0.9,6.4,0.6,9.6c-0.2-3.3-1-6.6-2.1-9.8c-0.1-0.4-0.7-0.2-0.5,0.2c1.1,3.2,1.8,6.4,2,9.6
		c-0.8-3.3-2-6.4-3.4-9.5c-0.2-0.4-0.7-0.2-0.5,0.2c1.4,3.2,2.6,6.2,3.4,9.5c-1.4-3.1-3-6.1-4.8-9c-0.2-0.4-0.7-0.1-0.5,0.3
		c1.9,2.9,3.4,5.9,4.8,8.9c-2-2.8-4-5.6-6.1-8.3c-0.3-0.3-0.7,0-0.4,0.3c2.1,2.8,4.1,5.4,6.1,8.3c-2.6-2.4-4.9-4.8-7.3-7.3
		c-0.3-0.3-0.7,0.1-0.4,0.4c2.4,2.5,4.8,5,7.3,7.3c-2.8-1.8-5.6-3.8-8.1-6.1c-0.3-0.3-0.7,0.1-0.4,0.4c2.6,2.3,5.3,4.3,8.2,6.2
		c-3.1-1.3-6-2.9-8.9-4.8c-0.4-0.2-0.7,0.2-0.3,0.5c2.9,1.9,5.8,3.5,8.9,4.8c-3.2-0.7-6.3-1.9-9.2-3.5c-0.4-0.2-0.6,0.3-0.3,0.5
		c3,1.6,6.1,2.8,9.4,3.5c-3.2-0.2-6.4-0.9-9.4-2.1c-0.4-0.1-0.6,0.4-0.2,0.5c3.2,1.2,6.4,1.9,9.8,2.1c-3.2,0.5-6.4,0.4-9.7-0.2
		c-0.4-0.1-0.5,0.5-0.1,0.5c3.3,0.6,6.7,0.7,10,0.2c-3,1-6.2,1.6-9.3,1.6c-0.4,0-0.4,0.5,0,0.5c3.1-0.1,6.4-0.6,9.4-1.7
		c-2.5,1.5-5.2,2.7-8.1,3.2c-0.4,0.1-0.3,0.6,0.1,0.5c2.9-0.5,5.6-1.7,8.2-3.2c-1.8,1.7-3.8,3.6-6.2,4.5c-0.4,0.2-0.2,0.7,0.2,0.5
		c2.3-0.9,4.2-2.6,5.9-4.2c-1,1.7-1.8,3.7-3.3,5c-0.3,0.3,0,0.7,0.4,0.4C133.2,196,134,194,135,192.4C135,192.3,135,192.3,135,192.4
		L135,192.4z M136.7,189.9l9.8,12.2c0.2,0.3,0.2,0.4,0.4,0.1c0.3-0.5,0.7-0.8,1.2-1c0.2-0.1,0.3,0,0-0.3l-10.6-11.6
		C137,188.8,136.3,189.4,136.7,189.9L136.7,189.9z M77.2,147.7c-0.2,0-0.3,0-0.5,0c-1.3,0-2.6-0.1-3.9-0.2c-1.1-0.1-2.3-0.3-3.3-0.6
		c-0.1,0-0.2,0-0.2-0.1c-0.5-0.2-0.9-0.6-0.8-1.1c0-0.6,0.4-0.9,1-1c0.1,0,0.2,0,0.2,0c1.1-0.2,2.2-0.3,3.2-0.4
		c1.4-0.1,2.7-0.3,4.1-0.4c-0.6-0.1-1.2-0.2-1.7-0.4c-1.4-0.3-2.8-0.7-4.2-1.1c-1.2-0.3-2.4-0.7-3.5-1.3c0,0-0.1,0-0.1-0.1
		c-0.5-0.2-0.8-0.7-0.7-1.2c0.1-0.5,0.6-0.9,1.1-0.9c0.1,0,0.1,0,0.2,0c1.2,0.1,2.3,0.2,3.5,0.3c1.2,0.1,2.4,0.2,3.5,0.3
		c0,0-0.1,0-0.1,0c-1.5-0.5-2.9-1.1-4.3-1.7c-1.2-0.5-2.4-1-3.5-1.7c-0.5-0.3-1-0.6-0.7-1.4c0.2-0.6,0.7-0.8,1.2-0.8
		c0.1,0,0.2,0,0.2,0c1.2,0.2,2.5,0.5,3.7,0.8c1.1,0.3,2.2,0.5,3.3,0.8c-1.2-0.6-2.5-1.3-3.7-2c-1.2-0.7-2.3-1.4-3.4-2.1
		c-0.5-0.4-1-0.8-0.6-1.6c0.2-0.3,0.4-0.5,0.6-0.5c0.4-0.2,0.7-0.1,1,0c1.3,0.3,2.6,0.8,3.8,1.3c1,0.4,2,0.8,3,1.2
		c-1.1-0.8-2.1-1.5-3.1-2.3c-1.1-0.8-2.2-1.7-3.3-2.7c-0.4-0.4-0.8-0.9-0.4-1.6c0.3-0.4,0.8-0.6,1.2-0.4c0.1,0,0.1,0,0.2,0.1
		c0.1,0,0.1,0.1,0.2,0.1c1.3,0.5,2.6,1.2,3.8,1.8c0.9,0.5,1.8,1,2.7,1.5c-0.9-0.8-1.7-1.6-2.5-2.5c-1-1-2-2.1-2.9-3.2
		c-0.4-0.5-0.7-1-0.1-1.6c0.4-0.5,1-0.4,1-0.4c0.1,0,0.2,0.1,0.3,0.1c0.1,0,0.1,0,0.2,0.1c0.1,0,0.1,0.1,0.2,0.1
		c1.2,0.7,2.5,1.6,3.6,2.4c1.1,0.8,2.2,1.7,3.3,2.5c-0.8-1.1-1.6-2.1-2.4-3.2c-0.9-1.2-1.8-2.5-2.5-3.8c-0.1-0.1-0.1-0.2-0.2-0.3
		c-0.2-0.5-0.2-1,0.2-1.4c0.5-0.4,1-0.3,1.4,0c0.1,0.1,0.2,0.1,0.2,0.2c1.2,0.9,2.3,2,3.3,3c0.9,0.9,1.8,1.8,2.7,2.8
		c-0.6-1.1-1.3-2.3-1.9-3.5c-0.6-1.2-1.3-2.5-1.8-3.9c0-0.1-0.1-0.2-0.1-0.3c0-0.1,0-0.1-0.1-0.2c0,0,0-0.1,0-0.3c0,0,0-0.6,0.5-0.9
		c0.7-0.5,1.2,0,1.6,0.4c1,1,1.9,2.2,2.7,3.4c0.7,0.9,1.3,1.9,2,2.8c-0.4-1-0.7-1.9-1.1-2.9c-0.4-1.3-0.9-2.7-1.2-4
		c0-0.1-0.1-0.2-0.1-0.3c0-0.1,0-0.1,0-0.2c0-0.5,0.3-0.9,0.7-1c0.9-0.3,1.2,0.3,1.5,0.8c0.8,1.1,1.5,2.4,2.1,3.6
		c0.6,1.1,1.2,2.2,1.7,3.3c-0.3-1.1-0.5-2.1-0.7-3.2c-0.3-1.3-0.5-2.6-0.7-4c0-0.1,0-0.2,0-0.3c0-0.1,0-0.1,0-0.2
		c0-0.5,0.3-0.9,0.8-1c0.8-0.2,1.2,0.3,1.4,0.9c0.6,1.2,1.1,2.5,1.6,3.7c0.5,1.3,1,2.6,1.4,3.9c-0.1-1.1-0.2-2.2-0.3-3.3
		c-0.1-1.2-0.2-2.5-0.2-3.7c0-0.1,0-0.2,0-0.3c0-0.5,0.3-1,0.9-1.1c0.8-0.1,1.1,0.4,1.3,1c0.5,1.2,0.8,2.5,1.1,3.7
		c0.4,1.5,0.7,3,1,4.5c0,0,0,0,0,0c0.1-1.1,0.1-2.3,0.2-3.5c0.1-1.1,0.1-2.3,0.3-3.5c0-0.1,0-0.2,0-0.3c0.1-0.5,0.4-1,1-1
		c0.6,0,1,0.3,1.1,0.9c0,0.1,0,0.1,0.1,0.2c0.4,1.2,0.6,2.4,0.7,3.6c0.2,1.4,0.3,2.8,0.4,4.3c0,0.6,0.1,1.2,0.1,1.7
		c0.3-1.3,0.7-2.6,1-3.9c0.3-1,0.5-2.1,0.9-3.1c0-0.1,0.1-0.2,0.1-0.2c0.2-0.5,0.6-0.8,1.2-0.7c0.6,0.1,0.9,0.5,1,1
		c0,0.1,0,0.1,0,0.2c0.1,1.1,0.1,2.3,0.1,3.4c-0.1,1.3-0.2,2.6-0.4,3.9c0,0.2,0,0.3-0.1,0.5c0.4-0.8,0.7-1.5,1.1-2.3
		c0.4-0.8,0.8-1.6,1.2-2.4c0.3-0.5,0.7-1,1.4-0.7c0.5,0.2,0.8,0.6,0.8,1.1c0,0.1,0,0.1,0,0.2c0.1,1.1-0.2,2.3-0.4,3.3
		c-0.3,1.3-0.7,2.6-1.1,3.9c0,0.1,0,0.2-0.1,0.2c0.5-0.6,0.9-1.2,1.4-1.8c0.5-0.6,1-1.2,1.5-1.8c0.4-0.4,0.8-0.7,1.4-0.4
		c0.4,0.2,0.7,0.7,0.6,1.1c0,0.1,0,0.2,0,0.2c-0.2,1.8-1.3,4.2-2.2,5.8c-0.3,0.6-0.6,1.1-0.9,1.7c0.7-0.5,1.4-1.1,2.1-1.6
		c0.5-0.4,1-0.9,1.5-1.2c0.4-0.3,0.9-0.4,1.4-0.1c0.4,0.2,0.5,0.6,0.5,1.1c0,0.1,0,0.1,0,0.2c-0.2,1.5-2,3.8-3.9,5.9l3-1.1l0.1,0
		c0.1,0,0.1,0,0.2,0c0.4-0.1,0.9,0.1,1.2,0.5c0.4,0.5,0.2,1-0.1,1.4c-3.3,4.8-8.7,6.7-14.3,6.4c-0.4,0-0.8,0-1.3,0.1l10.1,11.1
		c0.3,0.4,0.6,0.7,0.4,1.3c-0.2,0.5-0.4,0.6-0.8,0.8c-0.3,0.1-0.5,0.3-0.6,0.5c-0.2,0.4-0.5,0.7-1,0.7c-0.6,0-0.8-0.3-1.1-0.7
		l-9.3-11.6c-0.2,0.4-0.3,0.9-0.3,1.2c-0.7,5.5-3.5,10.4-8.5,13.1c-0.5,0.3-1,0.4-1.5-0.1c-0.3-0.3-0.4-0.8-0.3-1.2
		c0-0.1,0.1-0.1,0.1-0.2l0-0.1l1.5-2.6c-2.3,1.5-4.8,2.9-6.3,2.9c-0.1,0-0.1,0-0.2,0c-0.4,0-0.8-0.2-1-0.6c-0.3-0.5-0.1-1,0.3-1.4
		c0.4-0.5,1-0.9,1.4-1.3c0.7-0.6,1.3-1.2,1.9-1.8c-0.6,0.2-1.2,0.4-1.8,0.6c-1.7,0.6-4.2,1.4-6.1,1.3c-0.1,0-0.1,0-0.2,0
		c-0.5,0-0.9-0.3-1-0.8c-0.2-0.6,0.2-1,0.6-1.4c0.6-0.5,1.3-0.9,2-1.2c0.7-0.4,1.3-0.8,2-1.1c-0.1,0-0.2,0-0.3,0
		c-1.3,0.2-2.7,0.4-4.1,0.4c-1.1,0.1-2.3,0.1-3.4-0.1c-0.1,0-0.2,0-0.3-0.1c-0.5-0.1-0.9-0.5-0.9-1c0-0.5,0.3-0.9,0.8-1.1
		c0.1,0,0.2-0.1,0.2-0.1c0.8-0.3,1.7-0.6,2.6-0.8C75.6,148.2,76.4,147.9,77.2,147.7L77.2,147.7z M96.1,147c-0.7,5.1-3.2,9.7-8,12.3
		c-0.3,0.2-0.3,0.2-0.2-0.2l3.4-6.2c0-0.1-0.1-0.1-0.3-0.1c-2.3,1.6-7.1,5.1-9,5c-0.3,0-0.3,0-0.1-0.2c0.6-0.7,4.6-4,6-5.9
		c0-0.2-0.1-0.3-0.4-0.2c-2.5,1-8.1,3.3-10.8,3.2c-0.4,0-0.4,0-0.1-0.2c1.5-1.1,6.4-3.6,8.6-4.9c0.1-0.1,0-0.2-0.2-0.2l0,0
		c-3.6,0.6-9.8,1.8-12.5,1.2c-0.4-0.1-0.4-0.1,0-0.2c2.2-0.8,8.1-2.3,10.9-3.3c0.1-0.1,0.1-0.2-0.1-0.3c-3.5-0.1-10.3,0.1-13.6-0.8
		c-0.4-0.1-0.4-0.1,0-0.2c1.8-0.3,6.4-0.6,10.2-1.1c0.9-0.1,1.8-0.2,2.6-0.4c0.2-0.1,0.3-0.3-0.1-0.4c-3.9-0.8-11.2-2.1-14.6-3.7
		c-0.3-0.1-0.4-0.1,0-0.1c3.2,0.2,10.5,1,14.5,1.2c0.2-0.1,0.3-0.2,0-0.3c-4-1.4-11.4-3.7-14.8-5.7c-0.3-0.2-0.4-0.2,0-0.1
		c3.5,0.6,11,2.7,15.2,3.7c0.2,0,0.3-0.1,0.1-0.3c-4-2.1-11.4-5.6-14.6-8c-0.2-0.1-0.3-0.2-0.2-0.2c0,0,0.1,0,0.3,0.1
		c3.6,1,11.1,4.2,15.2,6.1c0.2,0,0.2-0.1,0.1-0.2c-3.8-2.8-10.9-7.5-13.8-10.3c-0.3-0.3-0.2-0.2,0.1-0.1c3.6,1.4,10.7,5.7,14.7,8.3
		c0.2,0.1,0.3,0,0.1-0.2c-3.6-3.4-10-9-12.5-12.2c-0.2-0.3-0.2-0.3,0.1-0.1c3.5,2,10.1,7.6,13.9,10.7c0.2,0,0.2,0,0.2-0.2
		c-3.4-4.1-9-11-10.6-14.1c-0.3-0.5-0.3-0.4,0.1-0.1c2.9,2.2,8.9,8.7,12.3,12.6c0.1,0,0.1,0,0.1-0.1c-2.4-4-6.9-11.4-8.4-15.3
		c-0.2-0.5-0.2-0.5,0.1-0.1c2.8,3,7.4,10.3,10.1,14.3c0.1,0,0.2,0,0.2-0.1c-2-4.3-5.2-12.1-6-15.9c-0.1-0.6,0-0.3,0.2,0
		c2.2,3.3,5.8,10.9,8,15.1c0.1,0.1,0.1,0,0.2-0.1c-1.2-4.3-3.3-12.2-3.7-15.9c-0.1-0.5-0.1-0.4,0.2,0c1.8,3.5,4.2,11.3,5.6,15.6
		c0.1,0.1,0.2,0.1,0.3,0c-0.4-4.2-1.3-12-1.3-15.5c0-0.4,0-0.3,0.1,0c1.4,3.6,2.6,11.3,3.4,15.4c0.1,0.2,0.2,0.2,0.3,0
		c0.4-4,0.7-11.2,1-14.4c0-0.4,0-0.3,0.1,0c1.1,3.6,1.2,11,1.4,14.9c0.1,0.2,0.2,0.2,0.3,0.1c1.3-3.8,2.7-10.2,3.4-12.4
		c0.1-0.4,0.1-0.3,0.2,0.1c0.5,3.4-0.8,10.1-1.2,13.5c0,0.2,0.1,0.2,0.3,0.2c1.4-2.7,3.8-8.3,5-10.4c0.2-0.4,0.2-0.2,0.2,0.1
		c0.2,2.7-2,8.7-3.1,12c0,0.2,0,0.3,0.2,0.3c1.7-1.9,4.9-6.4,6.2-7.7c0.2-0.2,0.2-0.3,0.2,0.1c-0.3,2.8-3.4,7.9-4.8,10.2
		c-0.1,0.3,0,0.4,0.2,0.4c2.1-1,6-4.5,6.8-5c0.3-0.2,0.2-0.1,0.2,0.2c-0.2,1.8-4.3,6-6.3,8.1c-0.2,0.2-0.2,0.3,0,0.4l6.7-2.5
		c0.3-0.1,0.3-0.1,0.1,0.2c-3.1,4.5-8.2,6.2-13.4,6c0,0-0.1,0-0.1,0c1.9-0.7,3.9-1.2,5.5-2.5c0.3-0.3,0-0.7-0.3-0.4
		c-1.5,1.3-3.6,1.7-5.4,2.5c1.9-1.5,3.9-3.1,5.1-5.2c0.2-0.4-0.3-0.6-0.5-0.3c-1.3,2.2-3.4,3.9-5.4,5.4c1.9-2.3,3.5-4.7,4.4-7.6
		c0.1-0.4-0.4-0.6-0.5-0.2c-1,2.8-2.5,5.3-4.4,7.5c1.5-2.8,2.5-5.9,3.1-9c0.1-0.4-0.5-0.5-0.5-0.1c-0.5,3-1.5,6.1-3,8.9
		c1-3.2,1.4-6.6,1.4-9.9c0-0.4-0.6-0.4-0.5,0c0.1,3.3-0.3,6.5-1.3,9.6c0.3-3.3,0.1-6.7-0.6-10c-0.1-0.4-0.6-0.3-0.5,0.1
		c0.6,3.2,0.9,6.4,0.6,9.6c-0.2-3.3-1-6.6-2.1-9.8c-0.1-0.4-0.7-0.2-0.5,0.2c1.1,3.2,1.8,6.4,2,9.6c-0.8-3.3-2-6.4-3.4-9.5
		c-0.2-0.4-0.7-0.2-0.5,0.2c1.4,3.2,2.6,6.2,3.4,9.5c-1.4-3.1-3-6.1-4.8-9c-0.2-0.4-0.7-0.1-0.5,0.3c1.9,2.9,3.4,5.9,4.8,8.9
		c-2-2.8-4-5.6-6.1-8.3c-0.3-0.3-0.7,0-0.4,0.3c2.1,2.8,4.1,5.4,6.1,8.3c-2.6-2.4-4.9-4.8-7.3-7.3c-0.3-0.3-0.7,0.1-0.4,0.4
		c2.4,2.5,4.8,5,7.3,7.3c-2.8-1.8-5.6-3.8-8.1-6.1c-0.3-0.3-0.7,0.1-0.4,0.4c2.6,2.3,5.3,4.3,8.2,6.2c-3.2-1.3-6-2.9-8.9-4.8
		c-0.4-0.2-0.7,0.2-0.3,0.5c2.9,1.9,5.8,3.5,8.9,4.8c-3.2-0.7-6.3-1.9-9.2-3.5c-0.4-0.2-0.6,0.3-0.3,0.5c3,1.6,6.1,2.8,9.4,3.5
		c-3.2-0.2-6.4-0.9-9.4-2.1c-0.4-0.1-0.6,0.4-0.2,0.5c3.2,1.2,6.4,1.9,9.8,2.1c-3.2,0.5-6.4,0.4-9.7-0.2c-0.4-0.1-0.5,0.5-0.1,0.5
		c3.3,0.6,6.7,0.7,10,0.2c-3,1-6.2,1.6-9.3,1.6c-0.4,0-0.4,0.6,0,0.5c3.1-0.1,6.4-0.6,9.4-1.6c-2.5,1.5-5.2,2.7-8.1,3.2
		c-0.4,0.1-0.3,0.6,0.1,0.5c2.9-0.5,5.6-1.7,8.2-3.2c-1.8,1.7-3.8,3.6-6.2,4.5c-0.4,0.2-0.2,0.7,0.2,0.5c2.3-0.9,4.2-2.6,5.9-4.2
		c-1,1.7-1.8,3.7-3.3,5c-0.3,0.3,0,0.7,0.4,0.4C94.3,150.6,95.1,148.6,96.1,147C96.1,146.9,96.1,147,96.1,147L96.1,147z M97.8,144.6
		l9.8,12.2c0.2,0.3,0.2,0.4,0.4,0.2c0.3-0.5,0.7-0.8,1.2-1c0.2-0.1,0.3,0,0-0.3L98.6,144C98.1,143.4,97.4,144,97.8,144.6L97.8,144.6
		z"/>
</g>
</svg>
