<?xml version="1.0" encoding="utf-8"?>
<!-- Generator: Adobe Illustrator 26.0.0, SVG Export Plug-In . SVG Version: 6.00 Build 0)  -->
<svg version="1.1" id="Layer_1" xmlns="http://www.w3.org/2000/svg" xmlns:xlink="http://www.w3.org/1999/xlink" x="0px" y="0px"
	 viewBox="0 0 205 58" style="enable-background:new 0 0 205 58;" xml:space="preserve">
<style type="text/css">
	.st0{fill:#F6F7FA;}
</style>
<path class="st0" d="M50.4,0H7.5C3.4,0,0,3.4,0,7.5v43C0,54.6,3.4,58,7.5,58h42.9c4.1,0,7.5-3.4,7.5-7.5v-43C57.9,3.4,54.5,0,50.4,0
	z M13.3,13c1.6,0,2.9,1.3,2.9,2.9c0,1.6-1.3,2.9-2.9,2.9s-2.9-1.3-2.9-2.9C10.4,14.3,11.7,13,13.3,13z M8.6,44.9c-0.1,0-0.2,0-0.3,0
	c-0.9-0.1-1.5-1-1.4-1.9l3-18.1c0.1-0.9,1-1.5,1.9-1.4c0.9,0.1,1.5,1,1.4,1.9l-3,18.1C10.1,44.3,9.4,44.9,8.6,44.9z M16.1,45
	c-1.6,0-2.9-1.3-2.9-2.9c0-1.6,1.3-2.9,2.9-2.9c1.6,0,2.9,1.3,2.9,2.9C19,43.7,17.7,45,16.1,45z M50.6,25.2l-2.9,18.2
	c0,0,0,0.1,0,0.1c-0.1,0.7-0.8,1.3-1.5,1.3h-3.8c-0.9,0-1.7-0.9-1.5-1.8c0.1-0.7,0.9-1.2,1.6-1.2h2.1c0,0,0,0,0,0l2.7-17.1
	c0.2-1.3-0.1-2.5-0.8-3.4c-0.7-0.9-1.8-1.3-3.1-1.3h-1.7c-2.8,0-5.6,2.4-6,5.2l-2.6,16.5c0,0,0,0,0,0h1.7c0.9,0,1.7,0.9,1.5,1.8
	c-0.1,0.7-0.9,1.2-1.6,1.2h-3.6c-0.9,0-1.6-0.7-1.6-1.6v0c0-0.1,0-0.2,0-0.3l2.9-18.2c0.2-1.3,0.6-5.8-0.3-6.9
	c-0.7-0.9-1.8-1.3-3.1-1.3h-1.7c-2.8,0-5.6,2.4-6,5.2l-2,11.5c-0.1,0.9-1,1.5-1.9,1.4c-0.9-0.1-1.5-1-1.4-1.9l2-11.5
	c0.7-4.5,4.8-8,9.3-8h1.6c0,0,0,0,0,0c1.5,0.1,2.7,0.5,3.7,1.1c0,0,1,0.7,1.5,1.2c0,0,0.7,0.8,1,1.2c0.5,0.7,0.7,1.4,0.8,2
	c1.6-1.2,3.6-2,5.7-2h1.7c2.2,0,4.2,0.9,5.6,2.5C50.4,20.8,51,23,50.6,25.2z"/>
<path class="st0" d="M73.4,43.1c-0.3,0-0.5-0.1-0.7-0.3c-0.2-0.2-0.3-0.4-0.3-0.7V15.9c0-0.3,0.1-0.5,0.3-0.7
	c0.2-0.2,0.4-0.3,0.7-0.3h3.8c0.3,0,0.5,0.1,0.7,0.3c0.2,0.2,0.3,0.4,0.3,0.7v26.3c0,0.3-0.1,0.5-0.3,0.7c-0.2,0.2-0.4,0.3-0.7,0.3
	H73.4z M84.9,43.1c-0.3,0-0.5-0.1-0.7-0.3c-0.2-0.2-0.3-0.4-0.3-0.7v-19c0-0.3,0.1-0.5,0.3-0.7c0.2-0.2,0.4-0.3,0.7-0.3h3.3
	c0.3,0,0.5,0.1,0.7,0.3c0.2,0.2,0.3,0.4,0.3,0.7v1.7c1.6-2,3.8-3,6.7-3c2.5,0,4.4,0.8,5.9,2.5c1.4,1.6,2.2,3.8,2.2,6.6v11.3
	c0,0.3-0.1,0.5-0.3,0.7c-0.2,0.2-0.4,0.3-0.7,0.3h-3.5c-0.3,0-0.5-0.1-0.7-0.3s-0.3-0.4-0.3-0.7V31.1c0-1.6-0.4-2.8-1.2-3.7
	c-0.8-0.9-1.9-1.3-3.3-1.3c-1.4,0-2.5,0.4-3.4,1.3c-0.8,0.9-1.2,2.1-1.2,3.7v11.1c0,0.3-0.1,0.5-0.3,0.7c-0.2,0.2-0.4,0.3-0.7,0.3
	H84.9z M118.2,43.1c-2.4,0-4.3-0.6-5.5-1.9c-1.2-1.3-1.8-3.2-1.8-5.6v-9.1h-3.2c-0.3,0-0.5-0.1-0.7-0.3c-0.2-0.2-0.3-0.5-0.3-0.7
	v-2.3c0-0.3,0.1-0.5,0.3-0.7c0.2-0.2,0.4-0.3,0.7-0.3h3.2v-6.7c0-0.3,0.1-0.5,0.3-0.7c0.2-0.2,0.4-0.3,0.7-0.3h3.3
	c0.3,0,0.5,0.1,0.7,0.3c0.2,0.2,0.3,0.4,0.3,0.7v6.7h5c0.3,0,0.5,0.1,0.7,0.3c0.2,0.2,0.3,0.4,0.3,0.7v2.3c0,0.3-0.1,0.5-0.3,0.7
	c-0.2,0.2-0.4,0.3-0.7,0.3h-5v8.7c0,1.2,0.2,2,0.6,2.6c0.4,0.6,1.1,0.9,2,0.9h2.8c0.3,0,0.5,0.1,0.7,0.3c0.2,0.2,0.3,0.4,0.3,0.7
	v2.5c0,0.3-0.1,0.5-0.3,0.7c-0.2,0.2-0.4,0.3-0.7,0.3H118.2z M127,43.1c-0.3,0-0.5-0.1-0.7-0.3c-0.2-0.2-0.3-0.4-0.3-0.7v-19
	c0-0.3,0.1-0.5,0.3-0.7c0.2-0.2,0.4-0.3,0.7-0.3h3.1c0.3,0,0.5,0.1,0.7,0.3c0.2,0.2,0.3,0.4,0.3,0.7v1.4c1.4-1.8,3.3-2.7,5.8-2.7
	c3,0,5.1,1.2,6.2,3.6c0.6-1.1,1.6-1.9,2.7-2.6c1.2-0.7,2.5-1,3.8-1c2.2,0,4,0.8,5.4,2.3c1.4,1.5,2.1,3.7,2.1,6.6v11.6
	c0,0.3-0.1,0.5-0.3,0.7c-0.2,0.2-0.4,0.3-0.7,0.3h-3.3c-0.3,0-0.5-0.1-0.7-0.3c-0.2-0.2-0.3-0.4-0.3-0.7V30.9c0-1.7-0.4-2.9-1.1-3.7
	c-0.7-0.8-1.6-1.2-2.8-1.2c-1,0-1.9,0.4-2.7,1.2c-0.7,0.8-1.1,2-1.1,3.7v11.2c0,0.3-0.1,0.5-0.3,0.7c-0.2,0.2-0.4,0.3-0.7,0.3H140
	c-0.3,0-0.5-0.1-0.7-0.3c-0.2-0.2-0.3-0.4-0.3-0.7V30.9c0-1.7-0.4-2.9-1.1-3.7c-0.7-0.8-1.6-1.2-2.8-1.2c-1.1,0-2,0.4-2.7,1.2
	c-0.7,0.8-1.1,2-1.1,3.7v11.2c0,0.3-0.1,0.5-0.3,0.7s-0.4,0.3-0.7,0.3H127z M171.3,43.5c-3,0-5.3-0.9-7.1-2.6
	c-1.7-1.7-2.7-4.2-2.8-7.3l0-1l0-1c0.1-3.1,1.1-5.5,2.8-7.2c1.8-1.7,4.1-2.6,7.1-2.6c3.2,0,5.6,1,7.3,2.9c1.7,1.9,2.6,4.5,2.6,7.7
	v0.8c0,0.3-0.1,0.5-0.3,0.7c-0.2,0.2-0.4,0.3-0.7,0.3h-13.4v0.3c0.1,1.5,0.5,2.7,1.2,3.7c0.8,1,1.8,1.5,3.2,1.5
	c1.6,0,2.9-0.6,3.8-1.9c0.2-0.3,0.4-0.5,0.6-0.6c0.2-0.1,0.4-0.1,0.7-0.1h3.5c0.2,0,0.4,0.1,0.6,0.2c0.2,0.1,0.3,0.3,0.3,0.5
	c0,0.6-0.4,1.4-1.2,2.3c-0.8,0.9-1.8,1.6-3.3,2.3C174.9,43.2,173.2,43.5,171.3,43.5z M175.8,30.8v-0.1c0-1.6-0.4-2.9-1.2-3.8
	c-0.8-1-1.9-1.4-3.3-1.4c-1.4,0-2.5,0.5-3.3,1.4c-0.8,1-1.2,2.2-1.2,3.8v0.1H175.8z M193.3,43.5c-2.7,0-4.8-0.9-6.2-2.6
	c-1.4-1.7-2.2-4.1-2.3-7l0-1.3l0-1.3c0.1-2.8,0.8-5.1,2.3-6.9c1.5-1.8,3.6-2.7,6.3-2.7c2.6,0,4.7,0.9,6.2,2.7v-8.9
	c0-0.3,0.1-0.5,0.3-0.7c0.2-0.2,0.4-0.3,0.7-0.3h3.4c0.3,0,0.5,0.1,0.7,0.3c0.2,0.2,0.3,0.4,0.3,0.7v26.7c0,0.3-0.1,0.5-0.3,0.7
	c-0.2,0.2-0.4,0.3-0.7,0.3h-3.2c-0.3,0-0.5-0.1-0.7-0.3c-0.2-0.2-0.3-0.4-0.3-0.7v-1.5C198.2,42.5,196.1,43.5,193.3,43.5z
	 M194.8,39.2c1.6,0,2.7-0.5,3.5-1.5c0.8-1,1.2-2.2,1.2-3.7c0-0.3,0-0.8,0-1.6c0-0.7,0-1.2,0-1.5c-0.1-1.3-0.5-2.5-1.3-3.4
	c-0.8-1-1.9-1.5-3.4-1.5c-2.9,0-4.4,1.8-4.6,5.4l0,1.2l0,1.2C190.4,37.4,191.9,39.2,194.8,39.2z"/>
</svg>
