<?xml version="1.0" encoding="utf-8"?>
<!-- Generator: Adobe Illustrator 25.3.1, SVG Export Plug-In . SVG Version: 6.00 Build 0)  -->
<svg version="1.1" id="Camada_1" xmlns="http://www.w3.org/2000/svg" xmlns:xlink="http://www.w3.org/1999/xlink" x="0px" y="0px"
	 viewBox="0 0 89.2 49.2" style="enable-background:new 0 0 89.2 49.2;" xml:space="preserve">
<style type="text/css">
	.st0{fill:#FFFFFF;}
</style>
<path class="st0" d="M79,9.9"/>
<g>
	<path class="st0" d="M58.2,1.8c4.9,0,8.8,3.9,8.8,8.8v11.9c0,4.9-3.9,8.8-8.8,8.8H1.8V10.9c0-2.4,0.9-4.7,2.6-6.4
		C6,2.8,8.3,1.8,10.6,1.8H58.2 M58.2,0H10.6C4.7,0.1,0,5,0,10.9v22.2h58.2c5.9,0,10.6-4.8,10.6-10.6V10.6C68.8,4.8,64.1,0,58.2,0z"
		/>
	<path class="st0" d="M19.3,12.9c-0.7-0.8-3-1.1-3.5-0.3c-0.4,0.7,0.3,1.1,2,1.4c1.6,0.3,3.6,0.7,5.4,1c4.5,0.9,4.7,6,2.2,8.1
		c-2.5,2.2-10.3,1.9-13,0.9c-1.7-0.6-3-2.1-3.3-3.9c0-0.3,0.1-0.6,0.4-0.6c0.1,0,0.1,0,0.2,0c0.5,0,4.6,0.2,5.7,0.2
		c0.9,0,0.9,0.2,1.1,0.3c0.2,0.3,0.6,0.6,1,0.7c1.8,0.4,2.9,0,2.8-0.9c-0.1-1-1.5-0.9-4.6-1.2c-4.2-0.4-6.6-2-6.6-4.8
		c0-3.3,1.9-5.3,8.4-5.4c7-0.1,8.9,3,9.3,4.5c0.2,0.6-0.2,0.7-0.6,0.7s-5.2-0.3-5.9-0.3S19.3,12.9,19.3,12.9"/>
	<path class="st0" d="M30.2,12.3h3.7c0.4,0,0.8,0.3,0.8,0.8v11c0,0.4-0.3,0.8-0.8,0.8h-3.7c-0.4,0-0.8-0.3-0.8-0.8V13
		C29.5,12.6,29.8,12.3,30.2,12.3z"/>
	<path class="st0" d="M58.9,8.4h-6.8c-0.7,0-1,0-1.3,0.7c-0.2,0.6-2,6.6-2.4,7.7c-0.4-1.1-2.2-7.1-2.4-7.7c-0.2-0.7-0.5-0.7-1.3-0.7
		h-6.8c-0.4,0-0.8,0.3-0.8,0.8l0,0.2l0,0V24c0,0.4,0.3,0.8,0.8,0.8c0,0,0,0,0,0h3.6c0.4,0,0.8-0.3,0.8-0.8c0,0,0,0,0,0v-9.5
		c0.8,2.3,3.3,9.1,3.5,9.5c0.3,0.6,0.6,0.8,1.1,0.8h2.9c0.6,0,0.9,0,1.2-0.8c0.2-0.6,2.4-6.2,3.5-9.5V24c0,0.4,0.3,0.8,0.8,0.8
		c0,0,0,0,0,0h3.6c0.4,0,0.8-0.3,0.8-0.8c0,0,0,0,0,0V9.1C59.7,8.7,59.3,8.4,58.9,8.4z"/>
	<path class="st0" d="M85,16.8c-2.3,0-4.2-1.9-4.2-4.2c0-2.3,1.9-4.2,4.2-4.2c2.3,0,4.2,1.9,4.2,4.2c0,0,0,0,0,0
		C89.2,14.9,87.3,16.8,85,16.8z M85,9.6c-1.6,0-2.9,1.3-2.9,2.9s1.3,2.9,2.9,2.9s2.9-1.3,2.9-2.9v0C87.9,11,86.6,9.6,85,9.6z"/>
	<path class="st0" d="M76.7,16.8c-2.3,0-4.2-1.9-4.2-4.2c0-2.3,1.9-4.2,4.2-4.2c1,0,2,0.4,2.7,1c0.3,0.2,0.3,0.6,0.1,0.9
		c-0.2,0.3-0.6,0.3-0.9,0.1c-1.2-1.1-3.1-0.9-4.2,0.3c-1.1,1.2-0.9,3.1,0.3,4.2c1.1,0.9,2.7,0.9,3.8,0c0.3-0.2,0.7-0.2,0.9,0.1
		c0.2,0.3,0.2,0.7-0.1,0.9C78.6,16.4,77.7,16.8,76.7,16.8z"/>
	<path class="st0" d="M5.5,42.5C5.9,42.9,6,43.5,6,44v2.9c0,0.2-0.1,0.3-0.3,0.3S5.4,47,5.4,46.8l0,0V44c0-0.4-0.1-0.8-0.3-1.1
		c-0.2-0.3-0.6-0.4-1-0.4c-0.3,0-0.6,0.1-0.8,0.2C3,42.8,2.8,43,2.7,43.2c-0.2,0.2-0.2,0.5-0.2,0.7v2.9c0,0.2-0.1,0.3-0.3,0.3
		S1.8,47,1.8,46.8l0,0V40c0-0.2,0.1-0.3,0.3-0.3s0.3,0.1,0.3,0.3v3c0.2-0.3,0.5-0.5,0.8-0.7c0.3-0.2,0.6-0.3,1-0.3
		C4.7,41.9,5.2,42.1,5.5,42.5z"/>
	<path class="st0" d="M11.6,44.5c-0.1,0.1-0.1,0.1-0.2,0.1H7.6c0,0.4,0.1,0.7,0.2,1.1C8,46,8.2,46.2,8.5,46.4
		c0.3,0.2,0.7,0.3,1.1,0.3c0.3,0,0.6-0.1,0.9-0.2c0.2-0.1,0.5-0.3,0.6-0.5c0.1-0.1,0.1-0.1,0.2-0.1c0.1,0,0.3,0.1,0.3,0.3
		c0,0.1,0,0.2-0.1,0.2c-0.2,0.3-0.5,0.5-0.8,0.6c-0.3,0.2-0.7,0.3-1,0.3c-0.5,0-1-0.1-1.4-0.3c-0.4-0.2-0.7-0.5-0.9-0.9
		C7.1,45.6,7,45.1,7,44.6c0-0.5,0.1-1,0.3-1.5c0.2-0.4,0.5-0.7,0.9-1c0.4-0.2,0.8-0.3,1.2-0.3c0.4,0,0.8,0.1,1.1,0.3
		c0.4,0.2,0.7,0.5,0.9,0.8c0.2,0.4,0.3,0.8,0.3,1.3C11.7,44.3,11.7,44.4,11.6,44.5z M8.3,42.9c-0.3,0.3-0.6,0.7-0.6,1.2h3.4v-0.1
		c0-0.3-0.1-0.6-0.3-0.8c-0.2-0.2-0.4-0.4-0.6-0.5c-0.2-0.1-0.5-0.2-0.8-0.2C8.9,42.4,8.6,42.6,8.3,42.9z"/>
	<path class="st0" d="M17.1,42.1c0.1,0.1,0.1,0.1,0.1,0.2v4.5c0,0.2-0.1,0.3-0.3,0.3c-0.2,0-0.3-0.1-0.3-0.3v-0.7
		c-0.2,0.3-0.4,0.6-0.8,0.8c-0.3,0.2-0.7,0.3-1.1,0.3c-0.4,0-0.9-0.1-1.2-0.4c-0.4-0.2-0.7-0.6-0.8-1c-0.2-0.4-0.3-0.9-0.3-1.4
		c0-0.5,0.1-1,0.3-1.4c0.2-0.4,0.5-0.7,0.9-1c0.7-0.4,1.6-0.5,2.3-0.1c0.3,0.2,0.6,0.4,0.8,0.8v-0.6c0-0.1,0-0.2,0.1-0.2
		C16.8,42,17,42,17.1,42.1C17.1,42.1,17.1,42.1,17.1,42.1L17.1,42.1z M15.8,46.4c0.3-0.2,0.5-0.5,0.7-0.8c0.2-0.3,0.2-0.7,0.2-1.1
		c0-0.4-0.1-0.7-0.2-1.1c-0.1-0.3-0.4-0.6-0.7-0.8c-0.3-0.2-0.6-0.3-0.9-0.3c-0.3,0-0.7,0.1-0.9,0.3c-0.3,0.2-0.5,0.4-0.7,0.8
		c-0.2,0.3-0.2,0.7-0.2,1.1c0,0.4,0.1,0.8,0.2,1.1c0.1,0.3,0.4,0.6,0.7,0.8c0.3,0.2,0.6,0.3,1,0.3C15.2,46.7,15.5,46.6,15.8,46.4z"
		/>
	<path class="st0" d="M19.1,47.1c-0.1,0.1-0.3,0.1-0.4,0c-0.1-0.1-0.1-0.1-0.1-0.2V40c0-0.2,0.1-0.3,0.3-0.3c0.2,0,0.3,0.1,0.3,0.3
		v6.9C19.2,46.9,19.2,47,19.1,47.1z"/>
	<path class="st0" d="M21.6,42.6V46c0,0.2,0,0.4,0.1,0.5c0.1,0.1,0.2,0.1,0.4,0.1c0.1,0,0.1,0,0.2,0c0,0,0.1,0,0.1,0
		c0.1,0,0.1,0,0.2,0.1c0,0,0.1,0.1,0.1,0.2c0,0.1-0.1,0.2-0.2,0.2c-0.1,0.1-0.2,0.1-0.4,0.1c-0.2,0-0.3,0-0.5-0.1
		c-0.2-0.1-0.3-0.2-0.4-0.3C21.1,46.6,21,46.3,21,46v-3.4h-0.7c-0.1,0-0.2,0-0.2-0.1c-0.1-0.1-0.1-0.3,0-0.4c0,0,0,0,0,0
		c0.1-0.1,0.1-0.1,0.2-0.1H21v-1.1c0-0.2,0.1-0.3,0.3-0.3c0.2,0,0.3,0.1,0.3,0.3V42h1c0.1,0,0.1,0,0.2,0.1c0.1,0.1,0.1,0.1,0.1,0.2
		c0,0.1,0,0.1-0.1,0.2c-0.1,0-0.1,0.1-0.2,0.1L21.6,42.6z"/>
	<path class="st0" d="M27.5,42.5c0.3,0.4,0.5,0.9,0.4,1.5v2.9c0,0.2-0.1,0.3-0.3,0.3c-0.2,0-0.3-0.1-0.3-0.3l0,0V44
		c0-0.4-0.1-0.8-0.3-1.1c-0.2-0.3-0.6-0.4-1-0.4c-0.3,0-0.6,0.1-0.8,0.2c-0.2,0.1-0.5,0.3-0.6,0.5c-0.2,0.2-0.2,0.5-0.2,0.7v2.9
		c0,0.2-0.1,0.3-0.3,0.3c-0.2,0-0.3-0.1-0.3-0.3V40c0-0.2,0.1-0.3,0.3-0.3c0.2,0,0.3,0.1,0.3,0.3l0,0v3c0.2-0.3,0.5-0.5,0.8-0.7
		c0.3-0.2,0.6-0.3,1-0.3C26.7,41.9,27.2,42.1,27.5,42.5z"/>
	<path class="st0" d="M32.4,42c0.2,0.1,0.5,0.2,0.7,0.3c0.1,0.1,0.2,0.2,0.2,0.4c0,0.1,0,0.1-0.1,0.2c0,0.1-0.1,0.1-0.2,0.1
		c-0.1,0-0.1,0-0.2,0c-0.1,0-0.1-0.1-0.1-0.1c-0.1-0.1-0.2-0.1-0.3-0.2c-0.1-0.1-0.3-0.1-0.4-0.1c-0.2,0-0.4,0-0.5,0
		c-0.4,0-0.7,0.1-1,0.3c-0.3,0.2-0.6,0.5-0.7,0.8c-0.2,0.3-0.3,0.7-0.3,1.1c0,0.4,0.1,0.8,0.3,1.1c0.3,0.7,1,1.1,1.7,1
		c0.4,0,0.7-0.1,1-0.2c0.1-0.1,0.2-0.1,0.2-0.2c0,0,0.1-0.1,0.1-0.1c0.1-0.1,0.2,0,0.3,0c0,0.1,0.1,0.1,0.1,0.2
		c0,0.2-0.1,0.3-0.2,0.4c-0.2,0.2-0.4,0.3-0.7,0.3c-0.3,0.1-0.6,0.1-0.9,0.1c-0.5,0-0.9-0.1-1.3-0.3c-0.4-0.2-0.7-0.6-0.9-1
		c-0.2-0.4-0.3-0.9-0.3-1.4c0-0.5,0.1-0.9,0.3-1.3c0.4-0.8,1.3-1.4,2.3-1.3C31.8,41.9,32.1,41.9,32.4,42z"/>
	<path class="st0" d="M38.6,42.1c0.1,0.1,0.1,0.1,0.1,0.2v4.5c0,0.2-0.1,0.3-0.3,0.3c-0.1,0-0.2,0-0.2-0.1c-0.1-0.1-0.1-0.1-0.1-0.2
		v-0.7c-0.2,0.3-0.4,0.6-0.8,0.8c-0.3,0.2-0.7,0.3-1.1,0.3c-0.4,0-0.9-0.1-1.2-0.4c-0.4-0.2-0.7-0.6-0.8-1c-0.2-0.4-0.3-0.9-0.3-1.4
		c0-0.5,0.1-1,0.3-1.4c0.2-0.4,0.5-0.7,0.9-1c0.7-0.4,1.6-0.5,2.3-0.1c0.3,0.2,0.6,0.4,0.8,0.8v-0.6c0-0.1,0-0.2,0.1-0.2
		C38.3,42,38.5,41.9,38.6,42.1C38.6,42.1,38.6,42.1,38.6,42.1L38.6,42.1z M37.3,46.4c0.3-0.2,0.5-0.5,0.7-0.8
		c0.2-0.3,0.2-0.7,0.2-1.1c0-0.4-0.1-0.7-0.2-1.1c-0.1-0.3-0.4-0.6-0.7-0.8c-0.3-0.2-0.6-0.3-0.9-0.3c-0.3,0-0.7,0.1-0.9,0.3
		c-0.3,0.2-0.5,0.4-0.7,0.8c-0.2,0.3-0.2,0.7-0.2,1.1c0,0.4,0.1,0.8,0.2,1.1c0.1,0.3,0.4,0.6,0.7,0.8C35.9,46.8,36.7,46.8,37.3,46.4
		L37.3,46.4z"/>
	<path class="st0" d="M42.8,41.9c0.1,0,0.2,0.1,0.2,0.2c0,0.1,0,0.2-0.1,0.2c0,0.1-0.1,0.1-0.2,0.1c-0.1,0-0.1,0-0.2,0
		c-0.1,0-0.2,0-0.3-0.1c-0.3,0-0.5,0.1-0.7,0.3c-0.3,0.2-0.5,0.5-0.6,0.7c-0.2,0.3-0.2,0.6-0.2,0.9v2.5c0,0.2-0.1,0.3-0.3,0.3
		c-0.2,0-0.3-0.1-0.3-0.3v-4.5c0-0.2,0.1-0.3,0.3-0.3c0.2,0,0.3,0.1,0.3,0.3v0.9c0.1-0.4,0.4-0.7,0.7-1c0.3-0.3,0.7-0.4,1.1-0.4
		C42.6,41.9,42.7,41.9,42.8,41.9z"/>
	<path class="st0" d="M47.7,44.5c-0.1,0.1-0.1,0.1-0.2,0.1h-3.8c0,0.4,0.1,0.7,0.2,1.1c0.2,0.3,0.4,0.6,0.7,0.8
		c0.3,0.2,0.7,0.3,1.1,0.3c0.3,0,0.6-0.1,0.9-0.2c0.2-0.1,0.5-0.3,0.6-0.5c0.1-0.1,0.1-0.1,0.2-0.1c0.1,0,0.3,0.1,0.3,0.3
		c0,0.1,0,0.2-0.1,0.2c-0.2,0.3-0.5,0.5-0.8,0.6c-0.3,0.2-0.7,0.3-1,0.3c-0.5,0-1-0.1-1.4-0.3c-0.4-0.2-0.7-0.5-0.9-0.9
		c-0.2-0.4-0.3-0.9-0.3-1.4c0-0.5,0.1-1,0.3-1.5c0.2-0.4,0.5-0.7,0.9-1c0.4-0.2,0.8-0.3,1.2-0.3c0.4,0,0.8,0.1,1.1,0.3
		c0.4,0.2,0.7,0.5,0.9,0.8c0.2,0.4,0.3,0.8,0.3,1.3C47.8,44.3,47.8,44.4,47.7,44.5z M44.4,42.9c-0.3,0.3-0.6,0.7-0.6,1.2h3.4v-0.1
		c0-0.3-0.1-0.6-0.3-0.8c-0.2-0.2-0.4-0.4-0.6-0.5c-0.2-0.1-0.5-0.2-0.8-0.2C45.1,42.4,44.7,42.6,44.4,42.9z"/>
	<path class="st0" d="M55.2,42.3c0.4,0.2,0.7,0.6,0.9,0.9c0.4,0.9,0.4,1.9,0,2.7c-0.2,0.4-0.5,0.7-0.8,0.9c-0.4,0.2-0.8,0.3-1.2,0.3
		c-0.4,0-0.7-0.1-1.1-0.3c-0.3-0.2-0.6-0.4-0.8-0.7v2.7c0,0.2-0.1,0.3-0.3,0.3c-0.2,0-0.3-0.1-0.3-0.3v-6.6c0-0.1,0-0.2,0.1-0.2
		c0.1-0.1,0.3-0.1,0.4,0c0,0,0,0,0,0c0.1,0.1,0.1,0.1,0.1,0.2V43c0.2-0.3,0.4-0.6,0.8-0.7C53.6,41.8,54.5,41.9,55.2,42.3L55.2,42.3z
		 M54.9,46.4c0.3-0.2,0.5-0.4,0.7-0.7c0.2-0.3,0.2-0.7,0.2-1.1c0-0.4-0.1-0.7-0.2-1.1c-0.1-0.3-0.4-0.6-0.7-0.7
		c-0.3-0.2-0.6-0.3-0.9-0.3c-0.3,0-0.7,0.1-1,0.3c-0.3,0.2-0.5,0.4-0.7,0.7c-0.3,0.7-0.3,1.5,0,2.1c0.1,0.3,0.4,0.6,0.7,0.7
		c0.3,0.2,0.6,0.3,1,0.3C54.3,46.7,54.6,46.6,54.9,46.4L54.9,46.4z"/>
	<path class="st0" d="M58,47.1c-0.1,0.1-0.3,0.1-0.4,0c-0.1-0.1-0.1-0.1-0.1-0.2V40c0-0.2,0.1-0.3,0.3-0.3c0.2,0,0.3,0.1,0.3,0.3
		l0,0v6.9C58,46.9,58,47,58,47.1z"/>
	<path class="st0" d="M63.9,42.1c0.1,0.1,0.1,0.1,0.1,0.2v4.5c0,0.2-0.1,0.3-0.3,0.3c-0.1,0-0.2,0-0.2-0.1c-0.1-0.1-0.1-0.1-0.1-0.2
		v-0.7c-0.2,0.3-0.4,0.6-0.8,0.8c-0.3,0.2-0.7,0.3-1.1,0.3c-0.4,0-0.9-0.1-1.2-0.4c-0.4-0.2-0.7-0.6-0.8-1c-0.2-0.4-0.3-0.9-0.3-1.4
		c0-0.5,0.1-1,0.3-1.4c0.2-0.4,0.5-0.7,0.9-1c0.7-0.4,1.6-0.5,2.3-0.1c0.3,0.2,0.6,0.4,0.8,0.8v-0.6c0-0.1,0-0.2,0.1-0.2
		C63.5,42,63.7,41.9,63.9,42.1C63.9,42.1,63.9,42.1,63.9,42.1L63.9,42.1z M62.5,46.4c0.3-0.2,0.5-0.5,0.7-0.8
		c0.2-0.3,0.2-0.7,0.2-1.1c0-0.4-0.1-0.7-0.2-1.1c-0.1-0.3-0.4-0.6-0.7-0.8c-0.3-0.2-0.6-0.3-0.9-0.3c-0.3,0-0.7,0.1-0.9,0.3
		c-0.3,0.2-0.5,0.4-0.7,0.8c-0.2,0.3-0.2,0.7-0.2,1.1c0,0.4,0.1,0.8,0.2,1.1c0.1,0.3,0.4,0.6,0.7,0.8C61.2,46.8,61.9,46.8,62.5,46.4
		L62.5,46.4z"/>
	<path class="st0" d="M66.3,42.6V46c0,0.2,0,0.4,0.1,0.5c0.1,0.1,0.2,0.1,0.4,0.1c0.1,0,0.1,0,0.2,0c0,0,0.1,0,0.1,0
		c0.1,0,0.1,0,0.2,0.1c0,0,0.1,0.1,0.1,0.2c0,0.1-0.1,0.2-0.2,0.2c-0.1,0.1-0.2,0.1-0.4,0.1c-0.2,0-0.3,0-0.5-0.1
		c-0.2-0.1-0.3-0.2-0.4-0.3c-0.2-0.2-0.2-0.5-0.2-0.8v-3.4h-0.7c-0.1,0-0.2,0-0.2-0.1c-0.1-0.1-0.1-0.3,0-0.4c0,0,0,0,0,0
		c0.1-0.1,0.1-0.1,0.2-0.1h0.7v-1.1c0-0.1,0-0.2,0.1-0.2c0.1-0.1,0.3-0.1,0.4,0c0.1,0.1,0.1,0.1,0.1,0.2V42h1c0.1,0,0.1,0,0.2,0.1
		c0.1,0.1,0.1,0.1,0.1,0.2c0,0.1,0,0.1-0.1,0.2c-0.1,0-0.1,0.1-0.2,0.1L66.3,42.6z"/>
	<path class="st0" d="M69.5,40.5c0.1-0.1,0.3-0.2,0.5-0.2c0.1,0,0.2,0,0.4,0.1c0.1,0,0.1,0,0.2,0.1c0.1,0,0.1,0,0.2-0.1
		c0.1-0.1,0.1-0.1,0.1-0.2c0-0.1-0.1-0.2-0.2-0.3c-0.2-0.1-0.3-0.1-0.5-0.1c-0.4,0-0.7,0.1-1,0.3c-0.3,0.3-0.4,0.6-0.4,1v5.8
		c0,0.2,0.1,0.3,0.3,0.3c0.2,0,0.3-0.1,0.3-0.3v-4.2h1.1c0.1,0,0.1,0,0.2-0.1c0.1-0.1,0.1-0.3,0-0.4c0,0,0,0,0,0
		c-0.1-0.1-0.1-0.1-0.2-0.1h-1.1v-1C69.3,40.8,69.4,40.6,69.5,40.5z"/>
	<path class="st0" d="M76,45.9c-0.2,0.4-0.5,0.7-0.9,1c-0.8,0.5-1.8,0.5-2.6,0c-0.4-0.2-0.7-0.6-0.9-1c-0.4-0.9-0.4-1.9,0-2.8
		c0.4-0.8,1.3-1.3,2.2-1.3c0.9,0,1.8,0.5,2.2,1.3C76.4,44,76.4,45.1,76,45.9z M75.4,43.5c-0.2-0.3-0.4-0.6-0.7-0.8
		c-0.3-0.2-0.6-0.3-1-0.3c-0.3,0-0.7,0.1-1,0.3c-0.3,0.2-0.5,0.5-0.7,0.8c-0.2,0.3-0.3,0.7-0.3,1.1c0,0.4,0.1,0.7,0.3,1.1
		c0.2,0.3,0.4,0.6,0.7,0.8c0.3,0.2,0.6,0.3,1,0.3c0.7,0,1.4-0.4,1.7-1C75.8,45,75.8,44.2,75.4,43.5z"/>
	<path class="st0" d="M80.1,41.9c0.1,0,0.2,0.1,0.2,0.2c0,0.1,0,0.2-0.1,0.2c0,0.1-0.1,0.1-0.2,0.1c-0.1,0-0.1,0-0.2,0
		c-0.1,0-0.2,0-0.3-0.1c-0.3,0-0.5,0.1-0.7,0.3c-0.3,0.2-0.5,0.5-0.6,0.7c-0.2,0.3-0.2,0.6-0.2,0.9v2.5c0,0.2-0.1,0.3-0.3,0.3
		c-0.2,0-0.3-0.1-0.3-0.3v-4.5c0-0.2,0.1-0.3,0.3-0.3c0.2,0,0.3,0.1,0.3,0.3l0,0v0.9c0.1-0.4,0.4-0.7,0.7-1c0.3-0.3,0.7-0.4,1.1-0.4
		C79.8,41.9,79.9,41.9,80.1,41.9z"/>
	<path class="st0" d="M88.1,42.5c0.3,0.4,0.5,1,0.4,1.5v2.9c0,0.2-0.1,0.3-0.3,0.3c-0.2,0-0.3-0.1-0.3-0.3V44c0-0.4-0.1-0.8-0.3-1.1
		c-0.2-0.3-0.6-0.4-1-0.4c-0.6,0-1.1,0.3-1.4,0.8C85.1,43.5,85,43.7,85,44v2.8c0,0.1,0,0.2-0.1,0.2c-0.1,0.1-0.3,0.1-0.4,0
		c-0.1-0.1-0.1-0.1-0.1-0.2V44c0-0.4-0.1-0.8-0.3-1.1c-0.2-0.3-0.6-0.4-0.9-0.4c-0.3,0-0.5,0.1-0.8,0.2c-0.2,0.1-0.4,0.3-0.6,0.5
		c-0.1,0.2-0.2,0.5-0.2,0.7v2.9c0,0.2-0.1,0.3-0.3,0.3c-0.2,0-0.3-0.1-0.3-0.3v-4.5c0-0.2,0.1-0.3,0.3-0.3c0.2,0,0.3,0.1,0.3,0.3
		l0,0v0.6c0.2-0.3,0.4-0.5,0.7-0.7c0.3-0.2,0.6-0.3,1-0.3c0.4,0,0.7,0.1,1,0.3c0.3,0.2,0.5,0.5,0.6,0.8c0.2-0.3,0.4-0.6,0.8-0.8
		c0.3-0.2,0.7-0.3,1.1-0.3C87.3,41.9,87.8,42.1,88.1,42.5z"/>
	<path class="st0" d="M30.2,8.4h3.7c0.4,0,0.7,0.3,0.7,0.7v1.6c0,0.4-0.3,0.7-0.7,0.7h-3.7c-0.4,0-0.7-0.3-0.7-0.7V9.1
		C29.4,8.7,29.8,8.4,30.2,8.4z"/>
</g>
</svg>
