<?xml version="1.0" encoding="utf-8"?>
<!-- Generator: Adobe Illustrator 25.3.1, SVG Export Plug-In . SVG Version: 6.00 Build 0)  -->
<svg version="1.1" id="Group_1282" xmlns="http://www.w3.org/2000/svg" xmlns:xlink="http://www.w3.org/1999/xlink" x="0px" y="0px"
	 viewBox="0 0 42.2 26" style="enable-background:new 0 0 42.2 26;" xml:space="preserve">
<style type="text/css">
	.st0{fill:#FFFFFF;}
</style>
<g>
	<path class="st0" d="M12.3,0c1.2,0,2.4,0.1,3.4,0.3s1.9,0.6,2.6,1.1s1.3,1.2,1.7,2c0.4,0.8,0.6,1.8,0.6,3c0,1.3-0.3,2.4-0.9,3.3
		s-1.5,1.6-2.7,2.1c1.6,0.5,2.8,1.3,3.6,2.4c0.8,1.2,1.2,2.5,1.2,4.2c0,1.3-0.3,2.5-0.8,3.4c-0.5,1-1.2,1.7-2.1,2.4
		c-0.9,0.6-1.8,1.1-3,1.3c-1.1,0.3-2.2,0.4-3.4,0.4H0V0H12.3z M11.5,10.5c1,0,1.9-0.2,2.5-0.7c0.7-0.5,1-1.3,1-2.4
		c0-0.6-0.1-1.1-0.3-1.5S14.2,5.2,13.8,5c-0.4-0.2-0.8-0.4-1.3-0.5s-1-0.1-1.5-0.1H5.7v6.1H11.5z M11.8,21.6c0.6,0,1.1-0.1,1.6-0.2
		s1-0.3,1.3-0.6c0.4-0.3,0.7-0.6,0.9-1s0.3-1,0.3-1.7c0-1.3-0.4-2.3-1.1-2.9c-0.8-0.6-1.8-0.9-3-0.9H5.7v7.2h6.1V21.6z"/>
	<path class="st0" d="M29.9,21c0.8,0.8,1.9,1.1,3.3,1.1c1,0,1.9-0.3,2.7-0.8c0.7-0.5,1.2-1.1,1.4-1.7h4.6c-0.7,2.3-1.8,3.9-3.4,4.9
		c-1.5,1-3.3,1.5-5.4,1.5c-1.5,0-2.8-0.2-4-0.7s-2.2-1.1-3-2s-1.5-1.9-1.9-3.1s-0.7-2.6-0.7-4s0.2-2.7,0.7-3.9s1.1-2.3,2-3.2
		s1.9-1.6,3-2.1c1.2-0.5,2.5-0.8,3.9-0.8c1.6,0,3,0.3,4.2,0.9s2.2,1.4,2.9,2.5c0.8,1,1.3,2.2,1.7,3.6c0.3,1.3,0.5,2.7,0.4,4.2H28.6
		C28.6,18.8,29.1,20.2,29.9,21z M35.9,11.1c-0.6-0.7-1.7-1-2.9-1c-0.8,0-1.5,0.1-2.1,0.4c-0.5,0.3-1,0.6-1.3,1s-0.6,0.9-0.7,1.3
		c-0.1,0.5-0.2,0.9-0.2,1.2H37C36.9,12.8,36.5,11.8,35.9,11.1z"/>
	<rect x="27.6" y="1.3" class="st0" width="10.5" height="2.6"/>
</g>
</svg>
