<svg xmlns:xlink="http://www.w3.org/1999/xlink" xmlns="http://www.w3.org/2000/svg" viewBox="0 0 273.49 310.22" width="273.49"  height="310.22" ><defs><style>.logo__svg{fill:#fff}</style></defs><g id="Layer_2" data-name="Layer 2"><g id="Layer_1-2" data-name="Layer 1"><path class="logo__svg" d="M45.23,225.19c0-21.89,17.8-41.08,39.45-41.16A126.48,126.48,0,0,1,48,147.51,87.29,87.29,0,0,0,0,225.19c0,46.81,38,85,84.81,85V265A39.81,39.81,0,0,1,45.23,225.19Z" fill="#FFFFFF"></path><path class="logo__svg" d="M211.59,189.44a124.9,124.9,0,0,1-59,14.71c-2.53,0-5-.08-7.54-.23l-14.83,14.83V202.14A124.14,124.14,0,0,1,89.3,186.89V310.22h40.93V270.93l10.64-10.64,35.2,49.93h49.73l-55.45-79.4Z" fill="#FFFFFF"></path><path class="logo__svg" d="M133.09,108.79l4.19,2.12,3.79,14.16,9.8-2.63-1.54-5.76,9.39-2.52,1.54,5.76,9.15-2.45-1.54-5.76,9.39-2.52L178.8,115l9.67-2.59-3.79-14.16,2.57-3.93a42.06,42.06,0,1,0-54.15,14.51Zm37.55-35a10.22,10.22,0,1,1-7.23,12.52A10.22,10.22,0,0,1,170.65,73.79Zm-33.43,9A10.22,10.22,0,1,1,130,95.27,10.22,10.22,0,0,1,137.22,82.74Z" fill="#FFFFFF"></path><path class="logo__svg" d="M235.05,77.55a82.94,82.94,0,0,1-82.85,82.85,82,82,0,0,1-51.45-17.91,83.42,83.42,0,0,1-19.27-21.83,57.19,57.19,0,0,0,5.45-2.86A76.81,76.81,0,0,0,229.61,78.17C229.61,35.81,195.23,0,152.67,0A75.68,75.68,0,0,0,98.29,23.33,61,61,0,0,0,54.64,4.71H0V149H40.93V127.28h.65A121.29,121.29,0,0,0,273.49,77.55Zm-96.59-57A52.52,52.52,0,0,1,196.06,100l3.49,13a7,7,0,0,1-5,8.59l-54.17,14.52a7,7,0,0,1-8.59-5l-3.49-13a52.52,52.52,0,0,1,10.13-97.64ZM54.64,86.35H40.93V45.43H54.64a20.46,20.46,0,1,1,0,40.93Z" fill="#FFFFFF"></path><path class="logo__svg logo__mob" d="M141.19,30.69a42,42,0,0,0-8.09,78.1l4.19,2.12,3.79,14.16,9.8-2.63-1.54-5.76,9.39-2.52,1.54,5.76,9.15-2.45-1.54-5.76,9.39-2.52L178.8,115l9.67-2.59-3.79-14.16,2.57-3.93a42,42,0,0,0-46.06-63.59Zm1.33,71.8A10.22,10.22,0,1,1,149.74,90,10.22,10.22,0,0,1,142.51,102.5Zm33.43-9A10.22,10.22,0,1,1,183.17,81,10.22,10.22,0,0,1,175.94,93.54Z" fill="#FFFFFF"></path><path class="logo__svg" d="M189.19,245.5a2.37,2.37,0,1,1,2.39-2.39A2.36,2.36,0,0,1,189.19,245.5Z" fill="#FFFFFF"></path><g class="texts"><path class="logo__svg" d="M208.48,226.94a.61.61,0,0,0,1-.41v-12a.92.92,0,0,1,.92-.92h1.33a.92.92,0,0,1,.92.92v30.09a.92.92,0,0,1-.92.92h-1.33a.92.92,0,0,1-.92-.92v-.64a.64.64,0,0,0-1-.41,10.27,10.27,0,1,1,0-16.58Zm1,8.31a7.1,7.1,0,1,0-7.07,7.07A7.06,7.06,0,0,0,209.49,235.25Z" fill="#FFFFFF"></path><path class="logo__svg" d="M231.82,243.93a.64.64,0,0,0-1-.41A10.27,10.27,0,1,1,224.7,225a10.43,10.43,0,0,1,6.11,2,.61.61,0,0,0,1-.41v-.64a.92.92,0,0,1,.92-.92h1.33a.92.92,0,0,1,.92.92v20.76a10.26,10.26,0,0,1-10.29,10.24,10.37,10.37,0,0,1-8.45-4.46.78.78,0,0,1,.37-1.15l1.15-.64a1.09,1.09,0,0,1,1.29.32,7.25,7.25,0,0,0,5.65,2.76,7.09,7.09,0,0,0,7.12-7.07Zm0-8.36a7.17,7.17,0,0,0-7.12-7.44,7.1,7.1,0,1,0,7.12,7.44Z" fill="#FFFFFF"></path><path class="logo__svg" d="M246.67,225h9.74a.92.92,0,0,1,.92.92v1.33a.92.92,0,0,1-.92.92h-9.74a.92.92,0,0,0-.92.92v9.09a4.21,4.21,0,0,0,4.23,4.18,4.15,4.15,0,0,0,4.09-3.35,1.26,1.26,0,0,1,1-.83h1.33a.79.79,0,0,1,.87.92,7.42,7.42,0,0,1-7.3,6.43,7.34,7.34,0,0,1-7.35-7.35v-9.09a.92.92,0,0,0-.92-.92h-4a.92.92,0,0,1-.92-.92v-1.33a.92.92,0,0,1,.92-.92h4a.92.92,0,0,0,.92-.92v-4a.92.92,0,0,1,.92-.92h1.29a.92.92,0,0,1,.92.92v4A.92.92,0,0,0,246.67,225Z" fill="#FFFFFF"></path><path class="logo__svg" d="M273.28,243.24v1.33a.92.92,0,0,1-.92.92H259.52a.92.92,0,0,1-.92-.92v-1.33a.92.92,0,0,1,.92-.92h4.13a.92.92,0,0,0,.92-.92V217.52a.92.92,0,0,0-.92-.92H260a.92.92,0,0,1-.92-.92v-1.19a.92.92,0,0,1,.92-.92h6.84a.92.92,0,0,1,.92.92v26.92a.92.92,0,0,0,.92.92h3.7A.92.92,0,0,1,273.28,243.24Z" fill="#FFFFFF"></path></g></g></g></svg>