<?xml version="1.0" encoding="utf-8"?>
<!-- Generator: Adobe Illustrator 25.3.1, SVG Export Plug-In . SVG Version: 6.00 Build 0)  -->
<svg version="1.1" id="Camada_1" xmlns="http://www.w3.org/2000/svg" xmlns:xlink="http://www.w3.org/1999/xlink" x="0px" y="0px"
	 viewBox="0 0 793.5 272.8" style="enable-background:new 0 0 793.5 272.8;" xml:space="preserve">
<style type="text/css">
	.st0{fill:#FFFFFF;}
	.st1{fill-rule:evenodd;clip-rule:evenodd;fill:#FFFFFF;}
</style>
<g id="_1025727456">
	<path class="st0" d="M63,218.7c1.7-6.1,4-11.3,6.9-15.5c2.2-3.1,4.9-5.9,7.9-8.4c3.1-2.4,6.3-4.2,9.5-5.5c4.2-1.6,8.9-2.4,14-2.4
		c9.1,0,15.8,2.8,19.9,8.4c4,5.5,4.8,13.2,2.2,23c-2.5,9.8-7.3,17.5-14.2,23c-6.8,5.5-14.9,8.3-24,8.3c-9.2,0-15.9-2.7-19.9-8.2
		S60.5,228.3,63,218.7z M76.1,218.3c-1.8,6.8-1.5,12,0.8,15.6c2.4,3.5,6,5.3,11.1,5.3c5,0,9.6-1.7,13.7-5.3
		c4.2-3.5,7.1-8.8,8.9-15.8c1.8-6.9,1.6-12.1-0.6-15.5c-2.2-3.5-6-5.1-11.2-5.1s-9.8,1.7-13.9,5.2C80.9,206.1,77.9,211.3,76.1,218.3
		z"/>
	<polygon class="st0" points="476.1,249.3 496.9,187.2 511.4,187.1 494.6,237.2 523.9,237.2 520,249.3 	"/>
	<polygon class="st0" points="453.2,249.6 474,187.1 488.7,187.2 467.4,249.6 	"/>
	<path class="st0" d="M400.8,242l5.3-12.7c1.2,2,16.4,13.1,27.6,6.3c2.5-1.5,4-3.5,4.8-5.6c0.5-1.4,0.5-2.6,0-3.6
		c-0.5-0.9-1.7-1.8-3.4-2.5c-1.2-0.5-4.1-1.4-8.6-2.6c-20.7-5.6-13.9-26.2,1.8-32.1c15.1-5.7,25.5-1.2,33.9,3.7l-4,12.6
		c-17.4-15.2-39.6,0.1-22.8,4.8c5.3,1.4,8.9,3.1,11.4,4.2C470.7,225.6,436.2,269.3,400.8,242z"/>
	<path class="st0" d="M401.2,249.4l-15.3-0.1v-12.7l-20.4-0.1l-7.9,13.1h-16.7l42.8-62.6l15,0.1L401.2,249.4z M385.8,224.5l0.9-22.2
		l-13.8,22.2H385.8z"/>
	<path class="st0" d="M251.9,187.6h24.8c4.7,0,8.5,0.3,10.7,0.6c13.5,2.4,12,25.3-8.6,28.2c23.1,4.6,9.6,33-16.2,32.8l-31.3-0.1
		L251.9,187.6z M261.9,198.8l-3.7,12.7l11.8,0.1c11.4,0.1,13.8-11.7,5-12.8c-1.2-0.1-0.7,0-6.3,0H261.9z M254.4,222.1l-4.8,15.8
		l15.1-0.1c13.3,0,13.8-15.4,4.4-15.6L254.4,222.1z"/>
	<polygon class="st0" points="192.9,249.6 209.8,199.7 191.8,199.7 196.6,187.1 246.6,187.1 242.8,199.8 224.5,200.2 207.6,249.6 	
		"/>
	<path class="st0" d="M122.3,249.1l20.6-62.1l25.6-0.1c30-0.1,21.9,33.6-6.3,32.6c4.8,0.1,10.3,7.4,10.4,15.9l0.1,13.4h-14.8v-16.1
		c0-8.2-6.6-10.1-13.8-9.4l-8.1,25.7H122.3z M148.2,212.3h11.4c14,0,15.4-13.3,5-13.7c-0.9-0.1,0.7,0-4.1-0.1l-7.5-0.1L148.2,212.3z
		"/>
	<polygon class="st0" points="0,249.2 20.6,187 65.3,187.1 60.8,199.5 30.7,199.4 26.5,212.9 54.6,212.9 51.3,224.4 22.5,224.2 
		14.4,249.2 	"/>
	<path class="st0" d="M289.9,249.3l20.6-62.1l25.6-0.1c30-0.1,21.8,33.6-6.3,32.6c4.8,0.1,10.3,7.4,10.4,15.9l0.1,13.4h-14.8v-16.2
		c0-8.1-6.6-10-13.8-9.3l-8.1,25.7H289.9z M315.8,212.6h11.4c14,0,15.5-13.4,5-13.7c-0.9-0.1,0.6,0-4.1-0.1l-7.6-0.1L315.8,212.6z"
		/>
	<path class="st1" d="M140.4,18.7c-3.4-0.1-5.3-2.7-5.8-7.6c0.1-6.1,3.6-9.4,10.5-10.2c28.4-1.4,62.8-1.4,103,0
		c38.4,1.2,67.2,2.7,86.3,4.5c80.9,5.5,160.6,16.2,239.2,32.2C624.3,48.3,666,61,698.7,75.9c38.9,15.1,66.7,32.3,83.4,51.7
		c12.2,16.3,14.6,34,7.1,53c-15.6,26.3-37.5,45.4-65.7,57.4c-68.1,32.4-107.3,42.2-117.4,29.4c-4.3-3.5-7.3-10.6-8.9-21
		c-5.5-18.7-16.7-36.4-33.5-53C517.1,141.5,414.3,92.6,255.5,46.8C210.4,34.6,172.1,25.3,140.4,18.7z"/>
</g>
</svg>
