<?xml version="1.0" encoding="utf-8"?>
<!-- Generator: Adobe Illustrator 25.3.1, SVG Export Plug-In . SVG Version: 6.00 Build 0)  -->
<svg version="1.1" id="Camada_1" xmlns="http://www.w3.org/2000/svg" xmlns:xlink="http://www.w3.org/1999/xlink" x="0px" y="0px"
	 viewBox="0 0 103.9 64" style="enable-background:new 0 0 103.9 64;" xml:space="preserve">
<style type="text/css">
	.st0{clip-path:url(#SVGID_2_);}
	.st1{clip-path:url(#SVGID_4_);}
	.st2{clip-path:url(#SVGID_6_);}
	.st3{fill:#414042;}
	.st4{fill:none;stroke:#414042;stroke-width:1.26;stroke-linecap:round;stroke-linejoin:round;}
	.st5{fill:#323232;}
</style>
<g>
	<defs>
		<path id="SVGID_1_" d="M65.6,9.2c4.9,0,8.8,3.9,8.8,8.8v11.9c0,4.9-3.9,8.8-8.8,8.8H9.2V18.2c0-2.4,0.9-4.7,2.6-6.4
			c1.6-1.7,3.9-2.7,6.2-2.7H65.6 M65.6,7.3H18c-5.9,0.1-10.7,5-10.6,10.9v22.2h58.2c5.9,0,10.6-4.8,10.6-10.6V18
			C76.2,12.1,71.4,7.3,65.6,7.3z"/>
	</defs>
	<clipPath id="SVGID_2_">
		<use xlink:href="#SVGID_1_"  style="overflow:visible;"/>
	</clipPath>
	<g class="st0">
		<g>
			<defs>
				<rect id="SVGID_3_" x="6" y="6" width="71.5" height="35.8"/>
			</defs>
			<clipPath id="SVGID_4_">
				<use xlink:href="#SVGID_3_"  style="overflow:visible;"/>
			</clipPath>
			<g class="st1">
				<g>
					<defs>
						<rect id="SVGID_5_" x="6" y="6" width="71.5" height="35.8"/>
					</defs>
					<clipPath id="SVGID_6_">
						<use xlink:href="#SVGID_5_"  style="overflow:visible;"/>
					</clipPath>
					<g class="st2">
						
							<image style="overflow:visible;enable-background:new    ;" width="150" height="76" xlink:href="61C1CE0E.png"  transform="matrix(0.48 0 0 0.48 5.76 5.761)">
						</image>
					</g>
				</g>
			</g>
		</g>
	</g>
</g>
<path class="st3" d="M26.7,20.2c-0.7-0.8-3-1.1-3.5-0.3c-0.4,0.7,0.3,1.1,2,1.4c1.6,0.3,3.6,0.7,5.4,1c4.5,0.9,4.7,6,2.2,8.1
	c-2.5,2.2-10.3,1.9-13,0.9c-1.7-0.6-3-2.1-3.3-3.9c0-0.3,0.1-0.6,0.4-0.6c0.1,0,0.1,0,0.2,0c0.5,0,4.6,0.2,5.7,0.2
	c0.9,0,0.9,0.2,1.1,0.3c0.2,0.3,0.6,0.6,1,0.7c1.8,0.4,2.9,0,2.8-0.9c-0.1-1-1.5-0.9-4.6-1.2c-4.2-0.4-6.6-2-6.6-4.8
	c0-3.3,1.9-5.3,8.4-5.4c7-0.1,8.9,3,9.3,4.5c0.2,0.6-0.2,0.7-0.6,0.7s-5.2-0.3-5.9-0.3S26.7,20.2,26.7,20.2"/>
<path class="st3" d="M37.6,19.6h3.7c0.4,0,0.8,0.3,0.8,0.8v11c0,0.4-0.3,0.8-0.8,0.8h-3.7c-0.4,0-0.8-0.3-0.8-0.8v-11
	C36.8,20,37.2,19.6,37.6,19.6z"/>
<path class="st3" d="M37.5,15.7h3.7c0.4,0,0.7,0.3,0.7,0.7v1.6c0,0.4-0.3,0.7-0.7,0.7h-3.7c-0.4,0-0.7-0.3-0.7-0.7v-1.6
	C36.8,16,37.1,15.7,37.5,15.7z"/>
<path class="st3" d="M66.3,15.7h-6.8c-0.7,0-1,0-1.3,0.7c-0.2,0.6-2,6.6-2.4,7.7c-0.4-1.1-2.2-7.1-2.4-7.7c-0.2-0.7-0.5-0.7-1.3-0.7
	h-6.8c-0.4,0-0.8,0.3-0.8,0.8l0,0.2l0,0v14.7c0,0.4,0.3,0.8,0.8,0.8c0,0,0,0,0,0h3.6c0.4,0,0.8-0.3,0.8-0.8c0,0,0,0,0,0v-9.5
	c0.8,2.3,3.3,9.1,3.5,9.5c0.3,0.6,0.6,0.8,1.1,0.8h2.9c0.6,0,0.9,0,1.2-0.8c0.2-0.6,2.4-6.2,3.5-9.5v9.5c0,0.4,0.3,0.8,0.8,0.8
	c0,0,0,0,0,0h3.6c0.4,0,0.8-0.3,0.8-0.8c0,0,0,0,0,0V16.5C67,16.1,66.7,15.7,66.3,15.7z"/>
<path class="st3" d="M92.3,24.1c-2.3,0-4.2-1.9-4.2-4.2c0-2.3,1.9-4.2,4.2-4.2c2.3,0,4.2,1.9,4.2,4.2c0,0,0,0,0,0
	C96.5,22.2,94.6,24.1,92.3,24.1z M92.3,17c-1.6,0-2.9,1.3-2.9,2.9s1.3,2.9,2.9,2.9s2.9-1.3,2.9-2.9v0C95.3,18.3,93.9,17,92.3,17z"/>
<path class="st4" d="M86.3,17.2"/>
<path class="st3" d="M84,24.1c-2.3,0-4.2-1.9-4.2-4.2c0-2.3,1.9-4.2,4.2-4.2c1,0,2,0.4,2.7,1c0.3,0.2,0.3,0.6,0.1,0.9
	c-0.2,0.3-0.6,0.3-0.9,0.1c-1.2-1.1-3.1-0.9-4.2,0.3c-1.1,1.2-0.9,3.1,0.3,4.2c1.1,0.9,2.7,0.9,3.8,0c0.3-0.2,0.7-0.2,0.9,0.1
	c0.2,0.3,0.2,0.7-0.1,0.9C86,23.8,85,24.1,84,24.1z"/>
<path class="st5" d="M12.9,49.9c0.3,0.4,0.5,0.9,0.4,1.5v2.9c0,0.2-0.1,0.3-0.3,0.3s-0.3-0.1-0.3-0.3l0,0v-2.9
	c0-0.4-0.1-0.8-0.3-1.1c-0.2-0.3-0.6-0.4-1-0.4c-0.3,0-0.6,0.1-0.8,0.2c-0.2,0.1-0.5,0.3-0.6,0.5c-0.2,0.2-0.2,0.5-0.2,0.7v2.9
	c0,0.2-0.1,0.3-0.3,0.3s-0.3-0.1-0.3-0.3l0,0v-6.9c0-0.2,0.1-0.3,0.3-0.3s0.3,0.1,0.3,0.3v3c0.2-0.3,0.5-0.5,0.8-0.7
	c0.3-0.2,0.6-0.3,1-0.3C12.1,49.2,12.6,49.5,12.9,49.9z"/>
<path class="st5" d="M18.9,51.8c-0.1,0.1-0.1,0.1-0.2,0.1h-3.8c0,0.4,0.1,0.7,0.2,1.1c0.2,0.3,0.4,0.6,0.7,0.8
	c0.3,0.2,0.7,0.3,1.1,0.3c0.3,0,0.6-0.1,0.9-0.2c0.2-0.1,0.5-0.3,0.6-0.5c0.1-0.1,0.1-0.1,0.2-0.1c0.1,0,0.3,0.1,0.3,0.3
	c0,0.1,0,0.2-0.1,0.2c-0.2,0.3-0.5,0.5-0.8,0.6c-0.3,0.2-0.7,0.3-1,0.3c-0.5,0-1-0.1-1.4-0.3c-0.4-0.2-0.7-0.5-0.9-0.9
	c-0.2-0.4-0.3-0.9-0.3-1.4c0-0.5,0.1-1,0.3-1.5c0.2-0.4,0.5-0.7,0.9-1c0.4-0.2,0.8-0.3,1.2-0.3c0.4,0,0.8,0.1,1.1,0.3
	c0.4,0.2,0.7,0.5,0.9,0.8c0.2,0.4,0.3,0.8,0.3,1.3C19,51.7,19,51.8,18.9,51.8z M15.6,50.2c-0.3,0.3-0.6,0.7-0.6,1.2h3.4v-0.1
	c0-0.3-0.1-0.6-0.3-0.8c-0.2-0.2-0.4-0.4-0.6-0.5c-0.2-0.1-0.5-0.2-0.8-0.2C16.3,49.8,15.9,49.9,15.6,50.2z"/>
<path class="st5" d="M24.5,49.4c0.1,0.1,0.1,0.1,0.1,0.2v4.5c0,0.2-0.1,0.3-0.3,0.3c-0.2,0-0.3-0.1-0.3-0.3v-0.7
	c-0.2,0.3-0.4,0.6-0.8,0.8c-0.3,0.2-0.7,0.3-1.1,0.3c-0.4,0-0.9-0.1-1.2-0.4c-0.4-0.2-0.7-0.6-0.8-1c-0.2-0.4-0.3-0.9-0.3-1.4
	c0-0.5,0.1-1,0.3-1.4c0.2-0.4,0.5-0.7,0.9-1c0.7-0.4,1.6-0.5,2.3-0.1c0.3,0.2,0.6,0.4,0.8,0.8v-0.6c0-0.1,0-0.2,0.1-0.2
	C24.2,49.3,24.4,49.3,24.5,49.4C24.5,49.4,24.5,49.4,24.5,49.4L24.5,49.4z M23.1,53.7c0.3-0.2,0.5-0.5,0.7-0.8
	c0.2-0.3,0.2-0.7,0.2-1.1c0-0.4-0.1-0.7-0.2-1.1c-0.1-0.3-0.4-0.6-0.7-0.8c-0.3-0.2-0.6-0.3-0.9-0.3c-0.3,0-0.7,0.1-0.9,0.3
	c-0.3,0.2-0.5,0.4-0.7,0.8c-0.2,0.3-0.2,0.7-0.2,1.1c0,0.4,0.1,0.8,0.2,1.1c0.1,0.3,0.4,0.6,0.7,0.8c0.3,0.2,0.6,0.3,1,0.3
	C22.5,54,22.8,53.9,23.1,53.7z"/>
<path class="st5" d="M26.5,54.4c-0.1,0.1-0.3,0.1-0.4,0C26,54.4,26,54.3,26,54.2v-6.9c0-0.2,0.1-0.3,0.3-0.3c0.2,0,0.3,0.1,0.3,0.3
	v6.9C26.6,54.3,26.5,54.3,26.5,54.4z"/>
<path class="st5" d="M29,49.9v3.4c0,0.2,0,0.4,0.1,0.5c0.1,0.1,0.2,0.1,0.4,0.1c0.1,0,0.1,0,0.2,0c0,0,0.1,0,0.1,0
	c0.1,0,0.1,0,0.2,0.1c0,0,0.1,0.1,0.1,0.2c0,0.1-0.1,0.2-0.2,0.2c-0.1,0.1-0.2,0.1-0.4,0.1c-0.2,0-0.3,0-0.5-0.1
	c-0.2-0.1-0.3-0.2-0.4-0.3c-0.2-0.2-0.2-0.5-0.2-0.8v-3.4h-0.7c-0.1,0-0.2,0-0.2-0.1c-0.1-0.1-0.1-0.3,0-0.4c0,0,0,0,0,0
	c0.1-0.1,0.1-0.1,0.2-0.1h0.7v-1.1c0-0.2,0.1-0.3,0.3-0.3c0.2,0,0.3,0.1,0.3,0.3v1.1h1c0.1,0,0.1,0,0.2,0.1c0.1,0.1,0.1,0.1,0.1,0.2
	c0,0.1,0,0.1-0.1,0.2c-0.1,0-0.1,0.1-0.2,0.1L29,49.9z"/>
<path class="st5" d="M34.8,49.9c0.3,0.4,0.5,0.9,0.4,1.5v2.9c0,0.2-0.1,0.3-0.3,0.3c-0.2,0-0.3-0.1-0.3-0.3l0,0v-2.9
	c0-0.4-0.1-0.8-0.3-1.1c-0.2-0.3-0.6-0.4-1-0.4c-0.3,0-0.6,0.1-0.8,0.2c-0.2,0.1-0.5,0.3-0.6,0.5c-0.2,0.2-0.2,0.5-0.2,0.7v2.9
	c0,0.2-0.1,0.3-0.3,0.3c-0.2,0-0.3-0.1-0.3-0.3v-6.9c0-0.2,0.1-0.3,0.3-0.3c0.2,0,0.3,0.1,0.3,0.3l0,0v3c0.2-0.3,0.5-0.5,0.8-0.7
	c0.3-0.2,0.6-0.3,1-0.3C34,49.2,34.5,49.5,34.8,49.9z"/>
<path class="st5" d="M39.7,49.3c0.2,0.1,0.5,0.2,0.7,0.3c0.1,0.1,0.2,0.2,0.2,0.4c0,0.1,0,0.1-0.1,0.2c0,0.1-0.1,0.1-0.2,0.1
	c-0.1,0-0.1,0-0.2,0c-0.1,0-0.1-0.1-0.1-0.1C40,50,39.9,50,39.8,49.9c-0.1-0.1-0.3-0.1-0.4-0.1c-0.2,0-0.4,0-0.5,0
	c-0.4,0-0.7,0.1-1,0.3c-0.3,0.2-0.6,0.5-0.7,0.8c-0.2,0.3-0.3,0.7-0.3,1.1c0,0.4,0.1,0.8,0.3,1.1c0.3,0.7,1,1.1,1.7,1
	c0.4,0,0.7-0.1,1-0.2c0.1-0.1,0.2-0.1,0.2-0.2c0,0,0.1-0.1,0.1-0.1c0.1-0.1,0.2,0,0.3,0c0,0.1,0.1,0.1,0.1,0.2
	c0,0.2-0.1,0.3-0.2,0.4c-0.2,0.2-0.4,0.3-0.7,0.3c-0.3,0.1-0.6,0.1-0.9,0.1c-0.5,0-0.9-0.1-1.3-0.3c-0.4-0.2-0.7-0.6-0.9-1
	c-0.2-0.4-0.3-0.9-0.3-1.4c0-0.5,0.1-0.9,0.3-1.3c0.4-0.8,1.3-1.4,2.3-1.3C39.1,49.2,39.4,49.2,39.7,49.3z"/>
<path class="st5" d="M46,49.4c0.1,0.1,0.1,0.1,0.1,0.2v4.5c0,0.2-0.1,0.3-0.3,0.3c-0.1,0-0.2,0-0.2-0.1c-0.1-0.1-0.1-0.1-0.1-0.2
	v-0.7c-0.2,0.3-0.4,0.6-0.8,0.8c-0.3,0.2-0.7,0.3-1.1,0.3c-0.4,0-0.9-0.1-1.2-0.4c-0.4-0.2-0.7-0.6-0.8-1c-0.2-0.4-0.3-0.9-0.3-1.4
	c0-0.5,0.1-1,0.3-1.4c0.2-0.4,0.5-0.7,0.9-1c0.7-0.4,1.6-0.5,2.3-0.1c0.3,0.2,0.6,0.4,0.8,0.8v-0.6c0-0.1,0-0.2,0.1-0.2
	C45.7,49.3,45.8,49.3,46,49.4C46,49.4,46,49.4,46,49.4L46,49.4z M44.6,53.7c0.3-0.2,0.5-0.5,0.7-0.8c0.2-0.3,0.2-0.7,0.2-1.1
	c0-0.4-0.1-0.7-0.2-1.1c-0.1-0.3-0.4-0.6-0.7-0.8c-0.3-0.2-0.6-0.3-0.9-0.3c-0.3,0-0.7,0.1-0.9,0.3c-0.3,0.2-0.5,0.4-0.7,0.8
	c-0.2,0.3-0.2,0.7-0.2,1.1c0,0.4,0.1,0.8,0.2,1.1c0.1,0.3,0.4,0.6,0.7,0.8C43.3,54.1,44,54.1,44.6,53.7L44.6,53.7z"/>
<path class="st5" d="M50.2,49.3c0.1,0,0.2,0.1,0.2,0.2c0,0.1,0,0.2-0.1,0.2c0,0.1-0.1,0.1-0.2,0.1c-0.1,0-0.1,0-0.2,0
	c-0.1,0-0.2,0-0.3-0.1c-0.3,0-0.5,0.1-0.7,0.3c-0.3,0.2-0.5,0.5-0.6,0.7c-0.2,0.3-0.2,0.6-0.2,0.9v2.5c0,0.2-0.1,0.3-0.3,0.3
	c-0.2,0-0.3-0.1-0.3-0.3v-4.5c0-0.2,0.1-0.3,0.3-0.3c0.2,0,0.3,0.1,0.3,0.3v0.9c0.1-0.4,0.4-0.7,0.7-1c0.3-0.3,0.7-0.4,1.1-0.4
	C49.9,49.2,50.1,49.2,50.2,49.3z"/>
<path class="st5" d="M55.1,51.8c-0.1,0.1-0.1,0.1-0.2,0.1H51c0,0.4,0.1,0.7,0.2,1.1c0.2,0.3,0.4,0.6,0.7,0.8
	c0.3,0.2,0.7,0.3,1.1,0.3c0.3,0,0.6-0.1,0.9-0.2c0.2-0.1,0.5-0.3,0.6-0.5c0.1-0.1,0.1-0.1,0.2-0.1c0.1,0,0.3,0.1,0.3,0.3
	c0,0.1,0,0.2-0.1,0.2c-0.2,0.3-0.5,0.5-0.8,0.6c-0.3,0.2-0.7,0.3-1,0.3c-0.5,0-1-0.1-1.4-0.3c-0.4-0.2-0.7-0.5-0.9-0.9
	c-0.2-0.4-0.3-0.9-0.3-1.4c0-0.5,0.1-1,0.3-1.5c0.2-0.4,0.5-0.7,0.9-1c0.4-0.2,0.8-0.3,1.2-0.3c0.4,0,0.8,0.1,1.1,0.3
	c0.4,0.2,0.7,0.5,0.9,0.8c0.2,0.4,0.3,0.8,0.3,1.3C55.2,51.7,55.1,51.8,55.1,51.8z M51.7,50.2c-0.3,0.3-0.6,0.7-0.6,1.2h3.4v-0.1
	c0-0.3-0.1-0.6-0.3-0.8c-0.2-0.2-0.4-0.4-0.6-0.5c-0.2-0.1-0.5-0.2-0.8-0.2C52.4,49.8,52,49.9,51.7,50.2z"/>
<path class="st5" d="M62.6,49.6c0.4,0.2,0.7,0.6,0.9,0.9c0.4,0.9,0.4,1.9,0,2.7c-0.2,0.4-0.5,0.7-0.8,0.9c-0.4,0.2-0.8,0.3-1.2,0.3
	c-0.4,0-0.7-0.1-1.1-0.3c-0.3-0.2-0.6-0.4-0.8-0.7v2.7c0,0.2-0.1,0.3-0.3,0.3c-0.2,0-0.3-0.1-0.3-0.3v-6.6c0-0.1,0-0.2,0.1-0.2
	c0.1-0.1,0.3-0.1,0.4,0c0,0,0,0,0,0c0.1,0.1,0.1,0.1,0.1,0.2v0.7c0.2-0.3,0.4-0.6,0.8-0.7C61,49.2,61.9,49.2,62.6,49.6L62.6,49.6z
	 M62.2,53.7c0.3-0.2,0.5-0.4,0.7-0.7c0.2-0.3,0.2-0.7,0.2-1.1c0-0.4-0.1-0.7-0.2-1.1c-0.1-0.3-0.4-0.6-0.7-0.7
	c-0.3-0.2-0.6-0.3-0.9-0.3c-0.3,0-0.7,0.1-1,0.3c-0.3,0.2-0.5,0.4-0.7,0.7c-0.3,0.7-0.3,1.5,0,2.1c0.1,0.3,0.4,0.6,0.7,0.7
	c0.3,0.2,0.6,0.3,1,0.3C61.6,54,62,53.9,62.2,53.7L62.2,53.7z"/>
<path class="st5" d="M65.3,54.4c-0.1,0.1-0.3,0.1-0.4,0c-0.1-0.1-0.1-0.1-0.1-0.2v-6.9c0-0.2,0.1-0.3,0.3-0.3c0.2,0,0.3,0.1,0.3,0.3
	l0,0v6.9C65.4,54.3,65.4,54.3,65.3,54.4z"/>
<path class="st5" d="M71.2,49.4c0.1,0.1,0.1,0.1,0.1,0.2v4.5c0,0.2-0.1,0.3-0.3,0.3c-0.1,0-0.2,0-0.2-0.1c-0.1-0.1-0.1-0.1-0.1-0.2
	v-0.7c-0.2,0.3-0.4,0.6-0.8,0.8c-0.3,0.2-0.7,0.3-1.1,0.3c-0.4,0-0.9-0.1-1.2-0.4c-0.4-0.2-0.7-0.6-0.8-1c-0.2-0.4-0.3-0.9-0.3-1.4
	c0-0.5,0.1-1,0.3-1.4c0.2-0.4,0.5-0.7,0.9-1c0.7-0.4,1.6-0.5,2.3-0.1c0.3,0.2,0.6,0.4,0.8,0.8v-0.6c0-0.1,0-0.2,0.1-0.2
	C70.9,49.3,71.1,49.3,71.2,49.4C71.2,49.4,71.2,49.4,71.2,49.4L71.2,49.4z M69.8,53.7c0.3-0.2,0.5-0.5,0.7-0.8
	c0.2-0.3,0.2-0.7,0.2-1.1c0-0.4-0.1-0.7-0.2-1.1c-0.1-0.3-0.4-0.6-0.7-0.8c-0.3-0.2-0.6-0.3-0.9-0.3c-0.3,0-0.7,0.1-0.9,0.3
	c-0.3,0.2-0.5,0.4-0.7,0.8c-0.2,0.3-0.2,0.7-0.2,1.1c0,0.4,0.1,0.8,0.2,1.1c0.1,0.3,0.4,0.6,0.7,0.8C68.5,54.1,69.3,54.1,69.8,53.7
	L69.8,53.7z"/>
<path class="st5" d="M73.6,49.9v3.4c0,0.2,0,0.4,0.1,0.5c0.1,0.1,0.2,0.1,0.4,0.1c0.1,0,0.1,0,0.2,0c0,0,0.1,0,0.1,0
	c0.1,0,0.1,0,0.2,0.1c0,0,0.1,0.1,0.1,0.2c0,0.1-0.1,0.2-0.2,0.2c-0.1,0.1-0.2,0.1-0.4,0.1c-0.2,0-0.3,0-0.5-0.1
	c-0.2-0.1-0.3-0.2-0.4-0.3c-0.2-0.2-0.2-0.5-0.2-0.8v-3.4h-0.7c-0.1,0-0.2,0-0.2-0.1c-0.1-0.1-0.1-0.3,0-0.4c0,0,0,0,0,0
	c0.1-0.1,0.1-0.1,0.2-0.1H73v-1.1c0-0.1,0-0.2,0.1-0.2c0.1-0.1,0.3-0.1,0.4,0c0.1,0.1,0.1,0.1,0.1,0.2v1.1h1c0.1,0,0.1,0,0.2,0.1
	c0.1,0.1,0.1,0.1,0.1,0.2c0,0.1,0,0.1-0.1,0.2c-0.1,0-0.1,0.1-0.2,0.1L73.6,49.9z"/>
<path class="st5" d="M76.8,47.8c0.1-0.1,0.3-0.2,0.5-0.2c0.1,0,0.2,0,0.4,0.1c0.1,0,0.1,0,0.2,0.1c0.1,0,0.1,0,0.2-0.1
	c0.1-0.1,0.1-0.1,0.1-0.2c0-0.1-0.1-0.2-0.2-0.3c-0.2-0.1-0.3-0.1-0.5-0.1c-0.4,0-0.7,0.1-1,0.3c-0.3,0.3-0.4,0.6-0.4,1v5.8
	c0,0.2,0.1,0.3,0.3,0.3c0.2,0,0.3-0.1,0.3-0.3V50h1.1c0.1,0,0.1,0,0.2-0.1c0.1-0.1,0.1-0.3,0-0.4c0,0,0,0,0,0
	c-0.1-0.1-0.1-0.1-0.2-0.1h-1.1v-1C76.7,48.2,76.7,48,76.8,47.8z"/>
<path class="st5" d="M83.3,53.3c-0.2,0.4-0.5,0.7-0.9,1c-0.8,0.5-1.8,0.5-2.6,0c-0.4-0.2-0.7-0.6-0.9-1c-0.4-0.9-0.4-1.9,0-2.8
	c0.4-0.8,1.3-1.3,2.2-1.3c0.9,0,1.8,0.5,2.2,1.3C83.7,51.4,83.7,52.4,83.3,53.3z M82.8,50.8c-0.2-0.3-0.4-0.6-0.7-0.8
	c-0.3-0.2-0.6-0.3-1-0.3c-0.3,0-0.7,0.1-1,0.3c-0.3,0.2-0.5,0.5-0.7,0.8c-0.2,0.3-0.3,0.7-0.3,1.1c0,0.4,0.1,0.7,0.3,1.1
	c0.2,0.3,0.4,0.6,0.7,0.8c0.3,0.2,0.6,0.3,1,0.3c0.7,0,1.4-0.4,1.7-1C83.1,52.3,83.1,51.5,82.8,50.8z"/>
<path class="st5" d="M87.4,49.3c0.1,0,0.2,0.1,0.2,0.2c0,0.1,0,0.2-0.1,0.2c0,0.1-0.1,0.1-0.2,0.1c-0.1,0-0.1,0-0.2,0
	c-0.1,0-0.2,0-0.3-0.1c-0.3,0-0.5,0.1-0.7,0.3c-0.3,0.2-0.5,0.5-0.6,0.7c-0.2,0.3-0.2,0.6-0.2,0.9v2.5c0,0.2-0.1,0.3-0.3,0.3
	c-0.2,0-0.3-0.1-0.3-0.3v-4.5c0-0.2,0.1-0.3,0.3-0.3c0.2,0,0.3,0.1,0.3,0.3l0,0v0.9c0.1-0.4,0.4-0.7,0.7-1c0.3-0.3,0.7-0.4,1.1-0.4
	C87.2,49.2,87.3,49.2,87.4,49.3z"/>
<path class="st5" d="M95.5,49.8c0.3,0.4,0.5,1,0.4,1.5v2.9c0,0.2-0.1,0.3-0.3,0.3c-0.2,0-0.3-0.1-0.3-0.3v-2.8
	c0-0.4-0.1-0.8-0.3-1.1c-0.2-0.3-0.6-0.4-1-0.4c-0.6,0-1.1,0.3-1.4,0.8c-0.2,0.2-0.2,0.5-0.2,0.8v2.8c0,0.1,0,0.2-0.1,0.2
	c-0.1,0.1-0.3,0.1-0.4,0c-0.1-0.1-0.1-0.1-0.1-0.2v-2.9c0-0.4-0.1-0.8-0.3-1.1c-0.2-0.3-0.6-0.4-0.9-0.4c-0.3,0-0.5,0.1-0.8,0.2
	c-0.2,0.1-0.4,0.3-0.6,0.5c-0.1,0.2-0.2,0.5-0.2,0.7v2.9c0,0.2-0.1,0.3-0.3,0.3c-0.2,0-0.3-0.1-0.3-0.3v-4.5c0-0.2,0.1-0.3,0.3-0.3
	c0.2,0,0.3,0.1,0.3,0.3l0,0v0.6c0.2-0.3,0.4-0.5,0.7-0.7c0.3-0.2,0.6-0.3,1-0.3c0.4,0,0.7,0.1,1,0.3c0.3,0.2,0.5,0.5,0.6,0.8
	c0.2-0.3,0.4-0.6,0.8-0.8c0.3-0.2,0.7-0.3,1.1-0.3C94.6,49.2,95.1,49.5,95.5,49.8z"/>
</svg>
