<?xml version="1.0" encoding="utf-8"?>
<!-- Generator: Adobe Illustrator 25.3.1, SVG Export Plug-In . SVG Version: 6.00 Build 0)  -->
<svg version="1.1" id="Camada_1" xmlns="http://www.w3.org/2000/svg" xmlns:xlink="http://www.w3.org/1999/xlink" x="0px" y="0px"
	 viewBox="0 0 328.7 84" style="enable-background:new 0 0 328.7 84;" xml:space="preserve">
<style type="text/css">
	.st0{fill:#FFFFFF;}
	.st1{fill:none;stroke:#FFFFFF;stroke-width:4;stroke-miterlimit:10;}
</style>
<g>
	<rect x="88" y="33.1" class="st0" width="4" height="17.8"/>
	<polygon class="st0" points="72.5,44.7 62.9,33.1 59.3,33.1 59.3,50.9 63.4,50.9 63.4,39.3 73.1,50.9 76.7,50.9 76.7,33.1 
		72.5,33.1 	"/>
	<polygon class="st0" points="29.1,33.1 25,33.1 25,50.9 34.6,50.9 34.6,47.4 29.1,47.4 	"/>
	<path class="st0" d="M105.1,35.5c-3.6,3.7-3.4,9.6,0.3,13.2c1.9,1.8,4.4,2.7,7,2.6c1.4,0,2.7-0.3,3.9-1l0.1-4.7
		c-1.1,1.1-2.5,1.8-4.1,1.8c-0.2,0-0.4,0-0.6,0c-2.9-0.2-5.1-2.6-4.9-5.5c0-1.5,0.6-3,1.7-4.1c1-0.9,2.3-1.4,3.6-1.4
		c1.6,0,3.2,0.7,4.3,2v-4.7c-1.3-0.6-2.8-1-4.3-1C109.5,32.6,106.9,33.6,105.1,35.5z"/>
	<path class="st0" d="M2.8,35.3c-3.7,3.7-3.7,9.7,0,13.5c1.9,1.8,4.4,2.7,7,2.6c1.4,0,2.7-0.3,3.9-1v-4.7c-1.1,1.2-2.6,1.8-4.1,1.8
		c-1.4,0-2.8-0.6-3.8-1.6c-1-1.1-1.6-2.5-1.5-3.9c0-1.5,0.6-3,1.7-4.1c1-0.9,2.3-1.4,3.6-1.4c1.6,0,3.2,0.8,4.2,2v-4.8
		c-1.4-0.7-2.8-1-4.3-1C6.9,32.6,4.6,33.6,2.8,35.3z"/>
	<polygon class="st0" points="45,51.1 49.2,51.1 49.2,33.3 45,33.2 	"/>
	<polygon class="st0" points="45,30.3 46.7,31.7 51.2,28.4 48.5,26.3 	"/>
	<path class="st1" d="M300.2,2H182c-14.7,0.3-26.5,12-26.5,26.3V82h144.7c14.6,0,26.4-11.5,26.5-25.7V27.6
		C326.6,13.5,314.8,2,300.2,2z"/>
	<path class="st0" d="M198.4,32.1c-1.1,2,0.8,2.7,4.9,3.5s9,1.6,13.4,2.5c11,2.2,11.7,14.9,5.5,20.2s-25.6,4.7-32.4,2.1
		c-4.3-1.5-7.4-5.2-8.1-9.7c-0.1-0.7,0.4-1.4,1.1-1.5c0.1,0,0.3,0,0.4,0l14.1,0.6c2.2,0,2.4,0.4,2.8,0.7c0.6,0.8,1.5,1.4,2.4,1.6
		c4.4,1,7.3,0,7-2.1s-3.7-2.2-11.4-3c-10.3-1-16.5-4.9-16.3-11.9c0-8.2,4.8-13.1,21-13.4c17.4-0.3,22,7.4,23.1,11.2
		c0.4,1.5-0.5,1.7-1.6,1.7s-12.8-0.9-14.7-0.9s-2.5-0.8-2.5-0.8v-0.1C205.2,30.8,199.5,30.1,198.4,32.1z"/>
	<path class="st0" d="M231.2,23.4c0-0.7,0.6-1.3,1.3-1.3l0,0h10.2c0.7,0,1.3,0.6,1.3,1.3l0,0v5c0,0.7-0.6,1.3-1.3,1.3h-10.2
		c-0.7,0-1.3-0.6-1.3-1.3V23.4z"/>
	<path class="st0" d="M244.2,61.3c0,0.5-0.4,0.9-0.9,0.9h-11.1c-0.5,0-0.9-0.4-0.9-0.9V32c0-0.5,0.4-0.9,0.9-0.9l0,0h11.1
		c0.5,0,0.9,0.4,0.9,0.9l0,0V61.3z"/>
	<path class="st0" d="M303.9,60.5c0,1-0.9,1.9-1.9,1.9h-9c-1,0-1.9-0.8-1.9-1.9l0,0V36.7c-2.8,8.2-8.3,22.3-8.8,23.7
		c-0.7,1.9-1.6,1.9-3,1.9h-7.1c-1.2,0-2.3-0.8-2.8-2c-0.5-1.1-6.8-18-8.8-23.7v23.7l0,0c0,1-0.8,1.9-1.9,1.9l0,0h-9
		c-1,0-1.9-0.8-1.9-1.9v-37c0-1,0.8-1.9,1.9-1.9h16.9c1.8,0,2.6,0.3,3.1,1.9s5.1,16.5,6,19.2c1-2.8,5.5-17.4,6-19.2s1.3-1.9,3.1-1.9
		h17c1,0,1.9,0.9,1.9,1.9L303.9,60.5z"/>
	<path class="st0" d="M132.1,33L125,50.8h4.3l1.4-3.3h6.7l1.4,3.3h4.2L136,33H132.1z M131.7,44.4l2.2-6l2.2,6H131.7z"/>
</g>
</svg>
